<?xml version="1.0" encoding="utf-8"?><!DOCTYPE svg  PUBLIC '-//W3C//DTD SVG 1.1//EN'  'http://www.w3.org/Graphics/SVG/1.1/DTD/svg11.dtd'><svg enable_background="new 0 0 1000 433" height="433px" pretty_print="False" style="stroke-linejoin: round; stroke:#000; fill: none;" version="1.1" viewBox="0 0 1000 433" width="1000px" xmlns="http://www.w3.org/2000/svg" xmlns:xlink="http://www.w3.org/1999/xlink"><defs><style type="text/css"><![CDATA[path { fill-rule: evenodd; }]]></style></defs><metadata><views><view h="433.122138869" padding="0" w="1000"><proj flip="auto" id="robinson" lon0="14.7525073791"/><bbox h="42.65" w="98.7" x="124.73" y="-818.88"/></view></views></metadata><g class="" id="bg"><path d="M676.270353,431.122139L679.750118,428.931168L682.110005,425.098786L692.848039,420.570747L702.597696,414.659516L709.198441,407.130156L712.757999,401.185292L719.441301,396.970989L726.812758,395.757609L733.467651,393.646277L761.994712,390.831067L791.693396,393.039560L805.463552,388.897568L816.495905,381.640417L833.286798,379.601492L834.161658,379.512490L859.932748,385.087046L861.620042,381.842689L862.595345,380.410596L860.852939,364.583023L868.285431,357.380326L875.450917,354.321030L895.142019,336.311333L905.244039,331.292360L917.522507,332.158553L921.297637,330.531400L922.118449,327.932766L923.716530,322.063377L924.292856,316.525673L924.908868,311.319710L923.358574,308.380649L917.398023,307.465724L913.488864,294.607675L916.110717,289.749246L918.853703,286.364476L913.819641,270.727572L914.500231,265.407131L923.934033,264.573022L931.543050,261.236574L937.652294,257.438505L939.039818,252.620030L943.483497,242.764369L937.596599,230.681672L909.522674,222.818278L907.839366,219.805759L913.932561,216.388356L920.313238,211.513344L923.934969,207.715417L929.159798,207.189055L936.782035,209.100157L950.736850,217.846013L955.910409,219.109320L960.590065,216.566514L965.775975,216.023943L980.418999,216.347866L992.537128,214.315253L988.954322,204.994543L988.403053,198.232965L985.845377,192.831937L986.626495,186.888536L991.202482,182.257022L991.781637,171.852772L998.842920,164.833343L990.262041,159.263396L987.244952,152.017977L973.039162,132.979747L956.191175,101.686884L955.037585,92.658206L959.617775,82.368878L964.023485,74.515449L964.186974,68.280317L964.599649,66.582143L961.020353,62.927190L953.947893,49.215109L947.172862,47.460919L938.046947,46.183711L931.083808,44.162875L915.748242,36.274276L908.015961,33.898235L899.361685,33.259795L891.498295,37.898776L885.739253,43.378811L866.340243,43.306063L844.875711,40.759961L812.945839,22.609560L805.053826,22.447966L796.706758,23.272101L783.075852,18.981908L756.385908,7.236407L744.121151,4.482232L736.640332,6.162178L729.897494,8.762989L724.962572,9.069927L721.779563,5.257584L711.854110,0.541074L702.214371,0.000000L699.655341,2.842731L698.459330,28.685889L695.945655,38.011927L682.717007,37.575488L678.352000,41.988541L668.926525,54.478017L667.845669,66.517452L649.640011,64.180522L640.928255,62.159032L633.486732,63.695358L625.659707,70.326276L602.308674,69.938105L583.551300,65.975664L574.537858,51.082535L565.654458,45.189450L554.631527,39.919370L550.821613,38.747416L549.507425,41.964292L549.526125,52.076905L550.483497,62.797816L549.125955,68.466310L541.603495,75.930774L537.552184,77.524063L535.437115,79.133569L509.995550,69.396286L508.152183,71.054104L506.686657,72.259083L502.040454,100.489468L497.851446,105.918445L491.396466,110.910854L477.586479,115.774101L467.888331,117.756705L460.390922,120.216817L436.902617,132.048973L426.429620,139.155458L419.925907,148.083780L420.226091,153.224167L433.055273,168.338966L447.744139,183.957389L448.747003,197.698524L443.372738,207.974549L442.229961,211.942537L446.349318,213.440667L453.964282,214.007528L460.422711,215.781001L463.610903,223.012635L463.636419,235.613540L462.251476,247.412813L460.308535,252.377081L454.217195,252.773898L442.100141,247.671960L432.526781,241.743978L428.780838,238.099727L428.278144,233.742829L430.084829,230.989407L426.459974,225.620259L414.844758,220.656065L402.892593,222.818278L394.172508,226.162841L388.396962,225.968483L381.866678,221.190544L372.058071,217.530187L359.391968,215.116960L351.434429,212.541788L349.892732,214.064214L351.451754,224.405526L349.333980,228.916247L287.784654,234.892790L269.245354,240.488736L255.928792,247.728648L245.942460,250.870796L243.709347,255.332956L233.977449,261.196083L222.709690,263.066764L219.863617,261.147493L212.721914,263.852286L200.434255,266.467985L192.304309,265.633879L188.245061,260.896449L180.149586,253.640415L176.787325,248.611366L176.931881,245.388230L159.529652,244.740363L148.368076,240.909849L125.182466,241.808765L119.368528,240.189097L118.261182,241.930240L115.851858,262.507990L111.699132,270.954317L104.702450,279.683873L95.406347,284.542511L87.827801,285.425153L87.862011,279.060341L89.391270,271.391610L83.809751,269.593846L75.525136,268.711157L71.418249,266.427495L72.166533,260.596815L70.094817,257.187459L66.480011,253.122125L57.953381,247.858221L40.066208,240.067622L27.955478,236.212816L23.695702,240.318670L21.125552,241.594019L25.942730,244.278758L24.441271,246.270949L20.136490,247.680058L2.781583,246.894520L12.584243,254.207295L10.972216,266.686634L1.157080,286.761258L2.513442,289.433444L3.388065,292.834362L4.739108,296.461946L5.573407,300.899166L7.927478,305.473922L12.014216,309.757076L13.456003,313.894377L11.740106,319.084056L9.843111,322.144336L15.096149,322.128145L31.838131,325.504086L45.373383,330.434255L48.194046,335.639451L50.243263,341.985738L66.476971,350.662692L84.884641,356.271545L90.934819,354.474806L112.387610,334.182343L121.250952,337.557946L127.072285,348.331644L127.138132,354.045850L130.747484,355.672636L144.079561,355.907344L158.669250,357.121342L168.497835,365.918289L177.836819,368.912445L190.955966,369.867315L199.638099,368.621126L203.681784,365.311352L208.205740,355.008976L216.835291,342.236668L231.125821,335.688021L256.082431,334.465671L268.451077,332.085696L281.443262,332.223315L291.358874,334.198534L301.456108,333.963776L326.620284,325.075015L352.682054,318.039658L356.429052,319.221689L357.115980,321.561431L352.711381,326.985586L348.541942,334.182343L352.136359,342.390463L368.248097,358.861378L377.266524,371.469531L385.579202,380.944600L397.964142,385.936543L414.019948,388.986558L427.529708,390.086797L441.808252,393.662456L490.641668,402.479458L515.101848,404.922127L533.534748,405.310357L561.842312,411.157789L567.752459,412.144439L579.408484,412.653932L592.516575,414.813167L604.777973,417.465604L615.636275,420.821416L638.199198,424.330661L658.654597,426.449043L664.913943,428.405646L669.904903,428.252031L676.270353,431.122139Z " data-name="at"/></g><g class="" id="provinces"><path d="M86.816488,286.492002L84.832239,286.700071L84.229190,286.408692L84.709372,285.371726L85.830356,283.499177L86.347610,283.186369L88.075076,282.740726L88.689987,282.200810L88.961222,281.095266L88.841633,280.101129L88.484746,279.012716L90.560635,272.876395L90.501980,269.889610L88.011355,268.771167L82.248909,269.671064L80.752947,271.149462L80.211427,271.517989L79.527761,271.513704L78.124667,270.806646L77.464849,270.733797L75.765086,271.440856L74.786195,272.079350L73.899445,272.113631L72.560355,271.050902L71.768773,269.465374L71.554891,267.682718L71.111737,265.960047L69.589805,264.520199L72.494414,262.527544L73.020181,260.783428L71.759445,258.837898L64.844281,250.738608L63.371522,251.321417L62.241298,252.195629L61.102040,252.624164L59.616832,251.887083L59.362874,250.918593L59.296273,250.412921L59.270862,249.911534L57.955915,247.678860L56.232367,246.273260L54.774713,244.721956L54.267365,241.979319L52.724887,243.067803L50.748257,243.402062L46.802497,243.136369L42.766450,241.885041L42.105164,242.039314L40.525002,242.930672L39.463423,242.999237L36.714581,241.816475L36.121975,240.063758L36.280634,238.045350L35.745836,236.082652L34.131981,234.651342L32.233393,234.077104L30.263623,234.265659L28.395686,235.131302L25.656479,237.976784L24.167564,240.993464L24.184456,240.997107L26.040836,242.364108L27.826459,245.439860L22.250438,245.146931L20.592519,245.439860L20.271328,246.025717L19.640421,248.222680L18.971481,248.857358L18.122934,249.003822L15.354035,248.857358L14.556960,248.466787L14.251847,247.002145L13.381829,246.709217L12.384912,247.002145L10.859392,248.417966L9.947316,248.857358L7.963555,248.857358L6.077484,248.466787L4.289178,247.685645L2.835075,246.860118L2.857015,246.933206L7.006279,251.938507L12.016740,253.849773L15.939378,256.686666L16.173926,263.714567L15.012495,266.234304L10.155799,271.749390L9.612906,273.236350L9.071222,276.158827L8.620652,277.298672L4.332833,281.935137L0.375636,288.079827L1.652246,289.596693L2.192368,290.007701L3.966682,291.357786L3.507626,292.720645L3.188710,293.667325L3.847117,295.124164L5.175373,296.568137L6.421923,298.869046L6.342092,300.051625L5.148487,302.545299L5.231454,303.984930L7.273738,304.990582L9.268932,305.972971L12.598439,309.726191L13.195932,311.360462L13.906004,313.302477L14.144564,313.954881L13.435542,318.264849L12.975079,318.791514L10.855711,321.215248L9.970279,322.227673L12.476209,322.788885L19.384159,322.052026L21.616736,322.339059L46.986229,329.090571L46.860515,330.979729L47.442563,331.390970L48.261812,331.335281L48.794179,331.849331L48.842558,332.826020L48.372985,334.410979L48.236572,338.300461L47.900066,340.086664L48.196207,341.641535L49.983299,343.688962L53.379927,345.847712L67.763695,349.766753L73.101072,353.942607L76.164895,355.424455L81.976465,357.000500L83.822230,357.060925L83.800023,356.992068L83.653611,356.538101L80.987321,351.133160L77.771528,346.910071L77.380686,345.278180L77.741267,343.868994L79.354972,342.035738L80.915711,340.784993L82.275526,339.088755L83.013919,337.032673L83.216651,334.145527L83.064426,332.363513L82.536064,330.054565L82.290096,328.045444L82.404642,325.449389L83.608572,318.834780L84.806170,315.737283L89.606221,309.079372L91.365841,304.961949L91.395248,300.343118L91.208433,298.706360L89.245206,291.259368L86.816488,286.492002Z " data-name="AT-" data-state-code="at"/><path d="M998.978809,164.918571L995.696338,162.583730L991.323118,161.302798L988.178637,159.906211L988.646816,157.185910L986.970557,156.076387L986.429323,155.802221L986.906108,152.717893L987.438415,151.038682L988.661769,149.637930L986.811251,148.091554L986.101349,147.131842L986.101001,147.132175L984.595418,148.571448L983.712604,148.974105L982.593224,149.239688L981.018224,148.965538L979.838647,148.314433L978.392696,147.727586L977.462991,148.061703L975.864196,149.608078L975.569630,152.066901L975.753404,153.232076L976.273496,154.508641L976.208420,155.862328L975.404525,157.404523L973.883894,158.222750L971.715141,157.310277L967.461239,154.645722L965.331745,153.866073L962.654683,154.140235L959.718621,155.348268L954.670589,158.646860L949.303834,160.874530L947.734837,160.673181L946.225490,160.925938L943.515914,162.018367L940.466202,164.301788L938.966776,168.474594L937.809834,170.539621L936.095164,171.979159L931.772830,174.695469L929.400753,176.897685L924.442513,179.125639L914.975253,176.542073L910.379859,176.794858L906.674147,177.746018L900.645550,181.927762L898.741098,183.821577L897.012706,187.086527L897.286188,193.513754L896.936739,195.441961L896.284062,196.924549L894.794422,198.505701L893.330804,199.585518L888.829894,200.044013L889.612617,210.173958L890.826404,212.222270L893.095837,215.153349L897.933879,219.601432L902.248424,224.709495L898.500111,231.883137L897.749520,232.950189L896.646540,234.951451L896.047030,236.854152L895.939179,240.488144L896.545074,242.853669L897.445980,244.824939L897.532565,246.856204L897.445128,248.518926L891.054452,254.809823L889.022443,256.258267L885.841399,257.775273L882.524290,258.306653L874.904730,258.186664L867.830972,265.008853L865.486580,266.174444L864.955800,265.445950L864.454443,264.323210L863.662045,263.401875L862.069689,263.564716L860.810901,264.721740L858.993736,267.082917L858.655372,268.471335L858.955976,269.902600L861.678589,274.650589L863.488218,278.755744L865.121724,283.383615L866.657052,289.665385L867.051586,292.253459L871.659189,304.276416L872.022437,308.758037L871.044469,313.925024L871.323420,315.595902L872.044244,317.905110L873.366524,319.777296L878.603391,324.999572L879.066202,326.400425L879.013676,327.527094L878.210396,329.279194L875.081206,333.614352L869.249153,340.904928L864.784722,344.447234L863.966414,346.036306L863.639412,347.599655L863.672215,349.291470L863.318429,352.062558L863.496396,353.086170L864.204993,353.887064L865.940703,355.013443L866.531113,355.707251L866.788965,356.101264L867.120367,357.925690L867.216441,358.610911L867.226953,358.685891L867.694259,358.585082L870.355952,357.175520L875.586233,354.405152L877.642887,353.552868L879.230112,352.152365L883.587260,346.524454L885.012215,345.162400L888.212486,343.046469L890.898972,342.035604L891.767790,341.427367L892.560360,340.219450L892.546973,339.212841L892.362393,338.291894L892.622695,337.280984L893.885345,336.295767L895.180545,336.047319L896.187499,335.289123L896.557791,332.774615L897.668517,330.941175L899.459739,330.731270L904.475204,331.583739L909.826988,331.022567L912.659782,331.318146L915.069011,332.791750L915.818844,333.245822L916.517305,333.408602L917.149965,333.271524L917.687988,332.817452L917.686576,332.800317L919.863429,332.449053L923.313162,332.414783L925.777494,331.896452L925.039896,330.101553L923.011722,328.602213L921.076717,328.062446L917.249410,327.664045L918.801512,326.387439L924.561943,324.326851L925.987055,323.508604L926.445917,322.600387L925.908899,321.739288L924.291591,321.062401L921.558022,320.299827L920.390943,318.110617L921.053247,315.690023L923.723511,314.207656L926.465685,310.793014L926.934108,308.852161L925.151611,306.838447L922.960389,306.658497L918.636518,308.492265L916.774097,307.489694L916.739284,306.572807L917.586383,303.744992L917.424647,302.288221L916.446408,301.217058L915.330521,301.127080L914.283206,301.204204L913.441309,300.621489L912.749567,297.883558L914.487306,294.250062L913.809874,291.357786L913.809519,291.353501L913.808454,291.340647L917.768281,289.442435L919.520376,287.976988L920.211087,285.757375L919.450967,283.032108L914.833320,275.846012L914.450437,275.516056L913.846555,275.323224L913.222245,275.048975L912.800438,274.414771L912.800909,273.433468L913.337995,272.987809L913.969907,272.696417L914.216332,272.207906L913.359105,265.848631L914.523423,263.748849L916.144707,263.363174L917.994711,264.408781L919.763074,266.602836L933.511365,261.074829L938.199427,257.771811L939.933874,256.549535L938.836945,249.868681L940.222242,248.484509L943.956570,247.104621L945.183638,244.987649L945.117171,242.433568L943.916845,240.355163L941.953338,238.773862L939.623697,237.702520L940.088414,234.488498L938.685080,231.137353L936.155694,228.506155L933.181290,227.383398L928.881869,228.017627L926.476417,227.206536L919.935436,225.000762L916.337045,225.694982L908.728695,223.153796L906.243174,221.983912L907.298744,220.741180L909.072744,217.981471L909.971478,217.150133L910.804046,217.968615L911.502339,218.487131L912.125184,218.594262L912.959692,218.135740L914.427496,216.935871L919.493543,214.574711L920.534558,213.657677L921.136923,212.230707L920.720532,210.045269L921.376028,208.442624L926.059177,206.582880L931.645124,207.174226L942.510282,210.666617L944.258474,211.656492L945.094915,213.147738L945.735126,214.896102L946.523011,216.064745L946.890758,216.610193L948.474781,217.908621L949.956400,218.645685L957.476048,219.639865L958.615377,219.404176L959.970200,218.182877L962.261013,214.681842L963.898753,213.426276L966.195960,217.771494L971.269378,218.551409L981.539300,216.327368L991.060286,215.234635L993.681093,214.163331L992.111356,213.366283L990.882864,212.102151L990.082645,210.430933L989.365035,205.014534L988.185881,201.655047L987.759699,198.801231L989.573327,196.937270L988.622968,195.887459L987.084941,192.789476L985.991641,192.129607L983.130788,191.045541L982.234559,190.299981L982.035982,188.491796L983.620670,187.759100L988.109635,186.897864L990.149059,185.449627L991.310061,183.774312L991.882372,181.601997L992.168093,178.649921L991.866728,178.320011L991.155571,178.131492L990.472499,177.797299L990.273138,177.077500L990.585866,176.606206L991.749472,175.899267L991.983758,175.620776L992.226449,174.198341L992.775314,173.161514L992.739355,172.133263L991.230703,170.770841L998.978809,164.918571Z " data-name="AT-" data-state-code="at"/><path d="M874.904730,258.186664L870.079617,254.814109L868.482972,252.410030L867.515649,250.601611L867.291511,249.864529L867.073315,248.698911L866.583911,247.473297L866.132356,246.710501L865.641784,246.221969L864.988588,245.999130L861.997509,247.331880L860.738086,247.713277L859.792300,247.670423L858.717916,247.306167L857.408269,246.316248L854.041707,244.799227L843.134262,243.230781L841.209182,239.433943L839.392315,236.802727L835.752605,234.582910L832.558612,234.582910L831.540517,234.398639L830.661448,233.991530L830.247544,232.920192L830.351234,232.174541L830.818470,230.606104L830.864301,229.397638L830.735556,228.309163L830.435029,227.374962L830.186091,226.826440L829.283451,225.532274L828.554125,224.863766L827.491413,224.375241L825.813424,224.632359L821.553210,226.715022L820.146760,226.787872L818.840086,226.063653L817.661838,223.878146L817.039493,221.988331L815.869869,217.188834L815.147137,216.001824L814.159459,215.251909L812.419254,214.981940L811.349360,215.161920L810.060446,215.161920L808.523847,214.879095L805.910848,213.756370L803.962916,212.676500L802.239233,210.816732L799.336079,208.357055L790.380212,207.705715L785.039426,204.577589L773.790410,200.069723L767.900989,195.733336L765.716522,194.992044L763.042434,194.782084L755.092528,196.466059L754.208627,196.491769L748.694874,195.784755L745.375813,199.718353L744.756854,200.961006L743.567241,202.229376L742.213188,202.962119L737.209292,203.921973L730.665168,206.128793L726.673784,207.148649L725.399563,207.157219L723.164004,206.810125L721.186049,206.887257L718.566745,207.491459L713.417526,209.428341L710.286627,211.108124L706.983447,211.785182L704.211370,211.468078L700.009694,208.665585L698.697261,207.542880L697.934296,207.191500L684.201454,207.251492L679.379339,204.140511L671.397217,209.882567L652.871837,216.327501L651.563823,218.007316L651.158559,219.168620L649.793370,220.355639L647.597151,221.375535L643.511799,222.404004L640.318558,224.066699L634.677252,227.897772L631.505071,228.746267L627.629786,228.750552L624.899322,228.077755L621.947759,226.989282L614.192105,222.583986L612.947472,222.352580L611.174461,222.738256L606.397211,224.696639L600.069460,226.166501L597.524792,227.786353L596.709719,227.837777L595.940211,226.239351L595.643737,224.958043L593.944274,221.804064L587.533344,215.804703L581.764269,216.481770L579.731744,216.096099L576.186872,214.964800L572.173814,214.343443L570.341896,213.704948L567.016075,212.093715L565.817480,211.922307L564.382630,212.170848L550.712681,218.135874L548.604797,219.691423L547.076907,221.546947L546.504071,223.895287L546.320671,225.960806L546.321946,229.209083L546.516996,230.833227L547.087699,232.560222L548.270561,234.257223L549.839575,235.911372L551.636627,237.505527L552.755587,238.868274L554.140466,241.105237L554.944275,243.817877L555.160378,246.033413L554.791953,247.798984L554.413473,248.540352L553.897112,249.067452L550.760809,251.492965L550.375263,252.135768L548.779620,252.465740L547.588687,253.018550L535.203729,250.995864L534.307885,253.455655L533.576015,256.515387L533.479462,257.792414L535.155811,263.688989L539.846841,274.856276L543.734121,280.975418L548.134211,284.300609L550.486618,285.688949L552.487424,286.143158L554.276458,285.611819L556.042271,284.352029L558.181889,283.555016L561.877105,283.203643L563.769319,282.098103L565.741817,281.558186L567.553457,282.535178L569.974746,286.267422L573.158710,290.141010L573.943957,291.687856L574.390448,293.084721L575.149421,294.841500L576.303324,296.375456L581.016958,301.161491L585.147326,303.565173L586.259950,304.987657L586.092232,306.692907L583.713573,309.469257L580.038083,312.699702L579.032975,314.186368L578.952716,316.272817L579.451732,319.597361L578.897296,321.465240L577.618827,324.639717L572.527357,333.674323L567.836555,339.251526L573.192700,342.879554L575.121113,344.006059L576.366535,344.472933L578.776292,344.237354L581.084105,343.620564L588.873286,338.184940L593.683305,336.133125L595.476979,333.185984L595.989321,331.995112L596.487893,331.194051L597.559459,330.067416L599.500913,328.747998L613.557693,322.793303L617.404260,322.189251L622.092648,322.253512L625.605184,323.590135L631.184050,326.807398L640.805284,329.356303L643.152854,330.281606L644.576443,331.215470L644.937987,331.669548L646.110494,331.875168L648.500544,331.960842L661.716722,327.848386L665.331261,328.105418L673.952875,327.617056L677.627053,328.872229L693.855264,327.788411L708.317402,324.806792L710.373112,325.098103L711.784794,325.843513L713.846011,327.214369L719.477147,332.714777L730.937806,346.370394L731.043521,351.334459L730.415412,353.377405L729.655918,354.859262L729.086324,356.863587L728.951898,357.814341L729.308864,359.283280L730.138728,361.480218L732.415764,365.505655L734.397250,371.346482L735.120822,376.878608L737.023231,380.834781L745.921482,389.003361L747.090139,390.210589L747.152882,390.275399L756.111449,391.097685L760.437238,391.494718L777.370327,390.729849L784.698574,390.398815L788.708792,391.661670L791.209408,393.444366L791.861309,393.909067L794.992969,395.522868L798.929045,394.919302L801.272009,393.249838L801.578746,392.558016L801.997000,391.614581L802.230515,390.043847L802.277017,389.730991L803.398831,387.372153L805.327561,386.040724L808.119495,385.398546L810.944806,385.364297L812.987058,385.852352L814.670428,385.432796L815.313559,384.997870L815.974524,384.550864L816.657595,383.099506L816.477974,380.971654L816.694715,378.471244L818.922991,379.588732L829.195018,380.886025L832.695338,380.714766L836.502206,379.360007L841.453291,377.597794L845.123374,377.323768L848.864620,377.948887L858.178291,381.853628L861.035556,382.283814L863.638223,382.675653L865.162918,383.549045L867.857242,386.226966L867.876615,386.246219L867.875314,386.237839L867.283057,382.423053L865.582168,379.858468L862.631206,378.308543L860.784629,374.253759L860.443383,371.350630L860.421787,368.944639L860.417273,368.443114L860.925505,363.295837L860.722058,362.122454L860.102860,361.754163L859.950351,361.390153L861.146199,360.221027L861.897142,359.835597L867.226953,358.685891L867.216441,358.610911L867.120367,357.925690L866.788965,356.101264L866.531113,355.707251L865.940703,355.013443L864.204993,353.887064L863.496396,353.086170L863.318429,352.062558L863.672215,349.291470L863.639412,347.599655L863.966414,346.036306L864.784722,344.447234L869.249153,340.904928L875.081206,333.614352L878.210396,329.279194L879.013676,327.527094L879.066202,326.400425L878.603391,324.999572L873.366524,319.777296L872.044244,317.905110L871.323420,315.595902L871.044469,313.925024L872.022437,308.758037L871.659189,304.276416L867.051586,292.253459L866.657052,289.665385L865.121724,283.383615L863.488218,278.755744L861.678589,274.650589L858.955976,269.902600L858.655372,268.471335L858.993736,267.082917L860.810901,264.721740L862.069689,263.564716L863.662045,263.401875L864.454443,264.323210L864.955800,265.445950L865.486580,266.174444L867.830972,265.008853L874.904730,258.186664Z " data-name="AT-" data-state-code="at"/><path d="M678.507659,431.122139L678.549854,431.011868L679.432020,427.807471L681.221985,425.373034L682.481488,424.919507L685.352493,424.697021L686.674961,424.354733L687.993791,423.584577L690.486419,421.188471L691.081291,421.051548L691.877127,421.173081L692.874531,421.325394L693.673870,419.280074L695.109335,417.666874L695.686877,416.541459L696.426493,415.754084L698.576285,414.893951L699.811146,415.617149L703.183773,415.129312L706.039973,413.973895L706.740882,413.413295L707.659525,411.300681L708.856381,408.547422L709.644052,406.010852L710.477491,403.325927L711.782614,400.535251L713.802802,397.761578L715.433107,397.149472L717.315524,397.346374L719.556252,397.085752L720.038866,397.029618L722.816766,395.462001L724.612638,394.448432L726.544423,394.756638L729.333503,397.907114L733.825022,391.845745L741.315333,389.739553L744.494935,390.031422L747.152882,390.275399L747.090139,390.210589L745.921482,389.003361L737.023231,380.834781L735.120822,376.878608L734.397250,371.346482L732.415764,365.505655L730.138728,361.480218L729.308864,359.283280L728.951898,357.814341L729.086324,356.863587L729.655918,354.859262L730.415412,353.377405L731.043521,351.334459L730.937806,346.370394L719.477147,332.714777L713.846011,327.214369L711.784794,325.843513L710.373112,325.098103L708.317402,324.806792L693.855264,327.788411L677.627053,328.872229L673.952875,327.617056L665.331261,328.105418L661.716722,327.848386L648.500544,331.960842L646.110494,331.875168L644.937987,331.669548L644.576443,331.215470L643.152854,330.281606L640.805284,329.356303L631.184050,326.807398L625.605184,323.590135L622.092648,322.253512L617.404260,322.189251L613.557693,322.793303L599.500913,328.747998L597.559459,330.067416L596.487893,331.194051L595.989321,331.995112L595.476979,333.185984L593.683305,336.133125L588.873286,338.184940L581.084105,343.620564L578.776292,344.237354L576.366535,344.472933L575.121113,344.006059L573.192700,342.879554L567.836555,339.251526L563.663174,334.873745L551.752271,327.325751L546.917583,325.235190L543.465524,324.326985L537.555467,323.924288L524.083832,321.473808L521.196316,321.302445L508.795962,318.552023L503.501867,317.198213L501.045764,317.326740L499.040978,317.755162L495.910462,320.505599L492.985865,322.553396L486.205941,325.440821L481.105470,326.400425L471.185975,326.884508L467.189796,326.520375L464.665055,325.929192L462.398979,324.892472L451.446709,319.061841L444.924153,317.301035L440.640812,316.915454L432.389937,315.193180L426.160484,312.631152L420.732973,309.747747L418.988527,309.117932L417.771356,309.027958L417.172577,309.297879L416.790581,309.747747L416.632802,310.171906L416.565610,310.728882L416.430260,311.183029L416.014507,311.748570L415.567835,312.151302L413.895137,313.081009L414.487663,316.264248L415.645594,317.570941L417.468604,318.783369L429.104168,322.035024L430.304059,323.341661L430.250578,325.072399L428.822101,328.542372L428.551673,329.776117L428.442312,330.958444L428.467213,331.669548L428.620068,332.453471L429.154317,334.059853L430.150097,335.490586L431.545534,336.955569L432.796118,338.831747L435.605380,340.969179L437.016296,341.813004L438.767327,343.363567L439.927243,345.098285L440.710677,347.372650L441.161296,349.587000L442.235015,352.216743L443.738381,353.848518L450.192677,359.424605L458.775396,368.922845L459.641060,370.216031L459.595294,370.781258L459.494516,371.132382L459.275783,371.569144L458.886851,371.920265L458.419561,372.014468L457.338806,371.851754L452.402364,368.811511L450.974311,368.366170L449.441913,368.537455L444.213531,370.550029L432.463016,372.074415L429.720301,373.286195L429.470497,376.159282L428.999059,378.137412L428.162385,380.526515L424.218269,387.941668L423.715330,389.217410L423.699491,389.257584L424.766227,389.662496L427.282135,391.233586L428.533461,391.695917L429.780837,391.661670L431.863836,390.946768L432.899775,390.826904L434.066791,391.157888L434.066850,391.157905L437.458288,392.119717L445.281113,396.353297L476.512860,398.275230L487.546154,400.441085L496.287053,404.905260L499.153272,405.872529L504.526565,406.103644L517.907487,403.616972L523.776968,404.494380L531.848152,403.985057L532.788955,404.288940L534.794595,406.129323L535.852369,406.741346L541.511212,406.921100L557.905106,411.414781L559.923577,411.594522L561.974646,411.243599L563.997669,411.389104L572.904173,413.225001L574.716988,413.207884L583.263154,411.988237L587.315320,412.561688L599.820652,417.508547L602.022101,417.739618L604.147898,417.407157L606.454539,417.046401L608.794654,417.097751L611.005126,417.654036L613.015817,418.497014L620.882675,424.046672L622.326406,424.380008L622.587565,424.440305L634.907844,424.742190L650.875558,425.133435L655.297020,424.286275L656.732647,424.560106L657.420760,425.338806L657.913688,426.271520L658.711244,427.041640L661.053072,427.946844L662.939507,428.675970L665.188546,428.975450L669.713463,428.034223L671.683428,430.186186L672.245465,431.122139L678.507659,431.122139Z " data-name="AT-" data-state-code="at"/><path d="M667.985583,68.618049L666.080565,70.323900L663.915014,70.204079L662.801096,69.121420L661.908393,67.563793L660.378124,66.001928L659.511714,65.843604L657.549894,66.429832L656.525694,66.335693L656.051870,65.638212L655.953659,64.534240L655.709901,63.477356L654.821728,62.856927L652.812101,62.993849L649.001302,64.577029L647.063372,64.945018L645.493503,64.628376L640.085338,62.334916L636.704585,59.237177L634.877030,60.341048L632.430243,66.874855L630.490476,68.659262L623.854596,71.119862L621.343434,72.895834L620.338339,73.238196L619.085932,73.358023L605.777802,69.506553L587.056142,67.760633L582.479313,66.194484L581.320451,65.372914L578.882199,63.010964L578.245991,62.103863L577.469603,59.844731L577.678324,59.365533L578.406876,59.134492L579.173810,57.585688L579.549231,57.346098L580.193884,57.448779L580.778931,57.294758L580.946477,56.259398L580.533077,55.249727L579.712859,54.787680L578.782053,54.479651L578.079445,53.957717L577.138841,52.597288L574.750777,49.799532L573.522073,48.755757L564.403468,44.700628L561.385231,42.707398L558.886994,41.150507L556.311322,40.012808L550.956063,38.832365L547.543177,45.727214L547.359494,47.301351L548.022038,47.096026L549.584970,49.397420L550.272104,49.902199L551.959695,50.560987L550.312982,51.955589L550.117790,53.932048L551.197406,59.279962L551.304324,62.061076L551.070724,64.448661L550.414673,66.622390L548.458915,70.704762L547.891636,71.487890L546.871820,72.390854L545.854637,72.767449L543.154943,73.135487L542.701189,73.049897L541.724777,74.937195L540.875905,79.358232L540.572870,79.105716L535.048120,77.072779L532.855427,74.487833L530.630990,73.161165L528.264794,72.125526L514.435458,68.941691L510.076785,69.438085L505.886530,70.786070L504.771206,71.701861L504.133516,72.853039L504.257114,73.452173L504.702933,74.196820L505.442425,77.184054L506.775844,78.780441L507.163287,80.235629L506.910624,81.849212L505.367425,84.986612L504.849996,86.506143L504.713964,88.047111L505.286734,92.725873L505.136279,94.451059L504.632392,95.589790L504.095064,96.445990L503.897097,97.302201L503.396393,100.817053L501.743707,103.398713L489.551091,112.835568L485.279388,114.912341L467.350921,117.571542L454.031255,122.127920L451.997194,123.399809L447.371126,127.356914L443.263947,129.348379L441.317925,130.736006L441.521067,131.130027L434.314094,132.324950L432.388844,133.220080L431.266000,134.325086L429.071824,137.520250L427.468768,139.182118L422.437700,142.274635L421.943512,142.822903L420.230275,145.302992L419.448084,145.611401L418.588876,145.577133L417.761615,145.821291L417.037472,147.012102L416.926166,149.248121L417.736549,151.432780L419.038033,153.428995L420.370391,155.065402L430.178966,163.256331L432.397593,166.957841L432.863722,168.741146L435.431074,167.844809L441.480180,166.375323L443.043135,165.518487L443.362180,164.790180L444.195930,162.288263L445.737097,161.212967L448.144352,160.574649L453.706785,160.309040L457.047073,160.698885L460.423454,162.331104L464.494126,165.775537L465.179789,166.152545L465.809730,166.409596L471.100514,167.947631L476.163835,168.431751L483.695177,167.669155L492.447804,164.173265L496.603316,166.606669L497.990505,167.180754L499.222333,167.870515L500.425954,169.040117L500.391208,170.316837L499.269821,171.533587L497.439431,171.944885L495.508946,171.790648L491.908911,170.916642L490.978204,171.045172L490.336425,171.516449L489.922280,172.330478L489.589322,173.735758L489.397903,175.719453L489.388701,180.376734L489.660244,182.561888L490.175219,184.721361L492.263318,190.771446L492.915639,192.245432L494.215714,193.625161L496.369620,194.833503L520.517035,199.332703L523.769350,201.715171L522.273016,203.437760L520.169324,203.771996L515.002241,203.969109L514.144885,204.586160L513.953114,205.366045L514.671992,206.600154L515.140695,207.170075L515.893691,207.710000L517.186177,208.361340L520.002028,209.351208L523.298700,209.698305L524.388007,211.253820L525.140321,212.667930L521.180363,225.275155L523.593336,228.514859L524.081357,229.954732L523.810334,231.668869L523.163491,232.980187L521.336108,235.885659L520.748313,238.062625L521.179307,240.565280L522.364102,242.810815L527.313545,246.881916L535.203729,250.995864L547.588687,253.018550L548.779620,252.465740L550.375263,252.135768L550.760809,251.492965L553.897112,249.067452L554.413473,248.540352L554.791953,247.798984L555.160378,246.033413L554.944275,243.817877L554.140466,241.105237L552.755587,238.868274L551.636627,237.505527L549.839575,235.911372L548.270561,234.257223L547.087699,232.560222L546.516996,230.833227L546.321946,229.209083L546.320671,225.960806L546.504071,223.895287L547.076907,221.546947L548.604797,219.691423L550.712681,218.135874L564.382630,212.170848L565.817480,211.922307L567.016075,212.093715L570.341896,213.704948L572.173814,214.343443L576.186872,214.964800L579.731744,216.096099L581.764269,216.481770L587.533344,215.804703L593.944274,221.804064L595.643737,224.958043L595.940211,226.239351L596.709719,227.837777L597.524792,227.786353L600.069460,226.166501L606.397211,224.696639L611.174461,222.738256L612.947472,222.352580L614.192105,222.583986L621.947759,226.989282L624.899322,228.077755L627.629786,228.750552L631.505071,228.746267L634.677252,227.897772L640.318558,224.066699L643.511799,222.404004L647.597151,221.375535L649.793370,220.355639L651.158559,219.168620L651.563823,218.007316L652.871837,216.327501L671.397217,209.882567L679.379339,204.140511L681.301176,200.061153L681.381131,198.047208L681.213652,194.199337L682.528633,188.063452L684.661653,185.192678L684.487707,182.086294L683.472847,180.826617L681.955720,179.408420L679.060253,177.591776L676.111560,176.237874L671.875841,175.149620L664.754524,172.261928L642.503485,158.698267L639.930671,156.312133L640.036885,155.545324L641.038953,155.296862L641.634155,154.975576L642.187754,154.461519L643.829291,151.569992L643.950974,151.013114L643.866584,150.156383L643.956390,149.719452L644.095324,149.393898L645.515627,147.920346L646.153213,146.896581L646.126495,146.266907L645.867430,145.804291L645.485308,145.333110L645.211511,144.673461L644.269125,139.987497L644.443344,139.045189L645.015068,137.691709L645.253293,136.244019L645.531061,129.618328L645.704371,128.577618L645.881240,128.217869L646.102099,127.900949L646.442065,127.541203L647.351067,126.885955L648.137280,126.496234L649.816201,125.237148L655.749205,125.331365L658.070186,126.008015L660.120480,127.147197L661.963248,128.774624L665.883674,133.147404L668.251205,134.873444L671.050464,135.567295L689.594830,131.734045L691.319419,130.470605L693.054218,128.106519L694.890117,126.530495L697.214230,125.648277L703.689828,125.374191L705.169355,125.699668L706.849896,126.513365L708.981165,128.491963L708.776062,124.800327L708.561377,110.514918L706.393920,102.311370L705.606241,100.830030L703.029942,99.220284L701.880741,93.881834L698.566214,92.892958L695.281137,89.399901L694.560234,87.721927L694.459905,86.258013L694.613644,85.269248L694.510914,83.775427L694.587038,83.184756L694.813724,82.872302L695.295192,82.782418L698.301767,82.970746L698.687448,82.696815L698.756106,82.011991L698.417582,80.282842L696.993839,78.468142L695.041225,77.175628L692.806805,76.529381L688.003485,75.990133L683.640327,74.128480L679.228678,72.596402L670.854037,71.021570L668.326747,69.112995L667.985583,68.618049Z " data-name="AT-" data-state-code="at"/><path d="M535.203729,250.995864L527.313545,246.881916L522.364102,242.810815L521.179307,240.565280L520.748313,238.062625L521.336108,235.885659L523.163491,232.980187L523.810334,231.668869L524.081357,229.954732L523.593336,228.514859L521.180363,225.275155L525.140321,212.667930L524.388007,211.253820L523.298700,209.698305L520.002028,209.351208L517.186177,208.361340L515.893691,207.710000L515.140695,207.170075L514.671992,206.600154L513.953114,205.366045L514.144885,204.586160L515.002241,203.969109L520.169324,203.771996L522.273016,203.437760L523.769350,201.715171L520.517035,199.332703L496.369620,194.833503L494.215714,193.625161L492.915639,192.245432L492.263318,190.771446L490.175219,184.721361L489.660244,182.561888L489.388701,180.376734L489.397903,175.719453L489.589322,173.735758L489.922280,172.330478L490.336425,171.516449L490.978204,171.045172L491.908911,170.916642L495.508946,171.790648L497.439431,171.944885L499.269821,171.533587L500.391208,170.316837L500.425954,169.040117L499.222333,167.870515L497.990505,167.180754L496.603316,166.606669L492.447804,164.173265L483.695177,167.669155L476.163835,168.431751L471.100514,167.947631L465.809730,166.409596L465.179789,166.152545L464.494126,165.775537L460.423454,162.331104L457.047073,160.698885L453.706785,160.309040L448.144352,160.574649L445.737097,161.212967L444.195930,162.288263L443.362180,164.790180L443.043135,165.518487L441.480180,166.375323L435.431074,167.844809L432.863722,168.741146L432.926156,168.980003L433.748914,170.715144L434.897986,172.030438L438.163215,173.632798L440.972416,175.950680L442.066805,176.434826L444.409116,178.277166L449.460594,187.052115L452.547860,190.651337L453.195868,191.174086L445.458353,202.734877L444.821942,204.037536L444.632576,205.091666L444.661895,206.154369L444.502572,207.251358L443.734700,208.425483L443.735265,208.434053L443.709125,208.451194L441.466453,211.665063L443.743535,213.520550L451.171549,214.681842L453.130181,214.394732L456.388881,213.147738L458.453143,213.426276L460.159349,214.471866L461.893424,216.138817L464.721097,219.884126L465.932125,222.292453L466.442215,224.417960L466.494596,226.432057L466.341655,228.437589L466.038116,228.797557L464.687394,232.084414L464.635993,232.542947L462.664458,234.917034L462.302171,234.805615L462.661027,238.568164L462.941456,238.473886L462.807209,238.713867L461.729327,241.400794L461.430325,241.833616L461.621615,244.721956L461.798953,245.750445L462.159527,246.658943L462.639048,247.507446L463.047149,248.514506L463.179487,249.894393L459.661309,253.699786L458.790794,254.376870L457.373833,254.432580L456.525996,254.004045L455.744897,253.344102L454.436489,252.765580L453.059175,252.799863L451.999687,253.305534L450.901294,253.635506L449.420473,253.134120L442.674079,248.977325L436.268948,243.324925L435.099561,242.562129L433.832493,242.185017L431.778587,241.885041L428.370054,239.648078L427.407804,235.555553L428.768280,231.711589L432.272355,230.194577L429.511864,228.043339L425.961767,226.123514L423.747299,223.963718L424.923131,221.066861L422.674649,221.315407L415.161874,219.695574L410.455488,219.695574L405.810900,220.655475L403.369589,221.726795L398.972861,225.229335L402.701941,230.241850L405.560254,232.354525L410.387606,235.045729L411.669580,236.194206L412.171938,236.999854L412.078280,237.771220L411.587680,239.056830L411.798251,240.419578L412.454819,242.347995L415.371562,247.884692L415.746174,248.930320L415.502139,249.594551L414.945658,250.815878L414.129646,252.144338L411.728012,254.946954L410.473594,256.901066L407.996762,262.069151L407.151657,263.277602L406.153120,264.331781L405.060465,265.197405L403.748802,265.951611L402.265705,266.482983L395.797510,267.065776L394.505337,267.378599L393.546563,267.777127L392.842281,268.634174L391.973837,270.138287L390.957190,273.193632L389.751333,274.989116L388.218029,276.364648L386.584987,277.135971L384.092373,277.937288L379.812335,278.472927L377.817079,278.378655L376.003347,277.907293L372.935069,276.501772L371.359680,276.231808L369.446695,276.467491L364.955835,278.892867L350.432304,283.400755L346.362907,283.272204L344.531460,283.623576L340.958634,285.243310L341.450555,288.594154L340.002006,295.120013L339.822729,297.566621L340.021177,300.600199L340.446023,302.408325L341.228342,304.130740L342.092665,305.176178L344.382389,306.701476L345.443575,307.605509L346.672224,309.906271L347.232301,311.568625L347.980841,317.776583L347.915465,318.500613L347.907720,318.586379L354.134220,317.527965L357.312460,318.444785L357.401865,320.546154L360.954237,318.877622L372.472505,314.267770L379.939198,307.755467L382.123133,306.889996L384.810192,306.521526L387.980385,306.547233L392.540900,305.827430L396.075607,305.883130L399.991645,306.992824L403.538986,307.245611L406.116348,307.742613L408.470950,308.826588L413.895137,313.081009L415.567835,312.151302L416.014507,311.748570L416.430260,311.183029L416.565610,310.728882L416.632802,310.171906L416.790581,309.747747L417.172577,309.297879L417.771356,309.027958L418.988527,309.117932L420.732973,309.747747L426.160484,312.631152L432.389937,315.193180L440.640812,316.915454L444.924153,317.301035L451.446709,319.061841L462.398979,324.892472L464.665055,325.929192L467.189796,326.520375L471.185975,326.884508L481.105470,326.400425L486.205941,325.440821L492.985865,322.553396L495.910462,320.505599L499.040978,317.755162L501.045764,317.326740L503.501867,317.198213L508.795962,318.552023L521.196316,321.302445L524.083832,321.473808L537.555467,323.924288L543.465524,324.326985L546.917583,325.235190L551.752271,327.325751L563.663174,334.873745L567.836555,339.251526L572.527357,333.674323L577.618827,324.639717L578.897296,321.465240L579.451732,319.597361L578.952716,316.272817L579.032975,314.186368L580.038083,312.699702L583.713573,309.469257L586.092232,306.692907L586.259950,304.987657L585.147326,303.565173L581.016958,301.161491L576.303324,296.375456L575.149421,294.841500L574.390448,293.084721L573.943957,291.687856L573.158710,290.141010L569.974746,286.267422L567.553457,282.535178L565.741817,281.558186L563.769319,282.098103L561.877105,283.203643L558.181889,283.555016L556.042271,284.352029L554.276458,285.611819L552.487424,286.143158L550.486618,285.688949L548.134211,284.300609L543.734121,280.975418L539.846841,274.856276L535.155811,263.688989L533.479462,257.792414L533.576015,256.515387L534.307885,253.455655L535.203729,250.995864Z " data-name="AT-" data-state-code="at"/><path d="M396.075607,305.883130L392.540900,305.827430L387.980385,306.547233L384.810192,306.521526L382.123133,306.889996L379.939198,307.755467L372.472505,314.267770L360.954237,318.877622L357.401865,320.546154L357.498329,322.814590L354.877062,326.083280L347.083514,329.913065L345.862724,332.817452L346.839589,334.462383L347.530190,336.355737L348.571275,340.180899L349.546960,342.027037L350.560625,343.594730L350.639159,345.111001L348.793169,346.764310L350.221076,347.252588L353.375791,347.732297L354.895219,348.370479L356.483677,349.689658L357.273799,350.730428L358.131853,351.535624L359.976717,352.109536L365.567270,352.276570L367.741030,353.514322L369.183900,357.137546L369.350207,359.176081L369.053510,360.375198L368.630174,361.522909L368.391212,363.441438L368.495043,365.582602L368.879332,366.704551L369.673760,367.355446L370.996903,368.126236L373.824491,369.042611L376.602164,369.368049L378.886273,370.588434L380.276167,374.215223L383.115612,379.533072L387.929112,383.018161L393.441168,384.910488L396.659465,385.391563L396.659483,385.391566L400.716009,385.997912L404.970509,388.395324L407.223986,389.302896L409.183833,389.465572L416.858969,388.592251L423.457967,389.165904L423.699491,389.257584L423.715330,389.217410L424.218269,387.941668L428.162385,380.526515L428.999059,378.137412L429.470497,376.159282L429.720301,373.286195L432.463016,372.074415L444.213531,370.550029L449.441913,368.537455L450.974311,368.366170L452.402364,368.811511L457.338806,371.851754L458.419561,372.014468L458.886851,371.920265L459.275783,371.569144L459.494516,371.132382L459.595294,370.781258L459.641060,370.216031L458.775396,368.922845L450.192677,359.424605L443.738381,353.848518L442.235015,352.216743L441.161296,349.587000L440.710677,347.372650L439.927243,345.098285L438.767327,343.363567L437.016296,341.813004L435.605380,340.969179L432.796118,338.831747L431.545534,336.955569L430.150097,335.490586L429.154317,334.059853L428.620068,332.453471L428.467213,331.669548L428.442312,330.958444L428.551673,329.776117L428.822101,328.542372L430.250578,325.072399L430.304059,323.341661L429.104168,322.035024L417.468604,318.783369L415.645594,317.570941L414.487663,316.264248L413.895137,313.081009L408.470950,308.826588L406.116348,307.742613L403.538986,307.245611L399.991645,306.992824L396.075607,305.883130Z M354.355485,218.080031L353.518341,216.250233L353.882583,215.093222L354.666106,214.099053L355.047862,212.787781L355.278140,211.018001L355.639800,210.259527L355.316004,210.315234L353.437932,211.030857L352.330399,211.639352L349.292736,213.884792L347.250797,214.604708L347.594153,215.958838L348.074020,216.875878L349.110201,217.964330L350.244379,218.872804L350.936552,219.254192L351.361719,220.166954L351.855872,224.597943L351.815959,226.149226L351.404212,227.207700L347.892638,231.313052L346.853173,231.497322L316.445593,230.374561L305.479853,232.294397L304.037659,233.048618L302.883554,235.868384L301.541734,236.254067L294.024509,234.955602L283.266222,234.917034L277.448151,233.939972L275.000887,233.871407L274.578850,234.351367L271.053762,237.068286L270.256344,238.825287L269.444823,242.664978L268.866014,244.199141L266.596130,246.470387L263.785145,247.438880L257.636179,248.313094L254.598448,247.507446L251.326333,247.130333L248.356767,247.730285L242.481336,253.828346L244.128610,254.205456L245.609206,255.006815L246.185974,256.240992L245.147143,257.886557L243.047456,258.670771L237.315980,258.786474L234.895101,259.454983L232.455934,261.477647L230.821573,263.483162L229.034119,265.205842L226.214586,266.328580L223.026502,266.020041L223.057284,261.511929L220.172971,260.526310L216.883076,261.301950L208.534136,266.392858L205.988988,267.065642L192.189868,266.894233L190.293955,265.977189L188.816382,263.731708L189.129721,263.714567L189.510961,262.951787L189.747763,261.803329L189.644852,260.689152L189.206708,259.934938L182.272676,253.884056L175.322291,251.201427L174.348353,249.885822L178.472827,247.413168L179.515904,246.273260L176.377112,244.331988L174.933311,243.654899L173.097727,243.547765L171.252102,244.002014L166.040589,246.076133L162.157117,246.478958L161.007766,246.187553L160.309233,245.399045L159.825468,244.541971L159.264392,244.019156L141.525228,238.413891L138.328918,238.379608L136.557908,239.463807L134.052452,242.639266L132.434555,243.787745L130.890336,244.019156L125.225862,243.290643L123.121220,242.484993L122.007940,241.833616L121.271072,241.070820L120.963344,239.648078L121.398756,238.593877L121.997964,237.796798L122.127106,237.145423L121.457790,235.598406L120.977271,235.289860L119.985177,235.628404L117.791832,235.966948L115.847747,236.631179L116.114712,238.062491L117.358461,239.892344L118.330642,241.747909L118.248153,243.282072L117.260110,249.894393L119.163177,250.755750L120.353593,251.827088L121.141339,253.288393L121.796587,255.341071L122.012484,258.897893L121.007582,262.626105L119.258219,265.981474L117.189279,268.471201L116.089202,269.122556L113.344471,269.949604L112.018836,270.733797L111.280697,271.775101L108.605343,276.810168L106.368761,279.535497L103.889458,281.549482L98.129175,284.647561L95.293009,285.603116L86.816488,286.492002L89.245206,291.259368L91.208433,298.706360L91.395248,300.343118L91.365841,304.961949L89.606221,309.079372L84.806170,315.737283L83.608572,318.834780L82.404642,325.449389L82.290096,328.045444L82.536064,330.054565L83.064426,332.363513L83.216651,334.145527L83.013919,337.032673L82.275526,339.088755L80.915711,340.784993L79.354972,342.035738L77.741267,343.868994L77.380686,345.278180L77.771528,346.910071L80.987321,351.133160L83.653611,356.538101L83.800023,356.992068L83.822230,357.060925L84.723696,357.090436L88.109613,356.255308L93.767730,353.732748L95.038724,352.041010L95.330382,350.773257L95.368653,349.376997L95.891875,347.278287L97.757887,344.370001L99.892259,344.027341L102.498866,344.605580L105.795393,344.472800L105.704139,341.375966L107.823650,337.572264L110.997098,334.291037L114.748975,332.401932L115.468641,332.277704L116.214942,332.401932L116.933987,332.791750L116.947688,332.791750L116.949027,332.817452L118.384796,334.076854L121.351668,337.889244L126.020788,340.956195L127.262741,342.164104L128.122091,344.961088L126.772043,350.593372L127.272479,354.131051L131.735071,357.124698L137.261671,357.647184L150.586735,354.465111L152.919631,354.242404L154.987389,354.704948L165.414149,359.912684L166.793337,361.587146L166.210340,362.734842L163.371251,364.786096L162.797773,365.604014L163.671183,367.055693L165.100210,367.098515L167.858073,366.340562L169.418237,366.781631L173.332182,368.640092L174.637835,368.682913L177.128864,368.066286L178.487980,368.083415L179.710302,368.614399L182.064351,370.280128L183.448921,370.763997L184.761434,370.678356L189.123113,369.393742L191.385632,369.119688L196.030489,369.509358L198.316008,370.155949L200.196925,369.929000L201.957049,368.254700L204.693308,363.886805L205.217415,363.441438L206.653647,362.871879L207.200160,362.336576L207.387420,361.505780L207.141400,359.784207L207.216081,359.150386L209.429092,354.041112L210.504271,348.212004L211.487714,346.173234L219.660206,338.865881L221.962830,337.649367L231.000100,335.096360L240.214700,333.768431L244.991907,334.650863L249.214451,336.372871L253.280498,336.548497L257.574487,332.817452L257.587204,332.800317L258.526957,331.510915L259.661060,330.744121L260.974891,330.482810L263.331250,330.958310L264.219306,331.390970L265.022366,332.012113L265.767592,332.817452L266.911022,333.400034L268.127622,333.588516L269.363032,333.391467L270.576588,332.817452L270.590289,332.817452L270.616698,332.800317L270.630399,332.800317L274.424359,331.836480L277.560727,331.583739L284.453039,332.774615L284.521543,332.774615L284.688457,332.817452L285.693129,332.894559L286.686273,332.774615L289.220283,332.997368L293.668814,335.721766L296.196339,336.527079L297.713131,336.222946L300.209175,334.402412L301.627669,333.597084L307.593726,332.774615L311.984723,329.664604L317.459484,327.060015L323.204651,325.329304L332.632283,324.943746L345.690968,318.963171L347.907720,318.586379L347.915465,318.500613L347.980841,317.776583L347.232301,311.568625L346.672224,309.906271L345.443575,307.605509L344.382389,306.701476L342.092665,305.176178L341.228342,304.130740L340.446023,302.408325L340.021177,300.600199L339.822729,297.566621L340.002006,295.120013L341.450555,288.594154L340.958634,285.243310L344.531460,283.623576L346.362907,283.272204L350.432304,283.400755L364.955835,278.892867L369.446695,276.467491L371.359680,276.231808L372.935069,276.501772L376.003347,277.907293L377.817079,278.378655L379.812335,278.472927L384.092373,277.937288L386.584987,277.135971L388.218029,276.364648L389.751333,274.989116L390.957190,273.193632L391.973837,270.138287L392.842281,268.634174L393.546563,267.777127L394.505337,267.378599L395.797510,267.065776L402.265705,266.482983L403.748802,265.951611L405.060465,265.197405L406.153120,264.331781L407.151657,263.277602L407.996762,262.069151L410.473594,256.901066L411.728012,254.946954L414.129646,252.144338L414.945658,250.815878L415.502139,249.594551L415.746174,248.930320L415.371562,247.884692L412.454819,242.347995L411.798251,240.419578L411.587680,239.056830L412.078280,237.771220L412.171938,236.999854L411.669580,236.194206L410.387606,235.045729L405.560254,232.354525L402.701941,230.241850L398.972861,225.229335L397.774855,226.183508L395.764012,226.959151L393.009850,227.421966L390.290520,227.361972L388.385352,226.586328L384.285187,223.903724L383.152153,222.819543L382.342863,221.461107L380.740738,217.925762L380.066297,216.970153L377.874694,216.610193L372.798067,218.298579L370.580400,218.607118L362.868423,217.227267L360.012312,217.578657L357.147663,218.885659L355.726839,219.069925L354.355485,218.080031Z " data-name="AT-" data-state-code="at"/><path d="M700.101255,0.000000L700.139147,0.475071L700.332430,1.372500L698.824957,4.859827L699.145598,9.569866L700.089096,14.630931L700.438825,19.205177L698.484918,29.569407L697.702055,31.656203L697.576607,32.810820L697.916309,33.854275L698.588437,35.162901L699.255227,36.232065L699.563284,36.531435L698.288748,39.431137L695.650087,39.636432L688.695500,37.318358L681.794239,36.531435L679.866379,37.164394L679.217357,38.738273L678.846078,40.748460L677.683598,42.690289L677.266470,45.855539L670.763200,50.920328L668.543622,54.282856L668.415010,58.753705L668.873852,63.815385L668.541637,68.120083L667.985583,68.618049L668.326747,69.112995L670.854037,71.021570L679.228678,72.596402L683.640327,74.128480L688.003485,75.990133L692.806805,76.529381L695.041225,77.175628L696.993839,78.468142L698.417582,80.282842L698.756106,82.011991L698.687448,82.696815L698.301767,82.970746L695.295192,82.782418L694.813724,82.872302L694.587038,83.184756L694.510914,83.775427L694.613644,85.269248L694.459905,86.258013L694.560234,87.721927L695.281137,89.399901L698.566214,92.892958L701.880741,93.881834L703.029942,99.220284L705.606241,100.830030L706.393920,102.311370L708.561377,110.514918L708.776062,124.800327L708.981165,128.491963L706.849896,126.513365L705.169355,125.699668L703.689828,125.374191L697.214230,125.648277L694.890117,126.530495L693.054218,128.106519L691.319419,130.470605L689.594830,131.734045L671.050464,135.567295L668.251205,134.873444L665.883674,133.147404L661.963248,128.774624L660.120480,127.147197L658.070186,126.008015L655.749205,125.331365L649.816201,125.237148L648.137280,126.496234L647.351067,126.885955L646.442065,127.541203L646.102099,127.900949L645.881240,128.217869L645.704371,128.577618L645.531061,129.618328L645.253293,136.244019L645.015068,137.691709L644.443344,139.045189L644.269125,139.987497L645.211511,144.673461L645.485308,145.333110L645.867430,145.804291L646.126495,146.266907L646.153213,146.896581L645.515627,147.920346L644.095324,149.393898L643.956390,149.719452L643.866584,150.156383L643.950974,151.013114L643.829291,151.569992L642.187754,154.461519L641.634155,154.975576L641.038953,155.296862L640.036885,155.545324L639.930671,156.312133L642.503485,158.698267L664.754524,172.261928L671.875841,175.149620L676.111560,176.237874L679.060253,177.591776L681.955720,179.408420L683.472847,180.826617L684.487707,182.086294L684.661653,185.192678L682.528633,188.063452L681.213652,194.199337L681.381131,198.047208L681.301176,200.061153L679.379339,204.140511L684.201454,207.251492L697.934296,207.191500L698.697261,207.542880L700.009694,208.665585L704.211370,211.468078L706.983447,211.785182L710.286627,211.108124L713.417526,209.428341L718.566745,207.491459L721.186049,206.887257L723.164004,206.810125L725.399563,207.157219L726.673784,207.148649L730.665168,206.128793L737.209292,203.921973L742.213188,202.962119L743.567241,202.229376L744.756854,200.961006L745.375813,199.718353L748.694874,195.784755L754.208627,196.491769L755.092528,196.466059L763.042434,194.782084L765.716522,194.992044L767.900989,195.733336L773.790410,200.069723L785.039426,204.577589L790.380212,207.705715L799.336079,208.357055L802.239233,210.816732L803.962916,212.676500L805.910848,213.756370L808.523847,214.879095L810.060446,215.161920L811.349360,215.161920L812.419254,214.981940L814.159459,215.251909L815.147137,216.001824L815.869869,217.188834L817.039493,221.988331L817.661838,223.878146L818.840086,226.063653L820.146760,226.787872L821.553210,226.715022L825.813424,224.632359L827.491413,224.375241L828.554125,224.863766L829.283451,225.532274L830.186091,226.826440L830.435029,227.374962L830.735556,228.309163L830.864301,229.397638L830.818470,230.606104L830.351234,232.174541L830.247544,232.920192L830.661448,233.991530L831.540517,234.398639L832.558612,234.582910L835.752605,234.582910L839.392315,236.802727L841.209182,239.433943L843.134262,243.230781L854.041707,244.799227L857.408269,246.316248L858.717916,247.306167L859.792300,247.670423L860.738086,247.713277L861.997509,247.331880L864.988588,245.999130L865.641784,246.221969L866.132356,246.710501L866.583911,247.473297L867.073315,248.698911L867.291511,249.864529L867.515649,250.601611L868.482972,252.410030L870.079617,254.814109L874.904730,258.186664L882.524290,258.306653L885.841399,257.775273L889.022443,256.258267L891.054452,254.809823L897.445128,248.518926L897.532565,246.856204L897.445980,244.824939L896.545074,242.853669L895.939179,240.488144L896.047030,236.854152L896.646540,234.951451L897.749520,232.950189L898.500111,231.883137L902.248424,224.709495L897.933879,219.601432L893.095837,215.153349L890.826404,212.222270L889.612617,210.173958L888.829894,200.044013L893.330804,199.585518L894.794422,198.505701L896.284062,196.924549L896.936739,195.441961L897.286188,193.513754L897.012706,187.086527L898.741098,183.821577L900.645550,181.927762L906.674147,177.746018L910.379859,176.794858L914.975253,176.542073L924.442513,179.125639L929.400753,176.897685L931.772830,174.695469L936.095164,171.979159L937.809834,170.539621L938.966776,168.474594L940.466202,164.301788L943.515914,162.018367L946.225490,160.925938L947.734837,160.673181L949.303834,160.874530L954.670589,158.646860L959.718621,155.348268L962.654683,154.140235L965.331745,153.866073L967.461239,154.645722L971.715141,157.310277L973.883894,158.222750L975.404525,157.404523L976.208420,155.862328L976.273496,154.508641L975.753404,153.232076L975.569630,152.066901L975.864196,149.608078L977.462991,148.061703L978.392696,147.727586L979.838647,148.314433L981.018224,148.965538L982.593224,149.239688L983.712604,148.974105L984.595418,148.571448L986.101001,147.132175L986.101349,147.131842L983.861548,144.103633L982.408149,143.354040L980.275837,143.079904L978.384763,142.146136L974.796767,139.079321L973.631486,136.496587L973.301934,132.903143L972.412847,129.905140L969.836607,123.952252L969.712523,123.159990L969.722189,121.262875L969.536539,120.543438L968.996815,119.969606L968.160766,119.734078L966.608850,118.620686L965.372443,118.158205L964.319149,117.614364L963.798533,116.638028L963.569238,115.884374L963.064492,114.933751L962.543132,114.103035L962.159046,113.751911L961.558358,113.409351L961.729116,112.570088L962.160987,111.610940L962.395054,110.874459L961.681745,109.559943L960.225960,108.296829L958.756262,107.337733L957.976902,106.969512L955.307809,106.734022L954.243738,106.215948L953.748774,105.218344L953.670560,103.398713L953.835259,102.645184L954.117924,102.152826L954.365633,101.108181L954.755249,92.263548L955.089651,89.896318L956.223070,87.666146L959.289629,83.514199L959.786638,81.309920L960.625201,79.747709L962.665769,78.279694L964.653344,76.370896L964.860591,75.524427L965.369932,73.443614L963.460617,65.698118L958.540288,61.290908L955.749207,50.329982L952.321972,46.685379L950.155515,46.548497L945.248027,48.045660L942.750494,48.302321L940.272031,47.549453L935.297857,44.923054L933.242175,44.349883L928.271666,44.520978L926.158214,44.213007L924.348939,43.203560L923.228487,41.244603L922.531798,38.866580L921.327209,36.873574L918.747261,36.026783L916.302014,35.787290L908.308080,33.888487L905.969012,32.691081L904.733947,32.348970L903.540727,32.485814L901.244091,33.323992L899.894390,33.375309L896.076066,32.913454L893.911076,34.179290L888.084804,43.691172L886.745564,44.811841L884.729809,45.316578L883.981236,45.119815L882.145336,43.939257L879.451738,44.281445L879.312284,44.392657L860.788681,42.125697L848.729630,42.733062L841.567299,40.218105L827.713644,32.212126L827.454898,31.391072L827.358330,30.245040L826.607981,29.535198L824.427787,30.014126L824.145539,28.269481L823.108121,27.525459L821.628103,27.474148L820.003711,27.799121L821.219624,26.319656L820.128086,26.379518L819.122456,26.011796L817.614202,25.139537L815.096897,24.985610L814.176911,24.669208L813.456156,23.822627L812.757587,21.787473L811.959457,21.308626L807.953767,21.317177L806.836122,21.548049L802.351193,23.600295L800.193203,24.181780L797.174513,24.181780L794.188739,23.600295L783.627560,18.820410L775.623616,16.296155L775.622432,16.295782L772.539636,15.323451L765.687899,10.655554L762.763615,9.313409L756.812626,7.680662L750.304439,5.013686L747.326292,4.321324L741.194224,4.261491L740.514402,3.885399L739.906661,3.064844L739.188341,2.381061L738.188203,2.389608L737.715588,3.064844L737.571425,5.287215L737.209333,6.159098L735.543614,7.971303L734.896305,8.330334L725.093079,10.570066L722.492022,10.527322L723.167948,8.167915L723.040974,5.919756L722.305262,3.671711L721.156955,1.338312L710.917731,0.646008L708.602945,0.000000L700.101255,0.000000Z M906.865213,117.537418L907.291331,117.991332L907.388836,117.939945L907.691865,117.194843L908.443605,115.978714L910.899796,115.627581L912.364690,116.706677L913.174213,118.064130L914.649048,119.335959L915.181572,120.552136L915.853622,122.680488L916.924249,123.515570L917.323062,124.123686L917.521479,124.534809L917.464433,125.057281L916.763615,128.530508L916.539384,133.048897L917.619726,135.421672L920.892108,140.441521L911.659660,139.028057L905.514463,139.285049L903.596293,139.756202L902.602565,140.544319L902.241906,141.101144L901.887757,141.974937L901.266560,142.587453L899.968391,143.397007L897.017198,143.319907L895.730522,143.062905L893.287830,142.163403L891.402007,141.092577L887.930109,141.126843L884.447850,141.683671L876.374046,141.092577L874.754661,140.351572L874.155894,139.293615L873.258463,138.565473L872.060535,136.929313L872.784933,132.196596L872.354428,131.198687L871.692076,130.110849L870.615228,129.185768L869.408340,127.682532L869.322884,126.179320L869.646689,124.937369L869.945038,124.363508L870.709081,123.267186L871.612639,122.376435L874.909185,123.678305L876.668318,123.507005L878.307426,123.121582L879.335056,122.496343L880.766200,121.340092L881.399244,120.389408L889.828391,115.559068L894.314364,113.674969L896.517427,113.144003L897.513452,112.398944L897.870953,111.097249L901.975430,111.439798L902.798979,112.253359L906.865213,117.537418Z " data-name="AT-" data-state-code="at"/><path d="M906.865213,117.537418L902.798979,112.253359L901.975430,111.439798L897.870953,111.097249L897.513452,112.398944L896.517427,113.144003L894.314364,113.674969L889.828391,115.559068L881.399244,120.389408L880.766200,121.340092L879.335056,122.496343L878.307426,123.121582L876.668318,123.507005L874.909185,123.678305L871.612639,122.376435L870.709081,123.267186L869.945038,124.363508L869.646689,124.937369L869.322884,126.179320L869.408340,127.682532L870.615228,129.185768L871.692076,130.110849L872.354428,131.198687L872.784933,132.196596L872.060535,136.929313L873.258463,138.565473L874.155894,139.293615L874.754661,140.351572L876.374046,141.092577L884.447850,141.683671L887.930109,141.126843L891.402007,141.092577L893.287830,142.163403L895.730522,143.062905L897.017198,143.319907L899.968391,143.397007L901.266560,142.587453L901.887757,141.974937L902.241906,141.101144L902.602565,140.544319L903.596293,139.756202L905.514463,139.285049L911.659660,139.028057L920.892108,140.441521L917.619726,135.421672L916.539384,133.048897L916.763615,128.530508L917.464433,125.057281L917.521479,124.534809L917.323062,124.123686L916.924249,123.515570L915.853622,122.680488L915.181572,120.552136L914.649048,119.335959L913.174213,118.064130L912.364690,116.706677L910.899796,115.627581L908.443605,115.978714L907.691865,117.194843L907.388836,117.939945L907.291331,117.991332L906.865213,117.537418Z " data-name="AT-" data-state-code="at"/></g><g class="" id="cities"><circle cx="30.7879157682" cy="245.971667295" data-name="Bregenz" data-state-code="at" r="8"/><circle cx="920.396352522" cy="193.463816644" data-name="Eisenstadt" data-state-code="at" r="8"/><circle cx="883.274503905" cy="196.335636613" data-name="Wiener Neustadt" data-state-code="at" r="8"/><circle cx="782.079952334" cy="318.764358411" data-name="Graz" data-state-code="at" r="8"/><circle cx="641.767225283" cy="394.57939319" data-name="Klagenfurt" data-state-code="at" r="8"/><circle cx="618.497700931" cy="112.902339775" data-name="Linz" data-state-code="at" r="8"/><circle cx="507.542727711" cy="71.8456237262" data-name="Passau" data-state-code="at" r="8"/><circle cx="460.034937365" cy="197.248330496" data-name="Salzburg" data-state-code="at" r="8"/><circle cx="250.173227346" cy="285.160020384" data-name="Innsbruck" data-state-code="at" r="8"/><circle cx="893.009902967" cy="132.339016479" data-name="Vienna" data-state-code="at" r="8"/></g></svg>