<?xml version="1.0" encoding="utf-8"?><!DOCTYPE svg  PUBLIC '-//W3C//DTD SVG 1.1//EN'  'http://www.w3.org/Graphics/SVG/1.1/DTD/svg11.dtd'><svg enable_background="new 0 0 1000 567" height="567px" pretty_print="False" style="stroke-linejoin: round; stroke:#000; fill: none;" version="1.1" viewBox="0 0 1000 567" width="1000px" xmlns="http://www.w3.org/2000/svg" xmlns:xlink="http://www.w3.org/1999/xlink"><defs><style type="text/css"><![CDATA[path { fill-rule: evenodd; }]]></style></defs><metadata><views><view h="567.89038831" padding="0" w="1000"><proj flip="auto" id="robinson" lon0="-78.3900337838"/><bbox h="427.43" w="754.0" x="-1651.19" y="-548.51"/></view></views></metadata><g class="" id="states"><path d="M703.616292,198.731030L705.272611,185.844601L701.255157,167.404862L695.651244,166.509320L689.422285,180.610378L695.664624,187.040671L698.774894,199.835746L703.616292,198.731030Z M707.554066,136.067058L707.959259,130.288841L695.535463,129.622163L686.300011,131.399992L686.233762,139.623121L707.554066,136.067058Z M723.179268,135.844810L709.861599,125.844503L709.460047,128.396388L716.494757,137.178312L714.297422,148.794846L717.347727,151.643625L723.179268,135.844810Z " data-name="bs"/><path d="M462.548231,373.485655L467.275533,365.795678L470.857906,365.088923L475.352949,359.198547L478.937076,347.980083L477.972644,345.856995L480.972137,337.913715L479.704924,334.479918L484.034570,324.877411L485.119394,318.839016L481.471660,318.736915L481.815134,315.480021L478.107030,315.771981L469.484109,329.172688L466.307836,326.546068L463.838640,327.568261L463.576869,330.835060L461.242314,348.434991L456.759218,373.493112L462.548231,373.485655Z " data-name="bz"/><path d="M555.275657,483.345762L550.288925,488.050449L544.630654,486.571702L541.708397,482.003533L535.651641,480.151372L530.966647,483.045195L518.530374,477.166346L515.389077,480.022885L510.619093,484.311135L515.912843,487.440136L512.860750,494.432928L512.309786,501.191705L514.694733,505.665470L520.831298,507.858946L524.921169,514.019508L529.137166,508.714770L528.282164,502.260905L533.155614,506.227032L534.045067,512.720855L540.599234,515.566534L548.032546,519.929992L553.149390,525.245081L553.590859,530.150048L551.134274,534.004161L554.857904,538.664209L565.213331,543.590422L566.464932,539.183905L568.328030,534.682174L567.780617,530.664579L570.842277,528.035135L566.959254,524.735713L567.350043,515.800567L575.015836,513.817597L566.411994,504.341584L559.423060,495.407481L555.275657,483.345762Z " data-name="cr"/><path d="M659.649136,220.809301L642.641705,213.246556L627.625134,212.995885L611.296632,211.412108L606.323625,213.851145L591.529431,215.975769L581.154219,220.302847L571.819385,225.238793L566.592259,233.247284L555.555355,240.103758L563.494937,242.207781L573.312889,239.780898L576.773031,234.365584L584.764538,234.055902L600.069525,222.521934L618.724468,223.658127L610.808074,229.204113L616.944584,233.533455L641.521341,236.973195L646.701107,241.628589L663.880272,247.579853L674.840486,246.715673L677.889283,259.354776L683.782963,265.761175L696.012451,267.244657L703.192012,273.009486L688.862542,285.391081L716.692705,283.229020L729.768231,284.985047L742.857958,283.882796L755.977365,281.065483L758.833334,275.866434L745.293363,266.783040L731.214447,265.868981L733.323375,259.620848L722.375662,255.094748L716.012636,255.399814L705.220818,245.389865L690.621752,231.643796L684.475415,226.428291L666.247071,228.935711L659.649136,220.809301Z " data-name="cu"/><path d="M801.169735,325.580666L801.499385,331.961669L806.122079,335.491812L815.396515,320.289663L822.108105,317.102726L824.500792,322.488307L832.055629,321.120247L835.946336,317.071178L842.193163,318.127750L851.152070,317.196796L859.860964,322.025403L867.925895,312.988913L859.252752,304.844698L850.748880,304.042856L852.041742,297.427514L841.445513,297.870288L838.754983,289.996323L833.617782,290.553779L822.798364,284.840526L807.770507,284.737871L804.960384,288.521253L805.372152,300.610120L803.004102,309.143613L797.907356,312.884520L802.186467,319.549712L801.169735,325.580666Z " data-name="do"/><path d="M463.576869,330.835060L445.728304,330.590694L427.675129,330.629127L426.068314,343.126997L417.322017,343.182067L423.598508,350.590787L430.128868,355.719292L431.694982,360.530592L434.671389,361.877553L433.278402,369.438449L408.390047,369.504995L396.956606,387.602324L399.250118,391.751000L396.426696,396.956789L395.257082,403.423474L404.762483,412.583868L413.211473,416.988199L425.299591,417.389165L434.899657,421.261717L435.814945,418.006389L443.028468,412.406042L446.921477,409.950892L446.152260,407.336262L450.837764,405.969858L455.452356,400.333265L454.360378,395.975852L456.181107,391.710271L466.055827,385.497572L475.831519,377.028031L470.461622,374.193557L468.416818,377.501877L462.548231,373.485655L456.759218,373.493112L461.242314,348.434991L463.576869,330.835060Z " data-name="gt"/><path d="M572.649649,393.277404L568.156513,387.170359L561.450792,383.769709L556.364450,378.792619L550.888567,374.642736L547.863549,374.152827L539.343081,371.073394L535.279218,372.999761L530.150716,373.519501L525.676260,372.011910L519.625848,370.862859L517.076681,373.348549L510.567556,375.804406L501.539072,376.384380L492.752158,374.381145L489.620314,375.483728L488.023974,373.673817L482.439903,373.992200L477.749326,377.895410L475.831519,377.028031L466.055827,385.497572L456.181107,391.710271L454.360378,395.975852L455.452356,400.333265L450.837764,405.969858L456.377706,407.837047L460.124407,412.266649L465.644796,415.826601L466.081733,418.816350L474.863224,416.171352L478.713655,417.754566L481.131038,420.158062L478.956291,429.050930L484.691077,430.981157L487.440461,437.926499L493.570479,437.013879L496.451844,431.943114L499.324411,431.745789L499.899863,420.828630L504.506150,420.303763L508.547169,420.462083L513.297615,414.538229L518.613162,419.025724L520.864179,416.272311L524.693453,413.631893L532.058690,407.518678L532.824809,402.949073L534.670213,403.141243L537.685558,397.836189L539.778653,397.190263L542.753191,400.582226L546.544489,401.585527L551.113671,398.762627L556.021340,398.747712L563.048463,395.847354L566.040166,392.823731L572.649649,393.277404Z " data-name="hn"/><path d="M804.960384,288.521253L788.620117,285.035514L776.971754,284.054843L771.968150,290.183862L783.756769,293.645633L782.704882,302.124301L790.502168,311.740789L783.031271,316.682852L768.647206,314.901264L751.207024,311.818796L748.735932,318.974960L758.348880,325.891568L767.826683,321.742040L779.446902,323.347005L788.725151,321.807431L801.169735,325.580666L802.186467,319.549712L797.907356,312.884520L803.004102,309.143613L805.372152,300.610120L804.960384,288.521253Z " data-name="ht"/><path d="M700.361440,329.504817L713.993674,329.091233L711.452352,323.012015L701.776695,317.680341L689.001752,315.689956L684.687564,314.941989L676.395648,316.488976L673.506336,321.563073L683.653955,329.652239L694.084254,333.215055L700.361440,329.504817Z " data-name="jm"/><path d="M47.250538,0.000000L22.701990,2.403371L0.882005,4.110512L1.453014,24.017231L4.174419,41.684450L6.459262,56.181231L9.114560,70.002613L18.338977,76.136976L28.301989,91.955472L24.816489,101.967186L15.544791,110.260917L8.077266,109.001389L6.245262,110.677524L14.043255,123.576068L24.393781,128.954076L27.751407,134.745587L30.965113,131.884782L41.630117,141.802170L49.085332,148.691397L49.253329,160.735128L45.134075,176.994356L53.741520,182.636636L65.388756,193.374458L75.504125,206.031228L78.097648,219.526812L81.474286,219.633495L91.003179,211.479223L92.193853,207.503271L87.102044,197.588929L81.385744,187.498266L72.315824,186.764263L73.639616,175.048360L70.539222,164.635820L67.021091,154.901773L65.515820,134.226475L56.365946,122.917577L54.332810,115.051175L50.052309,109.400758L50.119123,95.082382L46.671637,95.390864L46.308919,87.770053L43.884676,86.186646L42.270717,80.966077L32.805670,65.704957L29.165671,56.581889L32.651690,39.979162L33.063215,29.372849L39.105817,20.395494L47.727058,26.486709L54.303296,25.523632L64.953851,34.291229L61.923216,42.780412L63.284826,59.713921L68.448400,76.416980L67.283234,83.342926L73.129141,94.133466L80.980273,105.825058L90.697404,107.631768L91.489841,123.131140L100.083363,133.929595L108.557759,139.113394L102.536755,152.850430L104.847928,158.279632L119.279718,167.353442L125.755779,181.204041L141.668932,198.552845L154.623914,220.621747L159.161013,231.823874L159.436477,240.656002L164.303906,250.621953L162.986400,258.296794L157.654673,264.053485L158.638478,270.382526L151.877564,272.549007L154.774406,283.364936L162.258516,297.362704L181.064599,309.961536L187.588985,320.090622L206.317680,327.117968L216.941359,328.442463L220.968766,334.371501L235.655994,344.982752L256.161929,355.304535L270.268194,358.415498L287.056133,368.600325L301.052263,372.824219L314.025385,378.675592L324.068298,376.487066L340.667933,368.133935L351.694254,366.520790L366.813614,372.311363L375.956540,379.521171L395.257082,403.423474L396.426696,396.956789L399.250118,391.751000L396.956606,387.602324L408.390047,369.504995L433.278402,369.438449L434.671389,361.877553L431.694982,360.530592L430.128868,355.719292L423.598508,350.590787L417.322017,343.182067L426.068314,343.126997L427.675129,330.629127L445.728304,330.590694L463.576869,330.835060L463.838640,327.568261L466.307836,326.546068L469.484109,329.172688L478.107030,315.771981L481.815134,315.480021L485.905235,315.110052L490.078138,320.811646L497.120114,303.489370L501.241911,293.893970L498.187940,290.028440L504.516940,276.515016L516.569438,263.321783L518.620018,252.632422L514.633206,247.926786L502.730200,249.806524L485.822154,249.033527L464.805433,254.181268L450.996603,259.993006L446.793978,266.480838L442.709248,285.126126L436.386280,298.073322L422.908545,307.130940L410.251297,310.938345L395.260582,314.928223L380.233242,317.170411L362.452584,323.374539L355.734093,314.087337L336.052120,308.197786L330.041178,297.268644L327.341794,284.604247L316.936522,268.080731L315.617371,250.867958L311.281802,240.044691L309.813182,227.936650L313.367780,217.095991L319.728561,187.347334L325.941379,171.357012L337.069721,151.847720L329.510856,152.514455L316.972615,147.624614L303.551190,140.734417L300.457453,130.288841L299.753714,114.736057L291.540904,102.078243L288.183432,89.071282L282.599705,73.893820L271.669509,65.065839L256.149641,65.493130L239.589329,82.997216L225.682502,76.347047L217.750348,69.657127L216.473299,57.487797L213.588070,45.938308L205.342305,36.217110L197.900077,29.229934L193.526767,21.390901L161.105169,21.383521L158.162732,30.506013L143.296494,30.512202L105.972461,30.671791L68.440337,15.095464L43.968246,4.333373L47.250538,0.000000Z " data-name="mx"/><path d="M572.649649,393.277404L566.040166,392.823731L563.048463,395.847354L556.021340,398.747712L551.113671,398.762627L546.544489,401.585527L542.753191,400.582226L539.778653,397.190263L537.685558,397.836189L534.670213,403.141243L532.824809,402.949073L532.058690,407.518678L524.693453,413.631893L520.864179,416.272311L518.613162,419.025724L513.297615,414.538229L508.547169,420.462083L504.506150,420.303763L499.899863,420.828630L499.324411,431.745789L496.451844,431.943114L493.570479,437.013879L487.440461,437.926499L485.830634,439.495332L482.908288,436.153457L480.448281,439.586536L489.355869,449.613250L497.001914,456.590608L500.707247,464.073858L509.146149,473.030098L515.389077,480.022885L518.530374,477.166346L530.966647,483.045195L535.651641,480.151372L541.708397,482.003533L544.630654,486.571702L550.288925,488.050449L555.275657,483.345762L552.535100,479.698800L552.048354,473.698919L556.445506,468.021971L555.538175,462.159167L558.085110,452.663697L561.231457,450.482841L561.543640,440.488256L560.974311,434.765881L562.444854,424.983386L565.329757,416.050317L570.504787,408.488123L569.295359,400.364242L570.768622,395.407940L572.649649,393.277404Z " data-name="ni"/><path d="M604.826624,565.890388L613.976035,564.757491L616.946936,561.467787L622.412078,558.631243L613.644689,546.581258L615.784793,541.961352L620.087205,541.186397L628.257584,535.609709L632.612681,527.887143L641.234882,526.472613L650.653026,532.643548L653.939635,539.978936L658.818733,541.500165L653.709723,547.430785L657.357994,559.414232L663.602986,565.818686L666.576217,555.027774L672.808268,556.621285L676.788660,550.022960L672.862700,536.946805L675.392613,533.700719L668.349742,527.565919L662.319623,520.886203L653.834080,517.051612L642.986376,516.294446L643.834050,514.110712L633.125333,512.808044L626.093742,519.442423L613.989369,523.920036L605.381108,529.527103L595.684304,531.131501L590.604220,525.676438L588.662650,527.482172L580.920973,526.484085L581.578121,521.780463L575.015836,513.817597L567.350043,515.800567L566.959254,524.735713L570.842277,528.035135L567.780617,530.664579L568.328030,534.682174L566.464932,539.183905L565.213331,543.590422L567.291068,546.947226L568.134786,542.128848L576.524552,542.095578L581.467537,544.692339L589.412371,546.167107L592.932099,555.099476L599.320656,556.402736L602.041278,552.628331L604.826624,565.890388Z " data-name="pa"/><path d="M919.767966,321.517185L916.701971,317.107315L907.017735,315.151925L891.229975,315.022292L888.177971,318.266561L888.389801,327.766161L899.756017,326.983167L914.292520,327.114526L919.767966,321.517185Z " data-name="pr"/><path d="M478.956291,429.050930L481.131038,420.158062L478.713655,417.754566L474.863224,416.171352L466.081733,418.816350L465.644796,415.826601L460.124407,412.266649L456.377706,407.837047L450.837764,405.969858L446.152260,407.336262L446.921477,409.950892L443.028468,412.406042L435.814945,418.006389L434.899657,421.261717L439.954008,426.028524L450.633955,427.406935L458.274207,431.820360L465.086354,433.946757L476.327693,434.278308L478.956291,429.050930Z " data-name="sv"/><path d="M997.558645,501.744161L999.117995,485.205307L995.059973,484.428315L983.701763,487.314285L983.670416,496.083202L977.726692,502.188158L981.149087,504.186148L997.558645,501.744161Z " data-name="tt"/></g></svg>