<?xml version="1.0" encoding="utf-8"?><!DOCTYPE svg  PUBLIC '-//W3C//DTD SVG 1.1//EN'  'http://www.w3.org/Graphics/SVG/1.1/DTD/svg11.dtd'><svg enable_background="new 0 0 1000 460" height="460px" pretty_print="False" style="stroke-linejoin: round; stroke:#000; fill: none;" version="1.1" viewBox="0 0 1000 460" width="1000px" xmlns="http://www.w3.org/2000/svg" xmlns:xlink="http://www.w3.org/1999/xlink"><defs><style type="text/css"><![CDATA[path { fill-rule: evenodd; }]]></style></defs><metadata><views><view h="460.147073678" padding="0" w="1000"><proj flip="auto" id="robinson" lon0="13.8064989626"/><bbox h="40.43" w="88.07" x="154.9" y="-852.05"/></view></views></metadata><g class="" id="states"><path d="M128.376689,115.800332L133.490732,119.090305L136.051309,120.232272L145.606662,121.125666L151.467991,126.278378L155.139842,126.886899L159.575243,127.068851L163.738245,127.924043L167.870238,130.977062L169.297986,136.564317L169.326076,140.554722L170.342721,150.946936L170.903327,152.432134L175.507861,158.153092L176.626034,160.170979L176.091832,163.273984L174.149980,165.506819L178.543946,169.920368L180.332010,171.177747L181.775893,172.406832L185.853452,175.549645L192.497598,176.888280L194.513939,176.902457L197.472927,175.102097L198.851094,173.340325L204.246913,171.463246L210.664862,166.055439L211.856463,163.326615L216.001305,159.284467L224.296009,156.414626L234.241847,150.756739L239.034003,151.489206L241.548177,150.936819L254.954222,145.075692L259.512886,146.303658L264.484529,142.609804L272.757431,138.224727L278.373060,137.415746L279.389679,135.029382L279.976565,130.473595L282.799891,129.711334L288.857117,129.549584L298.900482,131.413812L310.227955,129.826582L316.837393,130.700053L319.805690,128.575057L322.076308,127.667281L330.935813,126.830292L333.589064,122.019087L330.960809,113.215443L332.733637,112.294005L336.261919,113.225547L344.319110,108.416605L346.141014,100.701738L347.083719,100.140222L345.615357,95.923144L334.710965,89.031315L324.863062,68.363577L325.832564,65.264677L327.786308,64.231783L334.084297,54.156921L333.847896,52.216975L335.088183,49.773066L336.807956,48.397953L337.810643,40.827914L340.118808,40.114354L348.202162,46.399919L350.632218,46.420080L353.156040,43.710549L353.548733,39.495546L354.710575,37.560596L359.053346,37.256256L360.909046,34.271496L361.142310,30.991844L363.207472,26.376302L363.839926,23.940875L362.887280,21.865709L361.135061,21.837283L353.357084,24.499963L351.608675,23.448129L354.663459,16.370535L354.101554,11.823576L349.109055,7.561433L345.141876,6.775371L341.778194,4.270529L339.819610,0.516029L338.776541,3.048963L337.189681,3.730761L331.924250,3.494024L327.993677,4.928681L324.766148,4.218446L321.737794,1.406082L316.241576,0.000000L311.687379,0.582309L308.453485,3.404064L306.855568,8.679002L305.394674,10.544868L307.157189,11.435222L312.087880,11.946713L313.687211,13.935931L313.711260,15.858967L317.646203,18.786391L323.089041,20.046504L327.095776,21.837283L326.606495,26.404732L322.596928,29.295288L311.183019,28.574992L306.048416,29.446931L302.192646,33.892327L300.535239,35.219440L278.639830,43.534216L275.867858,43.685933L270.524836,43.135963L262.805207,47.687742L258.337025,47.602390L256.637337,50.703683L257.389493,54.516730L256.491487,55.655049L250.762910,58.017202L248.190594,58.444117L241.493550,57.846438L238.383468,58.102584L233.000460,59.743876L230.241908,60.189791L217.221172,60.132865L210.722791,61.129083L205.013738,64.013560L206.909175,66.831892L206.530912,69.308832L204.752971,71.320907L202.453510,72.792088L203.405873,74.263342L196.520781,81.231449L193.863754,81.772638L190.527914,80.490890L186.411968,76.047930L184.603656,75.525832L183.365430,77.177593L178.160669,80.291511L176.177108,85.181414L173.228097,86.434880L168.294847,84.241350L165.460516,84.032451L161.413617,94.450743L159.556709,97.500009L156.147391,99.656538L148.469720,99.295522L141.757887,100.834621L137.927339,99.751543L134.363716,100.454589L133.970173,107.951639L133.271164,111.306460L131.359258,113.273915L128.376689,115.800332Z " data-name="cz-us" data-realname="Ústecký"/><path d="M194.513939,176.902457L192.497598,176.888280L185.853452,175.549645L181.775893,172.406832L180.332010,171.177747L178.875415,171.720401L177.519782,173.500297L178.114752,176.878154L179.274412,178.806223L178.820781,179.985002L170.483044,181.502093L169.919599,184.722888L172.032962,190.192998L170.574836,191.653710L166.689777,191.090601L161.132633,186.296956L150.968191,184.694527L145.905183,188.393823L132.846379,194.387273L131.602650,195.880813L130.198372,203.680088L128.707303,204.547704L120.672403,202.694929L117.201662,204.908542L115.560138,204.655144L112.186951,201.924663L100.858247,201.738180L93.089980,207.033120L84.576397,205.820795L80.851058,209.076752L78.440013,209.778269L71.466518,208.711524L71.262423,212.297487L70.282076,215.120782L67.271786,220.205289L66.397774,223.057946L63.423232,222.323290L62.712511,224.928059L62.642795,231.837012L60.452468,233.764921L54.563738,235.864758L53.033304,238.642485L58.817750,246.518796L61.020659,248.075191L70.408730,252.104976L71.749703,254.062751L72.528401,259.497376L71.933168,260.949306L73.454220,262.888493L77.049034,264.464762L79.848128,267.865930L81.545099,274.134130L84.909989,279.390348L86.589514,280.757093L89.792501,280.986482L90.929918,281.712890L92.178703,290.899393L93.109548,293.901521L94.955287,296.578784L97.946273,298.539044L104.867948,301.159261L107.988877,303.674457L113.392524,312.541125L115.842885,314.521337L118.806855,315.391897L127.500334,316.434681L130.216795,316.128540L129.401065,313.746460L131.375985,313.220317L137.060440,314.492638L146.200541,320.615659L148.802974,321.486353L150.834033,326.509952L155.832375,331.113069L157.740456,331.993558L172.541216,347.433807L174.721428,351.081692L177.273146,354.193643L181.565295,356.204557L190.451065,356.549294L193.456387,357.487759L195.335094,358.770997L200.141415,363.722337L206.744638,368.990303L208.611660,372.218421L209.073451,377.420268L211.383500,380.265714L215.832922,383.552074L220.670806,386.321216L224.196068,387.691471L226.729476,382.421465L229.662960,381.812264L229.664446,381.812523L229.348862,380.025126L232.132972,374.383308L235.223427,369.972152L238.814278,366.394246L239.159897,365.296696L238.678182,357.022132L240.271251,352.981094L245.997860,350.841630L247.297246,349.237609L250.716704,343.182348L255.328285,340.324967L251.585952,335.255826L253.359194,332.112086L252.376779,327.992011L253.709700,326.087760L256.825374,324.328035L258.404495,319.893461L262.073868,313.612670L262.393350,309.651081L260.906630,301.253373L261.412253,295.278512L259.108072,289.288353L256.751693,285.477684L256.603266,283.790957L257.786833,279.216870L256.196220,275.596221L254.683996,274.180165L253.332617,270.320333L253.124851,265.743945L250.757757,262.549163L246.921027,260.422861L247.424426,255.829533L245.467078,254.883329L247.397732,253.460013L244.365319,249.850223L247.034377,246.732074L256.767105,243.056048L260.136041,239.729515L260.074044,237.724425L256.914935,236.015735L258.211716,228.968874L257.393960,225.919719L258.940852,222.150787L258.894705,217.708994L259.883963,216.731481L260.993065,207.164898L258.934835,205.163970L251.048646,201.979392L242.008631,196.983285L237.932764,193.552384L232.199561,191.641552L225.623634,192.170412L221.661907,191.244407L214.171153,185.677042L207.165530,183.610761L201.184736,185.448123L198.231879,183.780919L199.618696,180.580486L199.485115,178.790020L197.472927,175.102097L194.513939,176.902457Z " data-name="cz-pl" data-realname="Plzeňský"/><path d="M696.646746,263.861161L689.048140,260.814806L685.540921,259.831907L681.870273,259.553695L676.974429,259.846122L672.614082,258.755626L664.818954,258.779994L662.306018,263.538234L661.094967,264.415627L643.903912,265.800816L640.363117,265.542866L640.221826,267.590270L638.748528,275.187855L643.061941,278.479300L644.068465,280.440091L644.178805,283.768603L643.307672,285.203332L638.990423,285.849588L638.030797,287.739649L639.098570,290.215168L640.174462,298.653104L643.969591,307.101074L643.701778,310.395374L631.505002,316.838366L628.001496,321.624514L628.306982,325.625952L629.476400,327.188390L626.394602,330.500630L624.802095,334.187538L624.793113,336.519493L626.135499,339.144623L628.027414,339.913878L629.878483,342.795654L626.814514,350.379552L628.200116,352.761240L628.442481,355.326277L627.582834,357.144285L624.667058,360.397745L614.591651,363.152577L611.323254,367.355387L608.690842,368.626078L598.459443,367.245425L594.464856,369.322529L590.083226,369.475261L588.292421,369.065941L585.141568,365.811869L583.121949,366.231342L579.668034,370.135069L575.742017,371.599304L575.217975,374.202047L573.647449,375.407748L568.531056,375.000413L564.537879,376.564597L554.599358,384.575715L552.824772,384.441269L548.155536,381.257451L545.210310,381.306337L538.930522,385.873340L535.858812,382.229074L531.121902,381.546695L530.779348,382.392032L530.842450,383.153866L528.447852,389.788828L528.025591,391.274022L527.278959,394.186496L536.250570,397.015931L548.088582,402.373698L551.435333,403.025484L554.818979,403.025484L568.007758,399.804969L571.524511,403.926496L574.346155,404.099032L578.387467,405.421826L577.024552,407.080157L581.667122,407.607382L581.983494,409.562953L584.427271,409.026123L585.666607,412.026689L601.195152,421.000581L609.223399,423.819592L622.740375,423.138798L643.503458,425.679830L646.679023,425.171615L648.736881,426.494902L653.336565,424.893537L659.867226,414.231680L662.293961,412.812806L668.086794,413.272977L670.661090,412.333465L676.004811,413.905719L690.597936,417.251700L691.948158,419.485658L693.984989,424.346973L698.381969,425.823666L703.953406,425.631885L706.257617,426.274352L711.833163,429.218279L714.611269,430.062168L717.410751,429.774477L722.911548,428.096309L725.339927,428.249740L729.181510,432.334971L732.310030,444.621059L737.825221,449.561095L737.876191,446.035886L739.989658,443.661872L741.445653,441.076935L747.270191,423.177152L750.421468,418.037890L755.147176,414.385074L757.055208,412.151316L757.603790,408.652262L758.783035,406.926783L766.238550,402.134072L772.701731,400.964715L779.897042,402.498303L797.299619,409.582126L799.812290,409.179503L805.086645,406.140749L808.498064,405.287628L810.717459,406.150335L815.575869,410.109376L821.013499,410.809187L836.806664,405.462028L835.325715,401.272175L833.612409,397.987468L829.792236,394.517557L821.656680,392.551445L818.614518,387.515282L813.455214,384.594048L809.084016,384.109230L804.617551,386.211503L801.403184,385.826487L799.630266,383.807748L796.843524,382.047784L791.478207,380.214555L790.767305,377.542238L788.473448,374.479030L779.254968,372.914914L773.007322,370.568836L771.115595,368.283965L770.973247,362.529519L769.396332,359.882633L768.289210,359.821552L761.332162,361.857602L758.781735,361.829097L756.010744,360.868071L753.580116,358.449306L759.892757,350.835523L763.750318,349.614182L766.229620,346.890714L764.317061,343.532411L760.299931,341.643735L758.227472,339.478372L755.922553,336.043324L754.254036,329.662372L756.329925,326.077588L756.434717,325.670108L756.519315,325.341139L756.181599,322.065934L754.129284,318.717771L751.071334,315.341415L747.875064,312.970003L742.273168,311.562680L738.276766,308.520435L738.165832,304.905031L736.909215,302.497662L729.613434,297.040986L725.266782,287.995730L722.154925,284.894434L716.271581,282.943559L712.729115,283.784860L712.287953,284.894434L712.672744,288.536350L715.675491,292.211152L716.909500,294.390191L717.613300,297.902942L713.610441,303.302813L709.890297,304.628501L701.472436,299.533393L700.475653,297.687451L702.531244,295.203298L702.677204,291.300547L698.351380,283.658867L697.935914,280.614840L699.519355,279.948359L699.418607,278.456950L692.717782,273.353313L690.482048,270.590508L689.932391,267.482616L690.944341,267.210435L695.669213,268.124484L697.824226,265.821127L698.205966,263.574791L696.646746,263.861161Z " data-name="cz-jm" data-realname="Jihomoravský"/><path d="M862.822679,278.479300L861.104514,283.333725L856.325594,283.268697L854.827343,281.960033L850.578206,282.886659L847.116502,287.148232L846.759522,293.739718L842.962676,295.185003L829.911291,293.040473L826.042873,293.140074L824.324702,293.719391L823.876807,295.388283L825.564340,299.265035L824.333211,301.115121L812.006939,301.373327L806.632152,303.363809L801.897368,308.705485L800.369864,308.461464L789.333301,304.520736L785.487601,301.971071L779.476031,300.891480L779.218214,307.029904L780.693767,310.192013L782.079370,311.497603L780.529441,314.247212L775.900830,318.231639L772.424279,320.615571L762.906296,320.808814L761.001425,322.676200L760.672974,326.081657L757.347704,326.927979L756.609300,325.967730L756.434717,325.670108L756.329925,326.077588L754.254036,329.662372L755.922553,336.043324L758.227472,339.478372L760.299931,341.643735L764.317061,343.532411L766.229620,346.890714L763.750318,349.614182L759.892757,350.835523L753.580116,358.449306L756.010744,360.868071L758.781735,361.829097L761.332162,361.857602L768.289210,359.821552L769.396332,359.882633L770.973247,362.529519L771.115595,368.283965L773.007322,370.568836L779.254968,372.914914L788.473448,374.479030L790.767305,377.542238L791.478207,380.214555L796.843524,382.047784L799.630266,383.807748L801.403184,385.826487L804.617551,386.211503L809.084016,384.109230L813.455214,384.594048L818.614518,387.515282L821.656680,392.551445L829.792236,394.517557L833.612409,397.987468L835.325715,401.272175L836.806664,405.462028L848.359588,401.549391L850.785532,399.757046L855.167719,392.492447L857.379039,390.853740L860.939730,390.336264L866.868521,390.642916L869.359787,388.448481L870.316504,385.909189L870.907634,380.169905L871.555307,377.420268L873.186771,374.182219L876.106282,372.534539L879.608909,372.074731L887.523768,372.582436L892.210284,370.724071L896.207381,367.381116L898.839798,363.099799L899.415913,359.029564L898.342475,344.666979L899.614224,338.588241L901.804247,332.941061L904.867261,328.194193L908.849332,324.816211L927.921836,318.462927L936.216997,312.722879L935.837453,306.177144L934.219029,306.145373L929.383277,298.163159L927.097448,295.077266L916.412545,286.012170L905.322974,286.158494L898.229301,282.817568L875.617581,284.674955L872.423801,283.345918L870.928874,280.137330L869.272749,278.566670L862.822679,278.479300Z " data-name="cz-zl" data-realname="Zlínský"/><path d="M699.973995,156.206248L695.537849,167.636575L692.819769,177.645721L693.268287,185.358987L689.034792,187.970385L686.298505,190.586076L682.553973,192.417622L684.336981,197.459550L687.280148,211.199602L687.894872,215.634352L685.919651,219.783778L685.826344,221.240065L696.798580,237.077060L697.469573,240.184127L701.336223,242.613573L702.951181,244.407868L704.613347,250.680562L700.461673,254.511759L700.175224,259.535419L699.548383,262.323733L698.205966,263.574791L697.824226,265.821127L695.669213,268.124484L690.944341,267.210435L689.932391,267.482616L690.482048,270.590508L692.717782,273.353313L699.418607,278.456950L699.519355,279.948359L697.935914,280.614840L698.351380,283.658867L702.677204,291.300547L702.531244,295.203298L700.475653,297.687451L701.472436,299.533393L709.890297,304.628501L713.610441,303.302813L717.613300,297.902942L716.909500,294.390191L715.675491,292.211152L712.672744,288.536350L712.287953,284.894434L712.729115,283.784860L716.271581,282.943559L722.154925,284.894434L725.266782,287.995730L729.613434,297.040986L736.909215,302.497662L738.165832,304.905031L738.276766,308.520435L742.273168,311.562680L747.875064,312.970003L751.071334,315.341415L754.129284,318.717771L756.181599,322.065934L756.519315,325.341139L756.434717,325.670108L756.609300,325.967730L757.347704,326.927979L760.672974,326.081657L761.001425,322.676200L762.906296,320.808814L772.424279,320.615571L775.900830,318.231639L780.529441,314.247212L782.079370,311.497603L780.693767,310.192013L779.218214,307.029904L779.476031,300.891480L785.487601,301.971071L789.333301,304.520736L800.369864,308.461464L801.897368,308.705485L806.632152,303.363809L812.006939,301.373327L824.333211,301.115121L825.564340,299.265035L823.876807,295.388283L824.324702,293.719391L826.042873,293.140074L829.911291,293.040473L842.962676,295.185003L846.759522,293.739718L847.116502,287.148232L850.578206,282.886659L854.827343,281.960033L856.325594,283.268697L861.104514,283.333725L862.822679,278.479300L860.430306,276.398746L858.447826,275.195981L854.198263,274.318314L853.698047,271.977977L850.479673,267.299808L846.306343,264.515147L841.532922,262.750225L840.482643,261.913493L835.269884,254.213287L832.718957,253.579805L830.186450,254.992974L826.560067,251.994123L826.797951,245.897777L822.132929,241.866656L817.762882,240.214570L812.610597,241.651515L808.854921,241.412019L803.235648,238.463128L798.442532,240.874177L791.013019,240.541327L788.780071,239.656452L776.611510,229.723601L769.586332,231.350791L756.612590,226.155039L755.018264,223.193384L747.593613,221.668040L745.630233,220.964217L744.297261,218.858930L744.348252,212.142464L744.874222,210.185806L748.636054,205.711323L748.330333,204.008482L743.941742,200.749033L743.506558,194.814859L751.231559,184.893053L751.596995,182.389294L749.422656,176.949037L751.302448,169.695625L754.005204,165.474428L765.280493,160.126450L768.240225,156.129276L770.607475,155.425022L772.724735,156.459148L777.229970,151.812955L773.875994,140.937024L770.679950,141.136820L769.430080,144.505016L767.375840,143.315636L765.672706,139.091356L765.619677,136.694068L763.216399,134.382586L765.805041,133.507505L762.699834,132.470760L755.896072,132.632452L752.362869,131.824001L746.986795,129.199073L745.438495,127.943756L742.592815,121.972242L741.121262,121.040493L734.764960,121.763071L727.558755,117.874671L712.312198,114.490573L708.980814,114.813756L702.446808,111.781679L699.097216,111.439520L695.334648,113.378470L695.593998,115.944926L700.777468,121.506363L702.749710,124.872266L705.970289,132.356625L708.905560,134.629896L712.611287,136.313564L715.480400,138.672768L717.327806,141.974075L717.964425,146.446190L720.052176,148.482661L720.568965,150.909485L719.786506,152.479892L717.976109,151.937378L714.548436,148.454111L710.697853,151.908825L707.933161,151.128385L705.008167,152.146768L701.571486,155.868458L699.973995,156.206248Z " data-name="cz-ol" data-realname="Olomoucký"/><path d="M699.548383,262.323733L700.175224,259.535419L700.461673,254.511759L704.613347,250.680562L702.951181,244.407868L701.336223,242.613573L697.469573,240.184127L696.798580,237.077060L685.826344,221.240065L685.919651,219.783778L687.894872,215.634352L687.280148,211.199602L684.336981,197.459550L682.553973,192.417622L686.298505,190.586076L689.034792,187.970385L693.268287,185.358987L692.819769,177.645721L695.537849,167.636575L699.973995,156.206248L699.973847,156.206279L692.453676,156.753739L689.404668,159.028942L684.161056,166.788841L681.105001,168.693432L677.086045,173.674539L671.206185,174.026963L664.859061,171.445791L659.501894,167.683983L643.722342,163.642400L641.907569,166.579775L641.916822,169.084170L640.942021,171.112953L626.416404,176.949037L625.100012,178.338371L624.631932,180.651378L622.729381,183.167138L620.810256,184.021979L607.886524,185.016626L603.695861,187.058698L597.694769,183.088137L587.298988,177.360159L583.521236,173.210728L575.032908,171.849991L572.666647,168.982938L572.294718,165.241623L570.716737,163.071560L566.594309,162.087799L560.530836,162.174838L559.214918,162.729467L550.604050,170.139038L547.907720,169.191478L543.555090,161.638438L536.478243,163.363052L535.070486,165.427867L533.587412,170.432626L530.891400,171.200019L524.684279,167.907867L517.403585,168.760227L511.525916,166.476526L509.325476,166.618240L506.610846,167.764122L498.331091,174.543178L497.217690,174.614055L488.981308,172.153721L486.751125,174.045021L487.396481,179.189017L487.374441,182.371064L486.074646,182.324475L480.560698,183.999696L479.930017,184.897105L486.485474,189.757376L491.548984,191.072365L503.652549,198.069586L505.130126,199.395091L504.690386,203.228046L504.913580,206.917562L503.591887,212.659530L503.513152,214.137779L510.120108,217.560945L513.158912,220.272580L517.347710,225.292883L519.894029,227.069963L530.948781,226.335587L533.549554,226.911726L540.571349,231.172243L544.548038,231.935139L548.106839,234.532374L548.582352,236.395211L556.016341,240.557564L558.205959,242.767829L560.837420,246.592008L564.602673,247.401964L566.872315,246.872141L571.920087,247.931796L575.345248,245.100038L578.246244,243.874034L580.144319,240.721958L581.027027,240.732106L593.567279,244.980277L596.885964,248.246450L598.503029,248.542838L605.395986,248.433215L608.411455,249.162012L612.867211,250.938397L620.637880,255.246782L624.254351,259.186134L625.898697,260.104029L631.176783,261.645418L637.445435,264.821835L640.363117,265.542866L643.903912,265.800816L661.094967,264.415627L662.306018,263.538234L664.818954,258.779994L672.614082,258.755626L676.974429,259.846122L681.870273,259.553695L685.540921,259.831907L689.048140,260.814806L696.646746,263.861161L698.205966,263.574791L699.548383,262.323733Z " data-name="cz-pa" data-realname="Pardubický"/><path d="M128.376532,115.800466L127.274426,116.733920L122.288931,116.505775L108.358787,109.880851L107.121825,109.586234L102.990072,111.182904L100.372356,110.888274L95.732901,111.696139L93.979060,113.188371L91.055970,117.218734L89.525195,118.483091L87.645831,118.654211L79.802977,117.513428L68.980631,118.169373L63.224344,119.566869L57.923440,124.035508L57.792384,127.515820L49.369681,131.852535L47.895060,133.108021L43.850582,139.757305L39.648889,143.524964L39.460152,146.446190L36.795750,149.434332L35.908020,154.440643L37.591471,160.333220L35.643888,161.532827L33.145040,161.275764L31.543439,159.409747L29.451437,154.335939L24.860917,148.330396L26.103399,145.408978L24.524946,143.429815L20.341524,143.344181L15.814955,140.213965L15.644165,137.055551L14.671441,135.352815L11.767509,133.745296L1.088976,133.108021L4.631422,135.942578L5.914462,137.578758L6.523671,142.563973L2.488947,146.446190L4.140089,148.634926L11.572261,152.280017L15.351248,155.459144L18.391603,159.704874L19.001172,162.475410L18.263295,166.665047L18.541076,169.426733L19.994129,172.217261L26.773302,176.332120L28.191192,178.151610L29.311075,182.886640L52.006506,192.513402L54.508566,194.305331L59.900248,194.762863L62.486170,196.669325L63.048880,199.367183L62.183822,203.857815L68.346046,206.718450L70.470327,207.376436L71.466518,208.711524L78.440013,209.778269L80.851058,209.076752L84.576397,205.820795L93.089980,207.033120L100.858247,201.738180L112.186951,201.924663L115.560138,204.655144L117.201662,204.908542L120.672403,202.694929L128.707303,204.547704L130.198372,203.680088L131.602650,195.880813L132.846379,194.387273L145.905183,188.393823L150.968191,184.694527L161.132633,186.296956L166.689777,191.090601L170.574836,191.653710L172.032962,190.192998L169.919599,184.722888L170.483044,181.502093L178.820781,179.985002L179.274412,178.806223L178.114752,176.878154L177.519782,173.500297L178.875415,171.720401L180.332010,171.177747L178.543946,169.920368L174.149980,165.506819L176.091832,163.273984L176.626034,160.170979L175.507861,158.153092L170.903327,152.432134L170.342721,150.946936L169.326076,140.554722L169.297986,136.564317L167.870238,130.977062L163.738245,127.924043L159.575243,127.068851L155.139842,126.886899L151.467991,126.278378L145.606662,121.125666L136.051309,120.232272L133.490732,119.090305L128.376689,115.800332L128.376532,115.800466Z " data-name="cz-ka" data-realname="Karlovarský"/><path d="M527.278959,394.186496L528.025591,391.274022L528.447852,389.788828L530.842450,383.153866L530.779348,382.392032L530.589632,381.736131L528.344245,379.882545L523.233319,379.230751L520.434387,376.169473L519.175863,375.914884L519.727543,371.747970L524.111502,367.064191L532.378341,360.063838L531.017532,357.879245L523.581078,352.181073L521.904571,351.961223L516.374743,353.848309L514.295200,353.972489L502.955804,352.938345L495.546562,347.452491L493.674874,343.756289L493.130793,340.742165L490.224259,337.803548L483.039435,337.113694L480.702182,336.395363L472.732337,333.060270L470.319671,333.658492L468.021319,336.885781L466.791306,337.272421L460.650820,334.098007L456.444221,329.841416L452.048146,327.522043L448.558864,324.873236L443.593428,324.010682L441.233382,325.935179L435.713449,324.736935L429.878546,320.493523L428.314946,317.684494L428.348836,313.866892L427.404579,311.841294L424.827497,309.899177L423.575984,306.568319L425.854751,296.516504L425.063427,290.099315L422.362919,283.632449L429.950862,279.737039L428.782167,277.168781L426.552894,275.338198L425.611739,275.451972L422.035062,272.957162L420.569237,270.358930L417.747421,269.327004L413.490006,269.633735L411.015357,266.298441L406.604137,265.209768L403.304046,262.571504L402.044247,262.668988L398.605405,266.641705L398.491703,272.585393L395.714195,275.065955L388.089686,278.099346L384.742894,279.905689L376.031976,277.855528L359.839329,278.395994L357.073730,278.099346L354.555907,276.989985L349.582855,276.876206L342.980952,280.043861L339.708279,279.915848L336.240166,277.067192L334.530566,276.636459L332.714617,274.257366L330.145505,273.546311L324.806378,274.334567L322.338762,276.512523L319.514556,277.487771L311.060156,278.410218L307.175130,278.290339L298.234905,275.508859L294.501985,276.282937L291.575089,280.986694L284.657028,282.801311L280.298975,284.886305L277.557696,284.908659L272.129124,282.726124L264.926944,281.376839L256.751693,285.477684L259.108072,289.288353L261.412253,295.278512L260.906630,301.253373L262.393350,309.651081L262.073868,313.612670L258.404495,319.893461L256.825374,324.328035L253.709700,326.087760L252.376779,327.992011L253.359194,332.112086L251.585952,335.255826L255.328285,340.324967L250.716704,343.182348L247.297246,349.237609L245.997860,350.841630L240.271251,352.981094L238.678182,357.022132L239.159897,365.296696L238.814278,366.394246L235.223427,369.972152L232.132972,374.383308L229.348862,380.025126L229.664446,381.812523L232.114039,382.239420L239.977525,386.359545L242.628399,386.110411L243.245951,389.617557L245.052001,392.990777L247.551766,395.885023L250.205319,397.964763L253.060733,399.057377L258.582168,399.776215L260.715214,400.734681L264.452117,405.172602L272.398982,416.964072L275.449377,419.447306L281.452080,420.770463L290.522557,426.025035L300.743590,430.570424L305.851943,436.401295L308.602215,437.849507L308.877793,440.141779L307.078615,440.467883L305.168371,443.000042L306.038624,445.532300L310.783749,450.117472L315.913911,451.872966L336.898996,453.829966L351.816063,458.147074L357.161253,455.638321L364.599402,452.880238L366.773685,450.880099L369.516285,443.556363L371.564789,442.319035L375.354271,445.791286L381.416277,448.362023L385.348165,448.304468L389.619684,446.529883L392.867825,447.071846L393.782246,450.275752L398.100430,449.901635L402.064926,454.611822L404.492289,454.746129L407.250902,452.275874L407.623281,447.450743L407.108965,441.777112L407.253127,436.765742L409.741049,432.996690L417.030556,427.319573L417.498114,423.771649L418.801137,421.595055L419.944790,417.577680L422.105726,416.868196L429.841342,417.750258L437.636729,420.348584L440.594402,420.118469L442.023027,416.868196L439.796163,412.697764L440.814288,409.064468L443.004419,397.447216L442.612409,392.319949L441.554843,386.647008L441.195437,381.367530L442.885161,377.458590L446.408742,374.316336L454.750213,376.644267L466.227347,377.420268L468.481466,385.075562L467.723821,387.720218L470.639343,387.768130L481.627766,385.257618L484.626306,381.846589L486.438705,378.589085L488.687096,380.696857L495.560523,380.763924L498.898725,381.539991L506.193743,384.529401L512.864200,386.359545L516.142026,387.863954L523.822129,393.096194L527.277632,394.186078L527.278959,394.186496Z " data-name="cz-jc" data-realname="Jihočeský"/><path d="M637.445435,264.821835L631.176783,261.645418L625.898697,260.104029L624.254351,259.186134L620.637880,255.246782L612.867211,250.938397L608.411455,249.162012L605.395986,248.433215L598.503029,248.542838L596.885964,248.246450L593.567279,244.980277L581.027027,240.732106L580.144319,240.721958L578.246244,243.874034L575.345248,245.100038L571.920087,247.931796L566.872315,246.872141L564.602673,247.401964L560.837420,246.592008L558.205959,242.767829L556.016341,240.557564L548.582352,236.395211L548.106839,234.532374L544.548038,231.935139L540.571349,231.172243L533.549554,226.911726L530.948781,226.335587L519.894029,227.069963L517.347710,225.292883L513.158912,220.272580L510.120108,217.560945L503.513152,214.137779L503.531243,215.662743L503.619844,218.540513L500.186184,220.696485L499.111009,222.408390L498.404922,226.883325L496.854383,228.968874L493.712648,229.756063L489.934170,229.307688L484.204930,233.511717L479.267669,235.147220L473.532164,238.055216L471.539021,238.030863L468.848499,236.951242L467.128590,237.740661L465.309263,242.069621L460.524225,247.659774L461.261216,250.548599L468.183661,254.597037L470.781735,257.981943L471.158126,262.238435L460.085896,266.775762L455.960651,267.311995L453.472714,266.489369L449.222471,266.404061L442.250483,267.376993L436.327191,265.280855L434.063867,265.666763L434.258506,268.601831L431.174345,270.224859L429.303285,273.664142L427.697749,274.925771L426.552894,275.338198L428.782167,277.168781L429.950862,279.737039L422.362919,283.632449L425.063427,290.099315L425.854751,296.516504L423.575984,306.568319L424.827497,309.899177L427.404579,311.841294L428.348836,313.866892L428.314946,317.684494L429.878546,320.493523L435.713449,324.736935L441.233382,325.935179L443.593428,324.010682L448.558864,324.873236L452.048146,327.522043L456.444221,329.841416L460.650820,334.098007L466.791306,337.272421L468.021319,336.885781L470.319671,333.658492L472.732337,333.060270L480.702182,336.395363L483.039435,337.113694L490.224259,337.803548L493.130793,340.742165L493.674874,343.756289L495.546562,347.452491L502.955804,352.938345L514.295200,353.972489L516.374743,353.848309L521.904571,351.961223L523.581078,352.181073L531.017532,357.879245L532.378341,360.063838L524.111502,367.064191L519.727543,371.747970L519.175863,375.914884L520.434387,376.169473L523.233319,379.230751L528.344245,379.882545L530.589632,381.736131L530.779348,382.392032L531.121902,381.546695L535.858812,382.229074L538.930522,385.873340L545.210310,381.306337L548.155536,381.257451L552.824772,384.441269L554.599358,384.575715L564.537879,376.564597L568.531056,375.000413L573.647449,375.407748L575.217975,374.202047L575.742017,371.599304L579.668034,370.135069L583.121949,366.231342L585.141568,365.811869L588.292421,369.065941L590.083226,369.475261L594.464856,369.322529L598.459443,367.245425L608.690842,368.626078L611.323254,367.355387L614.591651,363.152577L624.667058,360.397745L627.582834,357.144285L628.442481,355.326277L628.200116,352.761240L626.814514,350.379552L629.878483,342.795654L628.027414,339.913878L626.135499,339.144623L624.793113,336.519493L624.802095,334.187538L626.394602,330.500630L629.476400,327.188390L628.306982,325.625952L628.001496,321.624514L631.505002,316.838366L643.701778,310.395374L643.969591,307.101074L640.174462,298.653104L639.098570,290.215168L638.030797,287.739649L638.990423,285.849588L643.307672,285.203332L644.178805,283.768603L644.068465,280.440091L643.061941,278.479300L638.748528,275.187855L640.221826,267.590270L640.363117,265.542866L637.445435,264.821835Z " data-name="cz-vy" data-realname="Vysočina"/><path d="M375.960334,169.683476L373.759969,167.915965L369.169031,166.749832L367.194982,164.101915L362.820643,161.065614L359.481023,160.055609L352.355671,160.731640L333.575672,165.263891L332.633906,166.721489L333.217008,168.654946L330.172588,170.096519L326.459625,168.891828L317.995418,170.955019L315.610787,174.160447L319.949643,176.803222L319.882006,180.795187L323.762021,184.457513L327.000899,189.913389L331.225051,193.619255L332.069949,199.147821L335.079041,200.272714L341.025487,198.231724L351.369787,196.715769L357.745329,195.023588L362.839368,191.540239L368.429768,191.882679L376.252266,191.882679L379.449210,191.205909L380.352143,189.003665L379.096687,186.315189L378.058163,182.437909L383.323703,176.313125L382.644699,173.249202L375.960334,169.683476Z " data-name="cz-pr" data-realname="Prague"/><path d="M436.450555,92.684003L434.725646,90.412377L432.982276,85.019741L429.296442,85.827260L426.264008,84.658383L423.274468,82.009909L415.559407,80.223536L411.899945,80.925961L409.250337,80.423362L407.246340,81.182310L402.159706,86.273425L398.511360,91.325044L391.183417,96.026140L386.037830,98.063921L380.421330,101.237005L367.631594,103.978134L365.119729,104.153882L363.050291,103.351914L362.112515,100.723956L360.084872,99.883706L355.086656,99.645371L348.628956,99.770597L347.083719,100.140222L346.141014,100.701738L344.319110,108.416605L336.261919,113.225547L332.733637,112.294005L330.960809,113.215443L333.589064,122.019087L330.935813,126.830292L322.076308,127.667281L319.805690,128.575057L316.837393,130.700053L310.227955,129.826582L298.900482,131.413812L288.857117,129.549584L282.799891,129.711334L279.976565,130.473595L279.389679,135.029382L278.373060,137.415746L272.757431,138.224727L264.484529,142.609804L259.512886,146.303658L254.954222,145.075692L241.548177,150.936819L239.034003,151.489206L234.241847,150.756739L224.296009,156.414626L216.001305,159.284467L211.856463,163.326615L210.664862,166.055439L204.246913,171.463246L198.851094,173.340325L197.472927,175.102097L199.485115,178.790020L199.618696,180.580486L198.231879,183.780919L201.184736,185.448123L207.165530,183.610761L214.171153,185.677042L221.661907,191.244407L225.623634,192.170412L232.199561,191.641552L237.932764,193.552384L242.008631,196.983285L251.048646,201.979392L258.934835,205.163970L260.993065,207.164898L259.883963,216.731481L258.894705,217.708994L258.940852,222.150787L257.393960,225.919719L258.211716,228.968874L256.914935,236.015735L260.074044,237.724425L260.136041,239.729515L256.767105,243.056048L247.034377,246.732074L244.365319,249.850223L247.397732,253.460013L245.467078,254.883329L247.424426,255.829533L246.921027,260.422861L250.757757,262.549163L253.124851,265.743945L253.332617,270.320333L254.683996,274.180165L256.196220,275.596221L257.786833,279.216870L256.603266,283.790957L256.751693,285.477684L264.926944,281.376839L272.129124,282.726124L277.557696,284.908659L280.298975,284.886305L284.657028,282.801311L291.575089,280.986694L294.501985,276.282937L298.234905,275.508859L307.175130,278.290339L311.060156,278.410218L319.514556,277.487771L322.338762,276.512523L324.806378,274.334567L330.145505,273.546311L332.714617,274.257366L334.530566,276.636459L336.240166,277.067192L339.708279,279.915848L342.980952,280.043861L349.582855,276.876206L354.555907,276.989985L357.073730,278.099346L359.839329,278.395994L376.031976,277.855528L384.742894,279.905689L388.089686,278.099346L395.714195,275.065955L398.491703,272.585393L398.605405,266.641705L402.044247,262.668988L403.304046,262.571504L406.604137,265.209768L411.015357,266.298441L413.490006,269.633735L417.747421,269.327004L420.569237,270.358930L422.035062,272.957162L425.611739,275.451972L426.552894,275.338198L427.697749,274.925771L429.303285,273.664142L431.174345,270.224859L434.258506,268.601831L434.063867,265.666763L436.327191,265.280855L442.250483,267.376993L449.222471,266.404061L453.472714,266.489369L455.960651,267.311995L460.085896,266.775762L471.158126,262.238435L470.781735,257.981943L468.183661,254.597037L461.261216,250.548599L460.524225,247.659774L465.309263,242.069621L467.128590,237.740661L468.848499,236.951242L471.539021,238.030863L473.532164,238.055216L479.267669,235.147220L484.204930,233.511717L489.934170,229.307688L493.712648,229.756063L496.854383,228.968874L498.404922,226.883325L499.111009,222.408390L500.186184,220.696485L503.619844,218.540513L503.531243,215.662743L503.513152,214.137779L503.591887,212.659530L504.913580,206.917562L504.690386,203.228046L505.130126,199.395091L503.652549,198.069586L491.548984,191.072365L486.485474,189.757376L479.930017,184.897105L480.560698,183.999696L486.074646,182.324475L487.374441,182.371064L487.396481,179.189017L486.751125,174.045021L488.981308,172.153721L489.365373,171.635357L488.545455,169.721946L481.285335,163.816488L480.574368,161.304458L483.663430,157.333429L479.329663,147.596417L479.092789,145.104014L477.016862,139.842759L473.676931,138.558439L467.780008,139.185423L462.404349,138.329897L459.762779,138.815299L455.976987,137.834391L454.145582,133.292315L450.861708,130.473595L443.453864,127.962456L442.372160,125.831598L444.141973,119.367203L445.726469,114.975554L443.494653,105.745764L440.998433,101.552111L442.284228,97.128827L441.930566,96.426011L436.450555,92.684003Z M375.960334,169.683476L382.644699,173.249202L383.323703,176.313125L378.058163,182.437909L379.096687,186.315189L380.352143,189.003665L379.449210,191.205909L376.252266,191.882679L368.429768,191.882679L362.839368,191.540239L357.745329,195.023588L351.369787,196.715769L341.025487,198.231724L335.079041,200.272714L332.069949,199.147821L331.225051,193.619255L327.000899,189.913389L323.762021,184.457513L319.882006,180.795187L319.949643,176.803222L315.610787,174.160447L317.995418,170.955019L326.459625,168.891828L330.172588,170.096519L333.217008,168.654946L332.633906,166.721489L333.575672,165.263891L352.355671,160.731640L359.481023,160.055609L362.820643,161.065614L367.194982,164.101915L369.169031,166.749832L373.759969,167.915965L375.960334,169.683476Z " data-name="cz-st" data-realname="Středočeský"/><path d="M482.431581,43.970404L476.435122,44.378150L474.001688,47.678258L470.422165,48.512827L469.360475,46.995447L469.367049,41.628342L467.327782,38.186702L462.298874,35.797701L459.247606,33.939723L453.929553,25.684507L453.266865,23.078574L455.067633,16.010542L452.485681,13.007613L448.493543,11.473110L440.247202,11.368918L437.734648,5.894627L435.986016,5.212779L434.209754,6.263968L432.805139,10.544868L431.198838,10.810077L425.890902,6.851135L418.455102,5.563172L415.529593,3.541371L414.657656,5.894627L410.375523,8.053916L410.549116,10.753247L413.024787,12.240351L415.444661,14.807439L416.069673,20.131777L414.355399,25.220160L415.083987,31.588979L414.921095,33.171919L398.304099,32.195604L393.167640,33.370977L390.078081,33.285666L385.713636,41.628342L380.270801,42.045538L374.815806,41.078411L366.851329,36.783615L361.727722,35.646025L360.909046,34.271496L359.053346,37.256256L354.710575,37.560596L353.548733,39.495546L353.156040,43.710549L350.632218,46.420080L348.202162,46.399919L340.118808,40.114354L337.810643,40.827914L336.807956,48.397953L335.088183,49.773066L333.847896,52.216975L334.084297,54.156921L327.786308,64.231783L325.832564,65.264677L324.863062,68.363577L334.710965,89.031315L345.615357,95.923144L347.083719,100.140222L348.628956,99.770597L355.086656,99.645371L360.084872,99.883706L362.112515,100.723956L363.050291,103.351914L365.119729,104.153882L367.631594,103.978134L380.421330,101.237005L386.037830,98.063921L391.183417,96.026140L398.511360,91.325044L402.159706,86.273425L407.246340,81.182310L409.250337,80.423362L411.899945,80.925961L415.559407,80.223536L423.274468,82.009909L426.264008,84.658383L429.296442,85.827260L432.982276,85.019741L434.725646,90.412377L436.450555,92.684003L441.930566,96.426011L442.243922,96.175586L444.094338,95.814090L446.469398,96.474480L454.963381,101.933878L457.716802,102.127793L463.502141,96.407835L466.435380,95.923144L472.941943,97.991213L475.880363,99.800894L480.721801,104.412456L483.022315,105.919503L487.632111,103.291312L487.614008,97.431770L488.747925,95.923144L492.397730,94.889165L494.949847,95.301136L499.947541,98.825349L511.205540,100.412899L513.482539,98.679929L513.050284,95.238532L507.259976,86.017031L506.903703,84.585708L507.576144,80.665577L503.057663,72.150896L501.962743,66.921015L502.856385,61.817131L502.393179,60.368839L496.881635,52.527519L494.360707,47.245423L482.431581,43.970404Z " data-name="cz-li" data-realname="Liberecký"/><path d="M656.693223,164.960552L655.111683,162.656314L652.876647,156.372970L650.975812,152.889164L646.226544,149.158344L641.808721,144.124409L637.607854,138.663254L635.299057,136.275514L631.899789,134.439657L625.248523,132.518316L622.408659,129.731648L621.588723,124.739144L620.410043,123.027627L618.996254,122.675827L612.374577,122.675827L608.701188,124.045016L606.727798,122.827956L603.628583,117.019104L598.853174,116.344174L597.186563,113.055303L598.060307,110.137455L600.670773,107.999155L609.286966,102.810867L610.193199,100.435587L612.418261,99.837047L617.165502,100.882125L619.614553,100.435587L624.714478,95.096667L625.236898,89.587776L624.552988,88.201220L628.970597,86.691278L627.324225,83.187374L613.990374,72.640220L609.350867,70.609073L604.525048,69.631514L597.414576,69.868783L595.688370,74.054514L594.085397,75.848582L591.684365,76.304236L589.404259,75.468876L584.558191,72.640220L578.397854,72.137166L570.046673,79.152235L563.968794,80.063653L563.758124,77.747187L565.717088,76.380179L565.847900,74.196896L561.186474,66.290979L559.100517,64.772680L556.678483,64.497496L548.330024,67.097608L543.370331,66.926790L535.138938,56.897764L534.145943,54.526216L530.527091,54.251129L518.697413,56.594196L512.142287,52.126404L494.360707,47.245423L496.881635,52.527519L502.393179,60.368839L502.856385,61.817131L501.962743,66.921015L503.057663,72.150896L507.576144,80.665577L506.903703,84.585708L507.259976,86.017031L513.050284,95.238532L513.482539,98.679929L511.205540,100.412899L499.947541,98.825349L494.949847,95.301136L492.397730,94.889165L488.747925,95.923144L487.614008,97.431770L487.632111,103.291312L483.022315,105.919503L480.721801,104.412456L475.880363,99.800894L472.941943,97.991213L466.435380,95.923144L463.502141,96.407835L457.716802,102.127793L454.963381,101.933878L446.469398,96.474480L444.094338,95.814090L442.243922,96.175586L441.930566,96.426011L442.284228,97.128827L440.998433,101.552111L443.494653,105.745764L445.726469,114.975554L444.141973,119.367203L442.372160,125.831598L443.453864,127.962456L450.861708,130.473595L454.145582,133.292315L455.976987,137.834391L459.762779,138.815299L462.404349,138.329897L467.780008,139.185423L473.676931,138.558439L477.016862,139.842759L479.092789,145.104014L479.329663,147.596417L483.663430,157.333429L480.574368,161.304458L481.285335,163.816488L488.545455,169.721946L489.365373,171.635357L488.981308,172.153721L497.217690,174.614055L498.331091,174.543178L506.610846,167.764122L509.325476,166.618240L511.525916,166.476526L517.403585,168.760227L524.684279,167.907867L530.891400,171.200019L533.587412,170.432626L535.070486,165.427867L536.478243,163.363052L543.555090,161.638438L547.907720,169.191478L550.604050,170.139038L559.214918,162.729467L560.530836,162.174838L566.594309,162.087799L570.716737,163.071560L572.294718,165.241623L572.666647,168.982938L575.032908,171.849991L583.521236,173.210728L587.298988,177.360159L597.694769,183.088137L603.695861,187.058698L607.886524,185.016626L620.810256,184.021979L622.729381,183.167138L624.631932,180.651378L625.100012,178.338371L626.416404,176.949037L640.942021,171.112953L641.916822,169.084170L641.907569,166.579775L643.722342,163.642400L659.501894,167.683983L656.693223,164.960552Z " data-name="cz-kr" data-realname="Královéhradecký"/><path d="M773.875994,140.937024L777.229970,151.812955L772.724735,156.459148L770.607475,155.425022L768.240225,156.129276L765.280493,160.126450L754.005204,165.474428L751.302448,169.695625L749.422656,176.949037L751.596995,182.389294L751.231559,184.893053L743.506558,194.814859L743.941742,200.749033L748.330333,204.008482L748.636054,205.711323L744.874222,210.185806L744.348252,212.142464L744.297261,218.858930L745.630233,220.964217L747.593613,221.668040L755.018264,223.193384L756.612590,226.155039L769.586332,231.350791L776.611510,229.723601L788.780071,239.656452L791.013019,240.541327L798.442532,240.874177L803.235648,238.463128L808.854921,241.412019L812.610597,241.651515L817.762882,240.214570L822.132929,241.866656L826.797951,245.897777L826.560067,251.994123L830.186450,254.992974L832.718957,253.579805L835.269884,254.213287L840.482643,261.913493L841.532922,262.750225L846.306343,264.515147L850.479673,267.299808L853.698047,271.977977L854.198263,274.318314L858.447826,275.195981L860.430306,276.398746L862.822679,278.479300L869.272749,278.566670L870.928874,280.137330L872.423801,283.345918L875.617581,284.674955L898.229301,282.817568L905.322974,286.158494L916.412545,286.012170L927.097448,295.077266L929.383277,298.163159L934.219029,306.145373L935.837453,306.177144L935.707083,303.932680L940.049520,304.726489L943.153023,302.947615L948.752435,296.655280L953.345042,294.523011L955.649317,286.922431L958.498147,285.354710L965.042575,286.129003L971.053306,284.312787L976.043921,286.301070L980.382993,287.371729L984.458166,287.180538L989.992840,282.630479L992.639333,281.770239L998.607659,281.636425L998.911024,278.549301L998.096597,274.726610L995.189624,266.843633L991.455278,260.166020L989.821290,253.804891L989.069571,252.362823L986.744344,251.025862L980.191058,252.305523L978.257302,251.398295L970.939729,246.824340L966.410860,246.499699L963.289446,243.998166L961.278063,238.623393L957.247551,232.820040L954.141856,227.208607L953.575707,222.256503L957.195178,218.449940L953.147392,216.742389L952.283109,214.481702L952.354609,211.648929L951.107642,208.301455L948.844014,207.233394L943.411650,210.237413L940.022860,210.246949L928.693279,205.354846L922.893252,203.714791L918.076657,204.935289L914.288888,207.843710L912.214579,208.187018L909.126798,206.251194L906.169729,201.130937L904.331921,200.082206L899.074512,198.871445L894.156211,195.639820L891.842086,194.638948L882.392695,193.199660L880.316003,191.407800L880.922984,188.003644L871.963937,183.467855L867.387460,182.553162L868.451985,186.726689L871.627992,186.726689L872.779366,188.003644L872.562713,190.653032L867.935705,191.808099L862.108571,191.951065L859.514796,192.513402L855.534307,195.639820L850.364387,196.955305L844.973549,196.040178L834.777353,188.375306L829.361664,180.009325L825.561642,176.265439L827.127429,173.684064L818.980422,171.312452L814.830848,172.407750L812.476889,171.569606L804.692193,164.284496L805.145052,161.085349L806.674441,160.428425L813.675148,160.209454L817.432457,158.971822L823.328514,155.954129L826.069407,153.879055L827.160470,151.090315L824.552380,147.683281L822.896520,146.446190L822.499778,142.906501L824.057971,138.330291L819.692877,133.868949L817.155556,133.127044L815.345650,136.380152L811.513712,141.222447L809.183128,142.877957L805.887566,143.591568L792.705740,141.726701L785.829005,142.240479L778.936855,146.446190L777.249921,143.020678L773.875994,140.937024Z " data-name="cz-mo" data-realname="Moravskoslezský"/></g></svg>