<?xml version="1.0" encoding="utf-8"?><!DOCTYPE svg  PUBLIC '-//W3C//DTD SVG 1.1//EN'  'http://www.w3.org/Graphics/SVG/1.1/DTD/svg11.dtd'><svg enable_background="new 0 0 1000 1385" height="1385px" pretty_print="False" style="stroke-linejoin: round; stroke:#000; fill: none;" version="1.1" viewBox="0 0 1000 1385" width="1000px" xmlns="http://www.w3.org/2000/svg" xmlns:xlink="http://www.w3.org/1999/xlink"><defs><style type="text/css"><![CDATA[path { fill-rule: evenodd; }]]></style></defs><metadata><views><view h="1385.30069711" padding="0" w="1000"><proj flip="auto" id="robinson" lon0="-1.94108861237"/><bbox h="170.61" w="123.25" x="-101.2" y="-1006.14"/></view></views></metadata><g class="" id="bg"><path d="M710.347681,1295.228448L702.226730,1289.384330L684.787426,1284.292100L677.173654,1289.538271L663.676553,1293.509043L658.680158,1298.398167L663.673875,1297.916903L685.279426,1308.597139L690.971487,1308.558619L696.728315,1307.191195L698.845615,1305.085666L701.626982,1299.765015L710.347681,1295.228448Z M394.193067,952.194887L382.499619,939.801438L367.610668,939.536204L356.705155,943.780292L357.729136,960.087823L365.690092,970.974101L371.103384,970.759109L375.610595,976.438076L385.357694,971.486295L393.474667,965.574596L405.442036,959.588513L409.128886,954.223168L398.389870,954.602305L394.193067,952.194887Z M182.827052,704.924298L172.839110,705.024416L150.174617,711.119816L137.483245,712.759683L131.111448,711.701894L125.246425,712.521833L116.273753,725.587960L109.078579,729.733904L101.313500,728.631596L97.512957,724.128892L81.256677,732.377123L78.647812,735.502974L73.564601,748.105528L72.860539,751.703330L67.423887,758.336097L62.221247,765.716848L56.447554,768.576895L47.938087,770.847592L43.049318,773.105938L37.098772,771.970468L29.481816,772.152391L25.568705,774.661801L25.656394,776.587936L27.815926,778.809128L34.312358,782.197749L41.554899,785.266714L40.604543,787.953138L36.485995,790.997668L10.878121,798.557179L3.126207,803.122834L0.361193,806.137738L2.772709,811.188493L22.135808,826.334141L25.480392,827.981220L28.015782,836.803076L45.616742,840.488663L52.639103,846.005466L58.848148,847.326657L72.507480,846.848504L77.889230,848.918470L81.060473,847.345532L82.991611,844.438999L94.815906,836.954011L98.761045,833.683952L96.689606,829.125436L94.376944,825.661509L101.662278,818.766483L110.418983,811.961270L114.641788,812.162322L121.669649,816.328213L127.348247,822.147768L127.956489,826.661033L128.910840,829.930191L134.231618,836.922566L137.759258,839.337646L147.498932,840.740259L149.669604,843.482811L147.487093,853.618993L148.799546,856.986037L159.066638,857.162269L170.001606,856.344062L173.795495,856.727986L177.814762,854.607032L183.971121,852.316351L192.592867,853.109256L202.393789,856.954568L212.512055,857.936444L220.913923,853.065205L227.469635,844.432709L229.851379,838.645803L232.892850,834.155570L244.860326,832.866503L255.203463,829.427216L260.597364,816.755522L253.137976,816.541866L250.753879,815.373077L252.198394,803.003501L250.019088,793.760025L255.507317,795.436416L260.168718,798.538340L264.225361,805.277199L268.370993,807.664168L269.994650,800.133400L268.248999,793.207530L264.751443,784.777161L259.463263,779.147970L243.810599,777.911844L237.241640,779.198170L229.578023,781.990654L229.739913,776.456177L241.387676,771.280427L247.014570,767.115472L246.689695,759.358117L231.873512,746.682838L220.746266,732.120306L216.310684,717.391920L207.335258,708.053164L196.813939,708.122004L182.827052,704.924298Z M310.809461,678.406640L312.073911,672.581418L311.394151,662.390483L306.269458,650.517693L303.877949,647.427066L297.397372,644.105848L290.733244,645.098421L287.899327,647.458282L285.288628,650.498960L282.884928,656.712580L288.368512,674.281345L293.697733,677.394006L298.210597,678.500405L310.809461,678.406640Z M211.063701,616.810048L202.292906,620.127603L192.519683,626.271253L189.341132,624.069342L186.261078,624.374978L182.363909,626.508297L179.047763,629.353011L177.164640,632.435154L176.588815,637.452256L173.362548,644.792529L173.712266,646.615449L177.678705,645.728944L189.826185,636.765777L193.060696,635.966989L194.544817,637.002922L192.751605,642.645151L195.634989,650.068123L191.650903,656.612650L191.799969,658.174096L196.980147,658.136620L213.681863,651.704095L217.172869,646.871418L217.084015,643.394215L213.987517,633.215110L211.063701,616.810048Z M226.277637,631.630266L244.437161,607.227839L252.155963,592.814899L248.478301,592.590641L244.710610,594.060814L230.534092,602.167064L226.986657,607.377434L227.157239,608.942010L232.891272,611.167497L219.754032,617.439850L216.534596,621.593207L216.425875,627.400354L217.328839,630.563362L219.118153,632.622341L224.146334,633.002959L226.277637,631.630266Z M248.035645,564.027466L250.449998,545.387924L243.164584,541.328634L232.273162,539.805807L224.458095,530.223624L217.411739,525.663858L213.918974,525.129667L209.551400,526.005498L199.074002,529.962686L197.032292,531.627767L195.544061,535.362211L196.343879,537.562150L213.018435,545.394141L207.752731,562.428498L196.393118,564.686994L193.583132,567.007933L194.665097,570.486657L208.252931,571.115247L248.035645,564.027466Z M167.141295,533.379960L175.047027,528.086509L179.853831,523.104823L177.679881,522.266366L171.302769,523.682444L161.161787,532.286377L161.486180,534.088331L167.141295,533.379960Z M89.514917,485.020563L91.401817,482.745126L90.745312,480.593906L86.057540,478.225945L79.327200,479.769430L77.128477,484.140121L77.594627,485.746023L80.758626,486.769149L89.514917,485.020563Z M201.710255,485.113569L203.646753,482.503336L203.706443,479.422291L202.155617,476.645379L197.910686,474.215867L186.864769,478.356114L191.455303,484.326127L195.027785,486.434303L198.712287,486.750546L201.710255,485.113569Z M106.930399,465.993459L107.225961,464.593415L106.852360,433.481174L104.054559,431.971891L92.822369,432.299718L92.633634,442.768074L90.678840,451.532728L91.072572,456.250766L94.065276,464.048290L97.321881,466.018239L102.740603,466.699709L106.930399,465.993459Z M217.848727,416.612953L216.188378,406.447785L208.619761,398.109212L202.948780,395.484791L197.852913,396.139322L195.454714,404.168247L171.855510,409.308369L171.946269,410.568878L174.879518,414.628971L174.849502,416.340994L172.511846,418.424039L168.774829,419.444002L162.889626,417.781179L157.908673,422.442358L156.986283,424.538367L158.756495,428.329017L164.937039,434.607021L187.633585,439.092433L195.000542,450.498859L198.712744,454.938033L204.182324,457.241560L214.343803,457.520229L227.078060,455.099025L228.228608,474.036143L230.893351,474.990555L234.664504,474.897591L238.232980,472.678966L250.316817,462.035160L260.342255,455.451971L263.192790,451.842279L262.945544,448.573642L259.727034,446.512425L242.559722,447.236614L224.241314,444.661830L221.802767,442.359638L217.727090,440.769289L217.419876,435.776231L215.461710,428.786662L217.472172,422.207420L217.848727,416.612953Z M114.864922,394.095525L108.272317,397.318763L103.049643,396.602445L96.363541,398.868811L91.717664,397.454620L88.725460,397.942474L85.766662,399.992822L84.042823,402.580746L84.037328,404.341211L102.640587,412.972705L116.171313,413.028324L125.566234,401.215716L114.864922,394.095525Z M217.240408,308.248930L218.067775,299.206929L215.911902,292.460413L214.237530,290.685078L208.338967,292.724577L183.709864,305.746750L164.054901,313.494084L160.604417,316.027998L159.399442,318.248514L165.028721,329.127086L164.808778,330.154950L156.476700,329.311729L149.184431,331.016673L143.222948,326.591504L137.197044,325.200763L135.562416,326.006889L133.823862,328.622406L129.769054,331.065916L128.484030,336.600305L128.910920,342.013044L129.938369,344.076303L133.672434,344.920144L135.647263,347.131543L138.705834,347.673650L131.999363,351.776885L131.401677,353.643947L136.555755,357.212175L149.824443,362.519452L150.484140,363.696979L141.765674,367.470453L140.433997,371.102770L127.644212,377.561118L134.200093,384.132571L137.072905,385.619921L139.636010,385.613749L144.339128,382.663840L150.199646,375.950968L155.800898,375.821421L167.377015,365.275341L177.836848,361.446790L193.239053,351.357898L195.575084,348.825676L195.679574,344.470501L192.533564,342.450314L181.013450,342.327139L194.494455,336.261672L199.004455,330.764308L203.881636,330.222656L217.240408,308.248930Z M276.298451,1383.300697L287.486261,1381.064972L295.123579,1368.396199L299.293719,1364.919618L319.637041,1352.370204L329.059991,1347.822130L352.248683,1341.120858L365.529892,1338.902586L374.112399,1338.786857L382.457326,1336.273118L384.864804,1334.280344L387.146130,1334.608175L394.204421,1340.175652L415.154543,1348.420334L426.109309,1355.889701L437.957711,1354.480543L448.103058,1343.693066L454.464786,1329.691268L458.977217,1313.932884L467.587899,1302.826310L509.821286,1291.764120L520.052472,1291.000762L532.868458,1293.213936L545.047026,1297.923320L556.468901,1304.944449L568.300485,1307.191195L572.381246,1303.025278L577.013620,1302.171656L609.574967,1306.684052L613.520053,1306.035696L617.268753,1303.436056L612.751494,1297.461317L610.257811,1290.609472L627.357766,1291.943738L645.855549,1289.326603L654.880136,1289.628070L663.615425,1287.710300L682.587612,1278.079195L674.173398,1268.093651L687.743581,1273.284520L703.500097,1274.957404L717.183060,1278.758743L730.543873,1284.381877L739.468231,1285.350208L774.157416,1279.476779L799.742713,1278.925428L842.134042,1285.664444L851.941256,1283.965060L863.852684,1278.290750L876.023243,1273.797267L891.759325,1269.580288L900.844629,1263.224362L920.294706,1264.287822L922.171953,1258.279335L928.925288,1248.367121L962.031583,1234.185553L965.314436,1230.705592L967.042311,1213.838327L966.914868,1206.974989L962.619064,1205.479914L950.615079,1205.428802L925.632209,1207.441423L912.669824,1207.466981L891.719972,1203.927445L887.478358,1201.557429L882.783809,1193.280373L875.354330,1191.122214L864.655698,1193.586874L873.172649,1188.951500L882.055256,1186.544815L892.785533,1186.078829L903.256609,1184.138395L912.685845,1179.753902L916.395817,1169.928678L913.338581,1164.341746L898.303180,1159.094128L919.122884,1148.883022L934.170732,1151.801821L943.136760,1149.462928L951.935851,1143.983109L951.819297,1136.581132L947.046003,1130.448656L947.496369,1127.564492L951.969019,1127.265273L956.180019,1129.429924L966.072470,1124.496099L980.907328,1112.493940L984.194449,1108.206284L986.526435,1102.730213L989.731534,1087.536460L995.045688,1075.776236L999.638807,1062.758748L999.157501,1048.524171L996.236413,1035.699635L990.068115,1025.772151L961.869144,1007.633397L950.530378,1003.605876L928.500038,999.142213L917.591324,999.870271L905.162508,997.572218L892.693923,996.774599L877.844679,998.110309L873.445771,1001.813978L864.918971,1012.219026L859.856859,1016.495110L854.577630,1018.256450L849.434473,1018.636613L825.555499,1006.062835L833.557789,997.508914L842.090364,989.932643L851.233531,983.314095L857.089917,973.098831L848.422414,950.375266L833.904568,933.203033L791.102066,904.248023L771.705536,903.983176L753.997416,900.155817L763.345389,899.979281L774.114242,901.170923L793.512407,898.510298L803.252270,905.137175L813.396924,910.535837L818.902895,911.368447L824.532949,910.939523L828.653398,912.371401L832.572381,914.976749L821.942367,897.728557L809.915820,881.935125L803.802451,872.070900L800.091523,861.744723L805.079909,854.153914L812.350318,849.327450L797.364398,840.042088L783.509877,828.572182L768.653485,813.651409L753.266050,799.656128L744.434342,794.833656L704.772513,780.296302L696.975619,773.971689L691.087073,764.957984L678.235007,732.539984L668.517020,702.652975L660.075851,672.100209L655.661783,662.852766L648.407961,656.687598L638.363259,649.887049L619.992236,632.472591L607.195370,620.333406L562.463149,604.460486L538.844793,604.591367L520.952485,613.231085L517.588670,614.079015L462.168948,605.900218L452.676504,602.435034L444.404711,595.792743L453.638090,599.861397L474.884814,603.756233L486.616650,604.416859L496.058236,602.191991L505.054780,597.717947L525.064051,583.179933L546.149398,582.152516L555.529403,575.615443L557.813527,567.350181L534.961652,557.252821L514.935848,558.328919L503.873369,561.258894L492.767732,561.588617L502.291624,558.982066L511.408647,553.713863L519.018373,550.648029L546.062490,546.370217L555.466934,542.366700L564.311875,536.362722L573.547866,526.819244L581.094437,514.845819L597.796460,497.989404L615.077909,467.616630L617.847881,461.155635L619.604323,454.170245L622.172059,447.787509L630.772041,435.961826L640.683714,427.376654L646.076457,420.532016L646.375556,418.034612L637.789979,403.025482L628.670779,394.892026L617.689347,391.638295L600.986365,394.361022L541.033990,392.916265L532.171291,393.299054L523.371506,395.441568L518.680900,395.293376L498.150796,390.656718L487.541054,390.897478L465.310820,396.713597L441.586761,404.545064L429.722977,406.960561L415.387586,407.405389L421.244984,394.842630L440.284365,380.954566L443.407694,376.956526L438.615749,374.291596L426.061319,372.731045L427.843665,364.868408L430.894279,359.215341L452.221645,347.470359L488.335179,323.822425L507.932073,313.543284L515.454229,306.355359L517.863469,302.507300L519.077189,299.385147L518.471472,289.094171L523.794118,279.876842L524.915316,276.512779L524.298823,274.088316L504.326794,272.179650L485.340434,276.340909L465.073057,277.672947L445.762777,281.344198L413.703030,283.843258L389.748070,289.425855L384.267256,282.430973L380.053492,283.296753L365.928163,289.333720L362.294937,289.782115L357.586344,284.223978L353.403833,281.872228L342.290436,279.925957L337.300825,280.938976L333.243666,282.670440L328.198673,288.498382L327.133178,292.392837L326.556468,301.198148L325.287398,305.574622L326.037148,310.530063L330.579111,316.433947L332.714259,320.924535L327.622952,322.499557L307.199721,322.339588L300.437989,323.939334L298.587721,327.317682L299.306650,331.761478L298.712551,335.916888L292.327122,345.246602L294.100277,348.542284L314.652113,365.861093L316.462563,369.024439L303.604732,366.089232L300.725778,366.212551L297.688147,369.437621L272.339722,369.024439L266.463961,376.327276L263.374968,382.052928L257.906529,395.947900L258.031138,399.066435L260.507491,404.452403L263.908941,408.171503L273.298140,411.322748L262.701735,414.264335L255.895704,417.342314L251.299863,421.292423L249.555580,425.336017L251.538301,432.590437L264.931967,438.257147L267.201527,443.343609L273.721840,451.105555L270.195653,467.641412L255.211769,485.628212L243.744805,490.992365L242.576324,492.989524L255.235988,499.292286L240.350710,508.625604L224.754148,510.624329L214.825583,516.460125L214.673867,517.900680L222.106575,519.751182L230.874133,520.036843L233.618586,530.745508L240.511446,536.325435L249.515749,538.979171L261.384413,540.129011L270.279599,535.834497L305.414334,512.263167L308.330550,511.369240L302.653848,520.421871L295.410740,529.080491L293.465236,537.083614L287.089176,542.316971L282.552847,554.093233L276.813152,563.299518L271.675420,575.945366L269.108588,590.721907L263.333417,600.889573L260.852331,631.811208L262.812951,633.876531L265.628420,634.550450L272.372061,632.503789L272.590303,633.183911L262.187094,643.618939L257.417552,649.581099L254.113252,655.994344L246.175886,679.094254L244.363803,685.302365L244.172185,689.441938L247.788365,693.094317L256.167068,694.026256L258.996708,693.438317L262.059813,690.880313L265.471011,685.990163L284.260995,637.308718L285.813355,629.951940L281.865380,614.066545L281.914324,611.105156L282.847382,608.536832L285.642266,605.488857L296.015241,596.465612L316.156438,582.750280L324.981626,578.174026L306.658173,593.014241L301.807116,599.543606L299.092372,607.894793L298.943900,616.978409L300.482194,622.460138L301.849447,622.135815L303.891937,617.053237L310.000613,616.435916L312.007011,615.014266L314.397842,609.565376L326.663680,606.941116L331.050313,604.360768L338.453335,593.307028L342.287373,588.741208L344.191426,587.738464L339.826633,597.624487L339.398043,601.413024L356.273457,612.108871L364.801319,615.774963L342.645438,615.587904L340.687829,616.940995L335.919247,624.044392L333.744614,635.892103L333.184461,646.384455L349.496596,659.279658L353.291133,664.958138L353.843219,671.687751L349.090161,681.969930L342.478591,689.854681L323.566345,716.759634L313.799642,737.452866L307.801233,734.356577L302.070938,737.741058L302.036031,746.463488L305.250561,754.217067L315.205258,766.563540L327.078519,775.803662L329.601079,765.164944L333.613292,758.354907L337.076033,755.677776L353.975349,763.013887L366.927437,766.952400L377.842355,763.264730L388.691431,757.019442L393.776471,755.596275L398.263152,756.831354L401.589220,761.464983L405.638822,764.268126L411.410517,763.245916L423.231478,764.048630L429.270409,760.950792L435.115209,756.110362L441.060359,752.624797L447.506204,751.828698L453.674884,749.678723L464.663542,742.678405L476.384578,740.579295L511.793766,740.811129L516.267752,741.951531L492.896565,747.917503L472.770517,765.058328L459.340997,791.882846L461.334263,804.328753L476.905525,825.171191L485.644033,835.023368L501.080422,848.056488L506.763018,848.264116L512.379978,844.772416L518.605765,842.570691L531.337207,841.702634L533.368540,847.106454L531.545138,858.893180L527.561363,869.614899L514.589209,876.681278L512.551723,884.688483L513.751622,893.757193L518.493905,897.224222L524.461704,899.027269L517.135192,908.094940L510.479150,917.954629L509.775957,927.439579L519.083899,943.426590L524.772180,948.467339L531.608910,950.836476L536.857927,950.994427L541.309596,953.648155L529.611555,955.929332L524.110275,954.273719L509.547009,938.557390L499.221735,942.719200L505.795961,960.106784L482.775645,948.865338L472.434011,949.705579L461.994003,953.603924L450.130733,955.240532L438.129602,953.983051L433.531858,954.621262L402.569701,965.460802L386.285588,975.097262L380.053406,980.201612L376.439947,986.559863L371.922561,992.033755L359.428768,999.243507L347.693725,1007.943722L343.119298,1014.037058L342.812610,1018.966093L352.988325,1017.825606L364.577027,1011.661609L376.472224,1007.126752L389.509876,1005.125614L402.542181,1004.783665L401.025024,1011.180214L400.589053,1017.166684L405.510012,1024.859491L408.204455,1032.218827L404.845237,1038.090219L403.841447,1044.711585L406.794994,1051.239675L413.711755,1053.301895L406.315304,1061.958890L401.011799,1072.625959L395.712184,1081.322035L388.545411,1087.676272L371.311991,1098.107435L352.891079,1104.154754L319.909886,1118.360577L298.206715,1124.349693L288.233650,1130.378616L279.835099,1139.440984L286.104507,1141.893489L289.319444,1148.851160L288.933646,1157.640574L293.282880,1162.192814L315.883076,1172.588710L335.115552,1165.087864L347.339179,1158.042205L354.507109,1156.684341L369.428382,1157.595949L375.327028,1162.926106L380.566812,1165.240917L399.560289,1168.193771L390.941772,1172.448365L384.479058,1180.060213L396.763689,1180.411201L408.864085,1178.356410L414.546214,1176.346475L419.977094,1177.112143L433.023627,1183.870322L453.328606,1200.362937L481.048069,1203.422757L484.610436,1202.368699L503.251273,1189.640998L513.852617,1184.010740L538.307378,1178.490412L546.066826,1173.016131L559.427492,1163.582901L570.457620,1157.640574L554.010474,1174.898160L543.876946,1184.221370L533.062248,1192.386435L523.583276,1201.429673L506.626637,1221.988976L496.817657,1227.693068L484.413662,1229.119327L472.088425,1228.748362L448.116394,1224.610624L423.903380,1224.303683L391.155288,1228.179136L388.036493,1229.854879L376.316480,1251.004805L352.698570,1257.523590L350.054121,1267.593856L348.343617,1278.059963L345.811654,1283.913760L316.247630,1309.451023L312.720632,1315.808103L306.156063,1317.195360L301.062420,1320.863045L296.845789,1326.619597L286.330897,1336.858129L264.983534,1353.663404L241.018535,1360.143500L231.837712,1368.724573L231.722564,1375.930820L235.056821,1379.435045L242.577580,1375.119266L254.874612,1372.343479L266.366124,1375.177233L276.298451,1383.300697Z M536.591891,260.670293L538.325265,253.385428L540.012555,249.872764L535.692063,248.855255L526.519336,250.491878L532.168895,258.744562L535.655340,261.044422L536.591891,260.670293Z M513.881787,254.065967L514.522046,253.183111L509.409519,251.632080L508.426801,250.087306L507.981957,246.158507L503.829277,240.122860L495.585816,238.401369L491.943063,239.577602L491.267094,243.069976L494.401295,248.346521L502.801087,255.604932L508.297644,255.727564L513.881787,254.065967Z M524.954275,224.524923L528.650132,221.011515L528.775375,218.710407L525.753528,215.828305L515.667041,211.154252L506.784908,210.200009L500.773937,211.845497L497.049574,220.093486L496.244587,225.890067L496.791441,229.906492L498.239299,231.847665L500.871270,232.325334L506.989192,228.277777L507.863001,229.539100L507.783223,233.819661L508.633497,235.920493L510.780153,237.611128L514.073949,238.389117L530.771039,235.846990L543.341071,241.973178L546.986895,241.630059L550.238704,239.914557L553.321198,233.782914L548.014585,230.512704L541.567633,230.182041L530.962584,227.543064L523.601049,227.616534L524.954275,224.524923Z M574.635837,199.254208L586.222768,194.284884L588.486895,190.966638L576.079981,190.141753L569.483482,191.999324L563.698775,199.400925L574.635837,199.254208Z M557.087481,204.836367L558.082830,200.739765L557.062785,199.828854L548.946810,198.068294L544.569192,192.121539L533.727233,184.765639L527.254271,186.427178L526.279706,187.673432L529.915212,191.730454L534.669043,193.869306L544.481381,197.316440L545.241076,205.374495L548.728604,207.949169L557.087481,204.836367Z M696.049835,36.475621L696.743685,27.774509L690.809386,27.538424L686.004214,28.882333L677.905172,37.426537L672.687373,38.965076L670.827551,41.818407L672.999773,43.448233L682.460454,45.029739L689.447232,61.871939L677.935797,66.895092L670.079567,66.160940L661.724253,68.132908L662.048601,70.651291L663.799748,73.819519L666.498682,74.772530L675.730632,74.535790L677.390974,75.683100L677.568120,79.137634L679.012870,81.700147L685.972030,79.696254L694.226435,79.835911L697.238156,84.178011L698.605420,89.007229L696.280986,98.317165L690.720301,114.346717L696.095760,118.393200L697.610399,117.364757L701.399909,106.858640L705.851179,102.457202L707.890774,89.098359L709.197596,87.810428L710.492810,81.208261L712.351440,77.522598L719.031856,55.825496L720.356790,48.017432L714.070994,51.351181L710.269376,51.339057L702.896080,42.951392L697.942570,45.217591L696.049835,36.475621Z M721.369510,39.407280L722.177184,37.384138L722.152658,29.602761L720.877257,22.908213L721.267138,21.843142L725.527898,21.534527L726.381737,18.061481L725.079110,14.286724L716.728997,13.827036L709.725859,28.240633L718.939478,40.843010L721.369510,39.407280Z M742.520356,0.000000L738.550419,3.227496L736.039811,1.976313L733.711767,2.653270L732.585160,4.297422L731.536971,10.676097L733.002723,16.670045L734.245636,17.940482L742.213335,18.321632L742.172568,14.329064L747.172135,3.886369L747.184927,2.465895L744.578151,0.078565L742.520356,0.000000Z " data-name="gb" data-realname="United Kingdom"/></g><g class="" id="cities"><circle cx="682.385757293" cy="746.194130078" data-name="Sunderland" data-realname="Sunderland" r="8"/><circle cx="675.883363889" cy="1267.67944801" data-name="Southampton" data-realname="Southampton" r="8"/><circle cx="554.412487313" cy="1195.63061802" data-name="Bristol" data-realname="Bristol" r="8"/><circle cx="623.849304799" cy="1290.00525496" data-name="Bournemouth" data-realname="Bournemouth" r="8"/><circle cx="413.991129225" cy="1172.10305756" data-name="Swansea" data-realname="Swansea" r="8"/><circle cx="895.083763759" cy="1182.55324643" data-name="Southend-on-Sea" data-realname="Southend-on-Sea" r="8"/><circle cx="719.801783958" cy="1193.01857051" data-name="Reading" data-realname="Reading" r="8"/><circle cx="705.028901864" cy="1041.83868223" data-name="Leicester" data-realname="Leicester" r="8"/><circle cx="643.637287472" cy="890.342826594" data-name="Bradford" data-realname="Bradford" r="8"/><circle cx="668.426052935" cy="946.341392102" data-name="Sheffield" data-realname="Sheffield" r="8"/><circle cx="616.142623816" cy="459.008068572" data-name="Aberdeen" data-realname="Aberdeen" r="8"/><circle cx="523.768122742" cy="547.970778787" data-name="Dundee" data-realname="Dundee" r="8"/><circle cx="697.091406335" cy="789.823230132" data-name="Middlesbrough" data-realname="Middlesbrough" r="8"/><circle cx="667.289255225" cy="1069.07691076" data-name="Coventry" data-realname="Coventry" r="8"/><circle cx="454.759444106" cy="1293.89204512" data-name="Exeter" data-realname="Exeter" r="8"/><circle cx="832.834953124" cy="1097.7067987" data-name="Cambridge" data-realname="Cambridge" r="8"/><circle cx="787.439188323" cy="896.74686976" data-name="Kingston upon Hull" data-realname="Kingston upon Hull" r="8"/><circle cx="711.640972211" cy="868.364842218" data-name="York" data-realname="York" r="8"/><circle cx="512.047937738" cy="886.42450253" data-name="Blackpool" data-realname="Blackpool" r="8"/><circle cx="388.435901349" cy="1335.32363108" data-name="Plymouth" data-realname="Plymouth" r="8"/><circle cx="940.991791253" cy="1114.64623826" data-name="Ipswich" data-realname="Ipswich" r="8"/><circle cx="953.765351417" cy="1041.78833929" data-name="Norwich" data-realname="Norwich" r="8"/><circle cx="803.261147856" cy="1276.82606731" data-name="Brighton" data-realname="Brighton" r="8"/><circle cx="692.250922999" cy="1153.76393904" data-name="Oxford" data-realname="Oxford" r="8"/><circle cx="777.690762519" cy="1139.4170681" data-name="Luton" data-realname="Luton" r="8"/><circle cx="708.938657761" cy="1280.76470833" data-name="Portsmouth" data-realname="Portsmouth" r="8"/><circle cx="795.308418804" cy="1048.27677035" data-name="Peterborough" data-realname="Peterborough" r="8"/><circle cx="701.588578882" cy="997.669387512" data-name="Nottingham" data-realname="Nottingham" r="8"/><circle cx="598.670993641" cy="993.777173052" data-name="Stoke" data-realname="Stoke" r="8"/><circle cx="500.631437856" cy="614.541931283" data-name="Edinburgh" data-realname="Edinburgh" r="8"/><circle cx="660.227604923" cy="735.631153331" data-name="Newcastle" data-realname="Newcastle" r="8"/><circle cx="524.235387486" cy="939.709437434" data-name="Liverpool" data-realname="Liverpool" r="8"/><circle cx="488.347971338" cy="1189.09264093" data-name="Cardiff" data-realname="Cardiff" r="8"/><circle cx="660.695324303" cy="886.223403081" data-name="Leeds" data-realname="Leeds" r="8"/><circle cx="592.456315463" cy="928.794431627" data-name="Manchester" data-realname="Manchester" r="8"/><circle cx="624.172247874" cy="1061.72834438" data-name="Birmingham" data-realname="Birmingham" r="8"/><circle cx="221.183393447" cy="787.298764747" data-name="Belfast" data-realname="Belfast" r="8"/><circle cx="397.549426869" cy="623.734644032" data-name="Glasgow" data-realname="Glasgow" r="8"/><circle cx="808.638223609" cy="1188.83822548" data-name="London" data-realname="London" r="8"/></g></svg>