<?xml version="1.0" encoding="utf-8"?><!DOCTYPE svg  PUBLIC '-//W3C//DTD SVG 1.1//EN'  'http://www.w3.org/Graphics/SVG/1.1/DTD/svg11.dtd'><svg enable_background="new 0 0 1000 415" height="415px" pretty_print="False" style="stroke-linejoin: round; stroke:#000; fill: none;" version="1.1" viewBox="0 0 1000 415" width="1000px" xmlns="http://www.w3.org/2000/svg" xmlns:xlink="http://www.w3.org/1999/xlink"><defs><style type="text/css"><![CDATA[path { fill-rule: evenodd; }]]></style></defs><metadata><views><view h="415.162162474" padding="0" w="1000"><proj flip="auto" id="robinson" lon0="19.6381865783"/><bbox h="30.03" w="72.52" x="219.09" y="-828.62"/></view></views></metadata><g class="" id="bg"><path d="M244.851832,413.162162L303.925463,410.098499L348.215576,407.806278L350.741755,403.442285L356.447164,392.973359L350.256543,383.992438L349.554964,373.436151L355.722570,359.707150L376.527360,348.303806L438.922022,343.290982L474.234170,334.797082L478.522227,323.197245L489.323397,311.752585L500.031132,309.439542L515.565576,314.693515L534.661112,324.794508L551.072257,330.137207L559.986326,326.689215L590.129858,309.681859L625.104307,293.095286L645.563836,248.095314L647.482389,240.929424L674.280155,235.789279L714.288063,236.702816L735.391976,242.558485L751.121459,245.662589L774.069642,244.605860L806.223474,234.941790L818.568378,235.216948L828.863001,242.063159L839.978733,247.963218L847.843638,255.184712L854.334426,265.368406L857.648856,269.210965L862.881538,274.419024L872.074335,281.587418L880.430432,283.503476L940.582116,271.038710L943.937442,268.341147L941.649830,231.551920L965.758463,205.109204L970.862010,191.764782L977.575456,162.840448L983.554241,149.317484L991.332967,138.127548L997.320080,127.291368L998.792743,117.995420L986.880316,116.061704L936.814862,99.880495L902.868940,87.217981L898.701792,78.993959L891.165463,67.083055L876.208437,57.106485L843.566454,48.459626L829.906981,41.712244L778.122952,37.938533L755.824131,37.784958L740.364090,40.571322L730.257785,40.297066L718.367483,57.918581L709.367991,63.032910L695.424874,63.570715L682.821718,60.431777L669.256702,51.158855L648.659093,46.265247L634.438801,48.624209L623.548178,46.605369L614.285210,46.122616L611.298464,47.976854L603.863282,47.713526L593.613188,52.146416L582.571054,58.412430L570.146843,63.186568L561.297674,73.449817L554.577317,93.565327L528.446597,84.549694L520.476746,88.458837L508.894590,91.083400L500.496501,88.370988L501.671326,81.442360L504.503146,73.625463L503.165766,62.703645L499.554840,50.654109L491.348805,46.737030L479.487589,45.288782L473.216718,42.908049L472.152144,38.925811L465.644825,33.814139L453.922078,20.862080L442.445054,4.789803L435.182131,0.000000L426.170036,7.650793L412.203167,16.355532L403.265398,19.370810L387.978939,44.400107L355.911945,45.244896L352.734930,33.550892L348.200680,22.320504L329.109284,19.513356L324.674072,19.864239L314.849752,23.285503L301.924609,24.524680L287.713910,23.855739L277.329689,29.865607L267.926275,39.660798L257.902646,46.440794L252.695086,52.508528L250.067885,58.730691L215.574131,76.457849L211.258775,83.835979L208.208985,93.905777L207.824898,107.503627L206.431812,119.698464L200.811675,126.137533L181.729171,131.665162L177.127144,134.643487L174.049193,140.853392L163.946640,150.427796L151.913485,159.541897L129.166693,169.965893L104.008622,173.133006L70.584519,169.745961L50.889858,165.666342L41.879269,170.141840L30.205255,183.724124L18.386047,207.122628L14.220409,224.717568L13.658793,227.028638L13.436299,235.514120L7.440503,246.201966L1.207257,260.204862L2.777194,272.492121L25.705865,315.079035L45.038731,340.988439L49.144732,350.848836L60.822574,358.429058L65.584482,357.051814L84.135958,358.792652L88.715529,361.271723L91.583112,361.822632L122.966432,385.138452L152.282746,402.670878L175.830546,411.641348L209.295293,412.379714L244.851832,413.162162Z " data-name="sk"/></g><g class="" id="provinces"><path d="M0.000000,278.400026L0.126898,278.655791L1.575008,279.360846L5.207416,279.681327L6.268057,280.182444L8.268192,281.487693L10.249391,283.206682L11.220143,284.995626L10.901598,285.997913L10.313858,287.303232L10.081470,288.445398L10.898956,288.911592L11.421665,289.389443L12.131190,290.519976L12.818106,291.813692L13.130157,292.839352L13.838672,294.168061L15.272115,294.908182L16.954759,295.537580L19.066785,297.052811L20.204576,297.373344L20.939093,298.154281L21.191748,299.133373L21.178592,301.715185L21.347461,302.793385L24.853503,310.894758L26.063474,314.974783L26.511966,319.865153L28.097814,323.380034L32.980770,327.553707L35.554360,328.824486L38.456256,329.197561L40.434207,330.217693L43.482385,334.338827L44.448501,335.644913L46.966898,337.749399L45.302017,339.655702L44.577593,341.940965L43.928729,346.138472L44.665302,346.511589L46.946548,348.021555L46.309396,351.723653L50.588766,353.624288L56.540345,355.367527L61.007508,358.545045L67.250766,355.198449L73.820119,356.376164L81.400906,358.129966L81.407217,358.055478L81.890397,352.347661L84.895749,348.972032L85.797042,348.383198L87.606499,347.491207L88.120455,347.024808L88.270144,346.523431L87.852471,345.578980L87.579940,344.704494L87.487970,343.363624L87.725116,342.908896L88.130299,342.780640L88.623326,343.013833L89.478133,342.943875L90.687396,342.489149L93.238260,340.576981L95.117267,339.539290L95.818938,338.898024L95.871055,338.653177L95.536153,338.221782L95.296212,338.023574L94.968925,337.883662L94.658209,337.825366L91.815961,338.029404L91.419325,337.941959L91.011734,337.732092L89.965129,336.898456L88.439685,335.989040L88.220784,335.715050L88.127179,335.289493L88.133178,334.735687L88.271884,333.802966L88.276301,333.231678L88.175381,332.724515L87.021234,331.307967L87.104134,330.993180L87.447360,330.794981L88.084942,330.783323L92.382230,331.640242L94.384437,331.570289L95.109724,331.401237L96.779332,330.410243L98.041959,329.320159L98.747099,328.824668L99.468980,328.515716L100.122227,328.369984L101.225967,327.985253L101.682723,327.507255L101.868647,327.105038L101.785325,326.796090L101.530706,326.434680L101.132557,326.020808L100.169184,325.187238L99.911438,324.790857L99.707120,324.371161L99.567211,323.741619L99.891159,321.479954L100.283883,320.908715L100.861506,320.541491L101.561694,320.302505L102.617919,319.702126L103.168137,319.544746L103.526034,319.614692L103.705594,319.964427L103.812711,320.331649L104.048316,320.687215L104.416904,321.491612L103.731433,322.715704L103.569867,323.182028L103.658990,323.555088L103.883570,323.788251L104.397967,323.951466L106.833130,324.172971L107.695397,324.499401L109.136679,325.397087L109.937156,325.653570L110.796206,325.636082L115.391029,323.846542L120.717315,320.127637L122.667248,319.591377L123.647744,319.894480L124.267917,319.387365L124.791291,318.425601L125.704878,315.954191L125.859364,314.905021L125.795820,314.205580L125.491814,313.914147L125.081257,313.366254L124.844942,313.208882L124.538079,313.191396L123.797515,313.389569L123.357668,313.028195L122.892404,312.183049L123.019995,309.717586L122.965389,308.709266L122.507014,307.939918L118.676631,306.500317L117.859281,306.360437L117.382547,305.999083L116.956273,305.276377L116.409429,303.224850L116.474333,302.105849L117.207896,300.712941L121.695284,295.759218L111.407089,289.168182L110.093735,286.615789L110.079124,286.149605L110.140289,285.601841L111.303672,283.655554L112.560518,280.707055L112.863986,279.471739L112.782310,278.574397L112.325078,278.119901L111.753925,277.327453L111.105453,276.599104L110.008598,275.614386L109.393270,275.148250L108.667140,274.886049L107.636682,274.833609L107.046231,274.437397L106.254507,273.656630L102.802258,268.610921L101.901063,267.538886L100.407312,266.350340L99.041285,264.736503L98.380266,264.171375L96.574763,263.006173L96.197789,262.516792L96.238603,262.050718L96.558634,261.607949L96.894910,260.734070L96.768381,260.256353L96.188261,259.970888L92.993763,259.883502L92.231873,259.732031L91.708799,259.464046L90.606434,258.613489L89.229677,257.792068L88.688163,257.320191L88.274914,257.040561L87.890703,256.877445L87.480113,256.830840L85.035850,256.865793L82.668179,256.114294L81.829303,253.580214L83.118746,250.993776L85.481437,247.417156L86.276879,246.415262L86.940449,245.791996L88.527409,244.865843L78.092605,236.792999L78.845767,235.022433L78.661441,233.601347L80.577220,232.745213L80.963432,232.424893L81.230952,232.017215L82.220608,229.198464L82.546609,228.825744L83.148241,228.744212L83.733843,228.790802L84.338651,228.744212L84.847685,228.557853L85.382921,228.051191L88.222115,224.475527L89.021422,222.920686L89.809556,220.335175L89.532991,218.215585L88.943423,216.608461L88.182470,215.548708L87.415141,214.721879L86.600999,213.988220L85.925742,213.563167L85.263785,213.283682L83.358618,212.823697L82.977119,212.584972L82.588720,212.270555L82.091238,211.973606L81.215939,211.781464L80.127028,212.584972L78.702527,214.261886L74.287941,221.103832L74.142264,221.429931L73.967555,221.639567L73.699762,221.738562L73.344703,221.790971L72.995457,221.907436L71.976765,222.577111L71.232707,223.223499L70.832611,223.695191L70.598053,224.161062L70.296047,225.104460L70.027974,225.506280L69.696612,225.820750L68.384263,226.612754L66.805830,227.218408L66.069706,227.649358L65.457190,228.324904L64.868004,229.769195L64.151781,230.421464L62.797503,230.753424L60.590542,230.840783L57.447270,231.597890L55.142130,232.850045L47.964183,235.546610L46.930808,235.756281L45.134275,235.278697L37.016647,232.133694L34.633789,231.597890L33.559235,231.656130L34.179583,232.710269L34.422890,233.263552L34.345481,233.636292L33.772889,233.735301L25.732943,234.032330L15.173179,236.822120L14.575528,236.887252L14.293482,238.039224L11.588563,240.636935L8.811524,242.634779L7.670312,244.760814L6.993924,247.760649L2.820600,253.411095L1.278113,256.446169L0.823021,259.667766L0.292787,271.704556L0.000000,272.939305L0.000000,278.400026Z " data-name="SK-" data-state-code="sk"/><path d="M550.243757,155.389561L547.757409,153.911871L546.975336,153.830425L546.011010,153.853695L543.023982,155.121945L540.915429,155.296477L540.459369,155.424468L523.363877,155.110310L518.241598,153.946777L516.571355,153.911871L508.630121,155.889889L506.598706,156.890557L505.936921,156.902193L505.222524,156.675296L504.234125,155.942249L503.711502,155.436103L503.141563,155.005591L502.450575,154.737977L500.642491,154.354011L499.947271,154.045676L498.875702,153.132317L497.430941,152.259692L485.617595,148.722782L471.957861,147.326689L442.485808,151.573237L437.167027,157.693430L433.596119,159.508659L431.903315,161.591582L431.686432,162.441061L431.584379,163.872401L431.465072,164.326247L431.254522,164.698636L430.933437,165.071028L430.053504,165.652893L429.104544,165.920553L421.933398,166.863190L421.378355,166.839915L421.031910,166.694445L421.350786,165.757629L421.515701,165.478333L421.753697,165.373597L422.382106,165.303773L422.563646,165.187400L422.563049,164.640450L422.394573,163.802579L421.906972,162.004683L421.463976,161.184301L420.998426,160.683931L420.422086,160.451202L420.090838,160.183565L419.732544,159.380660L419.445862,159.008302L418.025304,158.985030L388.914630,162.522519L380.409593,162.115232L378.757129,166.095114L378.288407,166.653714L377.506817,167.398520L374.674158,168.632125L374.341138,169.167471L374.444883,169.923944L375.691998,172.705514L375.990113,174.020690L375.920252,174.975081L375.316419,175.842193L374.843298,176.360137L374.691173,177.046856L374.957598,178.047849L376.140608,179.642484L378.699352,181.446678L378.978581,181.749322L379.161703,182.471016L379.189898,183.576852L378.875327,186.225111L378.597926,187.592933L376.540650,191.341482L361.293759,190.596413L358.220382,190.002692L358.106653,189.694191L357.629751,189.071374L357.270065,188.791981L357.022150,188.524231L356.737297,188.163351L356.553762,187.709344L356.287277,187.255340L355.948295,186.906109L353.821973,187.488163L346.626800,191.970140L346.665394,193.471957L346.486362,193.896895L346.182918,194.461543L345.648464,195.206652L343.890755,198.955600L341.733548,202.122563L341.133056,202.483512L340.325079,202.704740L337.705181,202.786245L336.751917,203.217060L335.987578,204.160203L332.410335,210.896450L331.792640,211.647547L329.428198,213.487473L328.875599,214.058092L328.619350,214.547197L329.200467,216.515295L329.262176,217.423664L328.095072,217.656581L327.102210,217.691519L317.109053,215.502126L312.930870,221.255235L310.527662,223.852422L309.793980,224.842404L309.391659,225.541221L309.181381,226.222575L309.111024,226.636048L309.146276,226.997111L309.208641,227.352352L309.242184,227.695947L309.224338,228.080309L308.759654,229.559539L308.683008,229.908967L308.676502,230.409817L291.367757,232.255997L289.699454,235.896063L292.625868,239.233412L293.913802,239.949823L294.316148,240.672064L293.980384,241.207925L291.610611,243.904751L290.645866,245.669674L290.503183,246.485161L290.975664,246.788058L295.246463,245.984218L296.825246,245.984218L298.373664,246.432737L299.044608,247.067657L299.504125,248.092858L299.552661,249.164672L299.512991,250.184073L299.349994,251.646204L299.492944,252.263684L299.830422,252.601553L300.872386,252.776313L301.008047,253.032628L300.825944,253.440404L299.490196,255.094828L299.075411,255.770587L299.089385,257.250284L299.761974,258.473672L301.479359,260.757373L302.017979,262.027414L302.148261,263.373210L302.076634,264.637460L302.313953,265.371547L302.732391,265.686158L303.263466,265.732767L304.090296,265.971639L305.152249,266.921306L306.721316,269.100332L307.726868,272.042675L308.121785,273.831428L308.099821,275.323050L307.817034,276.698159L307.451693,277.793598L306.822139,278.737549L306.268520,279.320239L305.155159,280.136011L304.891264,280.561380L304.778372,281.114945L304.697136,281.709302L304.388446,282.245392L303.994308,282.758176L302.621250,284.045974L301.833391,285.077389L303.879763,287.606436L304.690725,287.676365L305.177505,286.685717L305.631668,286.219532L306.794014,285.333788L307.115106,284.925881L308.129409,283.370024L309.493202,281.989001L311.685747,281.342199L322.754489,279.879625L328.341701,278.318014L328.725174,277.700369L328.841604,277.187609L328.825580,276.453435L328.896683,275.760054L329.601964,275.031716L329.923904,274.542276L330.092311,273.994573L330.112865,273.446872L330.293177,273.021533L331.236596,272.083460L331.780379,271.122091L332.223041,270.545274L334.590873,268.395348L336.115877,266.699911L337.060065,266.152250L337.837570,265.884247L339.990019,266.356166L345.751944,272.741858L350.711911,276.022256L351.929322,277.129341L360.268693,290.636708L359.396629,297.023854L359.118164,297.863068L358.667157,298.923749L356.655697,300.765394L354.854820,303.061661L354.295947,304.157358L354.262916,304.955824L356.042766,306.418720L356.076912,306.768419L355.859623,307.100634L355.243181,307.607700L355.189073,308.190538L355.575076,309.018172L357.261970,311.232995L358.126861,312.701793L358.221170,313.383740L358.008370,313.762602L357.183292,314.123978L356.511839,314.922507L355.435393,315.837616L354.569464,317.015026L354.387304,317.994267L354.516747,319.323247L354.887647,320.471544L355.311001,321.398349L355.930895,322.062854L356.404566,322.365963L356.885564,322.459227L357.321200,322.371792L357.734683,322.057025L358.050678,321.596534L358.390927,320.815452L358.794144,320.395768L359.352052,320.139295L360.125858,320.104321L361.020931,320.174268L362.039553,320.372452L362.823157,320.722189L366.500505,323.036302L367.401502,323.450165L368.166983,323.613379L368.668382,323.630866L369.626896,323.496798L370.156625,323.520114L371.634381,323.869858L372.532991,323.974782L373.414494,323.904833L375.091145,323.450165L375.900884,323.403533L377.022722,323.520114L377.352421,323.485140L377.505847,323.351071L377.592326,323.100421L377.632191,322.657414L377.783423,321.934616L378.247168,321.001979L378.742887,320.395768L379.291498,320.046032L380.591834,319.719613L381.232838,319.463141L381.860668,319.072605L383.265666,318.682071L384.454705,318.542178L385.370924,318.262393L387.760035,317.154918L390.697920,316.548724L391.315613,316.338889L391.807159,316.257286L392.879069,316.432149L393.490824,316.443806L394.380185,316.362204L395.228098,315.954191L396.113095,315.359660L398.778464,313.121452L401.418706,315.406290L401.677600,315.779329L401.957232,316.362204L401.939734,316.746902L402.006536,317.423042L401.993637,317.854375L401.845407,318.320682L401.136020,319.288274L400.840204,319.946940L400.569683,320.862083L400.233377,322.517518L400.409084,323.735790L401.899455,327.868668L401.969639,329.425086L401.483306,330.969863L400.322996,332.438873L399.365405,333.429879L398.616352,334.001169L397.774210,334.473359L397.162226,335.027164L396.723145,335.645096L396.295731,336.758545L394.516422,339.282783L394.257574,340.040646L394.586733,342.827279L394.976203,344.908540L394.992287,344.994490L398.526138,345.135724L409.117939,343.812340L431.566619,346.103492L433.496083,345.765356L443.622891,339.970507L467.847789,340.401907L476.860638,334.653892L477.020938,333.487992L476.993736,332.298784L476.777876,331.074609L476.375725,329.838786L476.304925,329.687224L476.253811,329.547320L476.280260,329.442392L476.325220,329.337464L478.094164,325.769971L478.896793,317.038160L480.526380,313.756591L483.463359,312.246981L499.553843,308.557545L501.464580,308.610001L503.304110,309.052961L505.487534,310.510077L509.785694,314.560947L511.660677,315.347821L519.774577,313.995566L524.034181,314.578433L527.549755,317.830877L527.869106,320.045850L527.050584,321.992724L526.801447,323.898822L528.704516,326.038113L530.426377,326.224647L536.672392,324.143644L541.198659,325.326955L548.544368,330.526649L552.388608,331.727501L556.474666,330.421720L563.922847,324.038720L567.827348,321.887802L574.451381,320.092481L575.013843,319.785411L581.753433,316.105556L585.024781,315.003927L586.402351,314.018880L587.505761,312.002181L588.063141,307.945564L588.600621,306.360255L590.605050,304.122207L592.113462,303.865766L594.004346,304.436930L597.178080,304.716684L600.057354,303.597670L605.017864,299.401459L606.955352,298.655481L610.683961,300.170753L612.896636,302.041558L615.142173,302.816697L619.040657,301.021645L623.772699,296.615723L627.638997,290.857972L630.684196,284.348806L635.731433,266.449203L637.427639,262.947731L639.790041,259.982358L644.705838,255.157991L644.597062,255.094828L641.406893,253.242341L637.494528,253.271468L636.234107,253.661769L633.286535,255.118130L631.826222,255.193862L628.993854,254.873460L621.505774,255.409405L620.692409,255.316197L620.609764,255.059875L620.710532,254.704521L620.891313,254.320041L621.178570,253.894785L621.278700,253.533611L620.816081,253.090882L617.504319,251.471446L616.568209,250.743291L616.048883,250.026793L616.043030,249.450103L616.120891,248.879242L616.024497,248.232659L615.764997,247.615206L615.044222,246.566710L614.738466,245.774522L614.585277,244.854194L614.765341,243.421297L615.119744,242.326253L615.665479,241.207925L616.527355,239.938174L616.909416,239.017907L617.642632,233.682884L617.977993,232.413245L618.305120,231.586243L618.698147,230.858254L619.109785,230.304987L619.386086,229.780843L619.586496,229.064518L619.965873,226.135221L620.299936,224.597819L620.178326,224.236767L619.764055,223.986360L618.130951,223.468080L616.562902,222.780927L615.935938,222.612051L613.964958,222.384943L612.656958,222.058840L610.977111,221.360053L610.256976,220.835966L609.907832,220.416699L609.825529,219.904265L609.858895,219.438419L609.981492,219.030805L610.104083,218.623194L608.444256,214.477325L603.771967,205.435211L602.617442,203.775957L592.776461,197.436205L592.349099,197.232457L590.311295,196.883176L588.779287,195.742205L587.941624,194.368405L587.021708,191.702378L586.823828,190.363580L586.855450,189.362409L587.208212,188.780340L587.749548,188.151710L588.610248,187.406675L589.371808,186.510314L590.014022,185.532480L589.805625,184.356769L589.043056,182.133448L588.882452,180.369976L588.760596,178.193343L588.811491,177.634647L588.792794,176.942102L588.509436,175.842193L589.143431,174.532800L596.401841,164.035320L600.333902,162.999629L592.676609,159.444660L591.285136,158.577766L590.272031,158.147232L586.679674,157.193088L583.269109,155.785169L582.083134,155.802622L579.539126,157.844697L576.181928,158.054145L550.243757,155.389561Z " data-name="SK-" data-state-code="sk"/><path d="M434.142161,0.000000L433.855329,0.570130L419.946411,14.526663L418.707788,15.478148L416.283198,16.313616L414.474901,16.557298L409.005040,16.510882L405.657180,17.114289L402.882164,18.286314L400.508421,20.317125L398.420459,23.508593L396.336635,30.797616L396.675119,31.052986L397.313977,31.726240L397.773766,32.794182L397.507616,34.291665L396.769338,34.779228L394.590619,34.825663L394.086496,34.918533L393.293345,39.295245L393.124956,42.093312L392.026866,43.892989L386.744790,45.704348L382.360067,46.435879L380.513708,46.331374L378.732313,45.611456L374.988919,43.486604L373.307513,43.022169L369.512618,43.776879L362.987047,47.074526L358.519608,47.364823L354.995545,46.830678L353.744892,44.299378L353.721434,36.915283L352.920547,33.583547L351.745768,30.542248L351.233062,27.338662L352.403108,23.555016L347.001101,20.967006L329.293543,19.632441L322.047232,19.794908L318.834051,20.839350L312.114248,26.363704L307.166466,26.595835L301.898278,25.295917L295.839032,22.881887L294.588953,22.672986L293.381141,22.881887L288.541235,25.087005L280.595461,24.146915L277.136617,26.050329L276.404910,27.895791L276.384380,32.074479L275.683416,34.047885L274.338933,35.278406L268.762920,37.867253L261.964517,45.506953L258.196468,47.666735L252.924193,46.702949L253.082479,49.428015L253.543293,57.375376L249.623573,60.088041L250.552586,61.103927L253.833089,61.963468L254.060843,63.705828L254.156221,64.112388L254.311873,64.571224L254.544418,64.971983L266.989324,80.069624L267.506924,80.842347L267.783873,81.411730L267.734016,81.742904L267.515399,82.318107L267.514901,82.591185L267.694180,83.009521L268.715025,84.409808L268.955778,84.892074L269.075905,85.269755L269.069068,85.478933L269.394827,85.984452L271.962402,89.360511L273.045387,90.458794L274.117996,91.266542L278.624486,93.614311L278.906558,93.678237L279.513162,93.678237L279.964135,93.777031L280.576630,94.114097L282.893009,95.782023L283.688856,96.206277L284.401903,96.444559L285.415401,96.653782L288.924847,98.391533L289.874360,99.065725L291.475487,100.745432L292.108759,101.843955L292.354515,103.483062L292.330883,104.354947L292.585370,105.250098L292.828722,105.755807L295.239870,108.551822L290.872686,112.725767L290.291286,113.539664L290.583413,113.981500L290.894397,114.057077L291.611732,114.057077L294.222107,114.690769L294.592364,114.900064L295.045437,115.202379L295.469810,115.586090L295.807951,115.934920L296.378619,116.958167L296.624759,117.213982L296.892721,117.411658L297.613719,117.725615L297.935720,117.911664L298.268119,118.202368L298.517742,118.493073L298.607580,118.841921L298.592816,119.248914L298.406944,120.155936L298.389857,120.539680L298.450934,120.876912L298.590179,121.167631L298.651256,121.504867L298.604254,121.865363L298.363023,122.493329L298.243605,122.958494L298.262167,123.423662L299.083065,126.412458L298.822381,127.680128L298.061411,129.192063L295.992755,131.995063L294.142147,134.030521L292.596134,135.147146L287.356211,136.415005L286.308658,136.990785L285.342077,137.828293L283.895634,140.242011L282.961036,141.126097L282.293486,141.637941L277.317450,144.203047L278.498462,146.012064L280.112216,146.977671L283.393738,147.489565L285.946843,148.175975L286.647597,148.280682L287.949213,148.036365L292.479258,145.709588L293.600809,144.761451L294.160174,143.993646L294.175784,143.592297L294.248342,143.208401L294.490022,142.859406L296.603206,140.771298L297.026588,140.771298L297.501156,141.102831L298.787963,142.946655L299.160735,143.365449L300.904447,143.406165L306.507522,141.986929L314.074702,143.574847L317.508210,143.854046L318.550335,144.336831L319.282933,144.761451L323.230256,148.629708L322.413580,149.304497L322.124958,149.734969L321.695913,150.142175L321.362878,150.403953L321.021743,150.584289L320.767511,150.805346L320.657156,151.084578L320.611287,151.456889L320.491798,151.922281L320.291749,152.410947L319.856378,153.033419L319.656879,153.527910L319.797607,154.388917L321.160436,157.821425L321.356485,158.961758L321.390715,159.863566L321.026734,161.207574L320.974499,161.795223L321.037390,162.429424L321.388755,163.465106L321.498244,164.012046L321.497782,164.564809L321.390394,165.990377L321.544880,167.270506L322.003249,167.992045L322.832990,168.835789L327.171877,171.902455L327.667685,172.164320L328.096681,172.309802L328.946022,172.513477L329.436076,172.717152L330.116770,173.077950L330.575734,173.246711L331.340460,173.432931L334.383309,175.685064L335.483945,176.191368L336.044970,176.552185L336.120487,176.755873L335.747483,177.174889L335.692401,177.733582L335.849303,178.478513L336.532869,180.073158L337.281959,181.213876L338.622718,182.744563L345.346704,189.106298L345.942667,189.816427L346.626800,191.970140L353.821973,187.488163L355.948295,186.906109L356.287277,187.255340L356.553762,187.709344L356.737297,188.163351L357.022150,188.524231L357.270065,188.791981L357.629751,189.071374L358.106653,189.694191L358.220382,190.002692L361.293759,190.596413L376.540650,191.341482L378.597926,187.592933L378.875327,186.225111L379.189898,183.576852L379.161703,182.471016L378.978581,181.749322L378.699352,181.446678L376.140608,179.642484L374.957598,178.047849L374.691173,177.046856L374.843298,176.360137L375.316419,175.842193L375.920252,174.975081L375.990113,174.020690L375.691998,172.705514L374.444883,169.923944L374.341138,169.167471L374.674158,168.632125L377.506817,167.398520L378.288407,166.653714L378.757129,166.095114L380.409593,162.115232L388.914630,162.522519L418.025304,158.985030L419.445862,159.008302L419.732544,159.380660L420.090838,160.183565L420.422086,160.451202L420.998426,160.683931L421.463976,161.184301L421.906972,162.004683L422.394573,163.802579L422.563049,164.640450L422.563646,165.187400L422.382106,165.303773L421.753697,165.373597L421.515701,165.478333L421.350786,165.757629L421.031910,166.694445L421.378355,166.839915L421.933398,166.863190L429.104544,165.920553L430.053504,165.652893L430.933437,165.071028L431.254522,164.698636L431.465072,164.326247L431.584379,163.872401L431.686432,162.441061L431.903315,161.591582L433.596119,159.508659L437.167027,157.693430L442.485808,151.573237L471.957861,147.326689L485.617595,148.722782L497.430941,152.259692L498.875702,153.132317L499.947271,154.045676L500.642491,154.354011L502.450575,154.737977L503.141563,155.005591L503.711502,155.436103L504.234125,155.942249L505.222524,156.675296L505.936921,156.902193L506.598706,156.890557L508.630121,155.889889L516.571355,153.911871L518.241598,153.946777L523.363877,155.110310L540.459369,155.424468L540.915429,155.296477L543.023982,155.121945L546.011010,153.853695L546.975336,153.830425L547.757409,153.911871L550.243757,155.389561L556.081032,153.132317L557.855724,151.899011L559.618753,150.211983L559.906900,149.287045L559.437466,148.769319L557.433901,148.455195L556.520394,148.175975L555.916024,147.687343L555.464985,147.082376L554.984852,146.204021L554.029682,143.976196L553.573059,142.021828L552.879226,140.951605L551.925403,140.032625L550.755683,139.160188L543.968944,132.547538L543.702450,131.599611L543.835647,131.035515L544.400472,130.895945L545.694307,131.035515L546.656726,131.000622L548.507182,130.232995L549.682959,130.128320L550.282175,129.535162L550.467629,128.168595L550.330408,125.330891L550.841338,122.103757L550.861444,120.225707L550.650647,117.737243L551.045189,111.109633L550.719274,109.354032L550.121884,108.412309L549.191458,108.482065L548.280315,108.732027L545.952894,109.667943L542.523732,110.191133L541.834067,110.191133L541.211292,109.784207L540.596250,109.191264L539.953909,108.342552L539.404965,108.110030L538.983466,108.296048L538.556714,108.691336L537.983914,108.493691L537.208059,107.685681L535.865256,105.441918L534.852353,104.221257L533.694184,103.448186L532.560669,103.250561L531.278004,103.378436L530.625660,103.727188L530.078965,104.291009L529.792582,104.709519L529.307252,104.814146L528.696447,104.517701L527.736495,103.273811L527.362901,101.838142L526.984708,99.065725L526.098588,96.961807L525.024110,95.160177L520.702591,89.883500L520.437641,89.182037L518.163274,91.324472L514.340004,92.533213L506.087678,92.021819L501.458580,90.662001L498.882742,88.035446L498.884860,88.019861L499.285302,85.072017L505.045027,75.985247L505.778131,75.450783L506.888725,75.183552L507.864313,74.683952L508.151901,73.417546L507.717219,72.441622L507.646316,72.385134L506.171499,71.210127L506.116701,71.127678L505.777712,70.617626L505.758381,70.606496L503.175003,69.118979L502.470056,68.363865L502.470217,68.346317L502.478787,67.411275L503.658427,65.726863L503.836075,64.809174L501.629200,53.937637L500.330153,50.198219L498.223895,45.948191L498.184659,45.925187L496.481099,44.926384L490.744658,46.900349L487.179058,47.202257L483.268860,46.853902L472.757029,43.980480L472.759463,43.913555L472.855589,41.268968L472.371748,37.751158L472.517443,36.532179L473.192587,35.115882L466.085239,35.057839L462.291287,34.233622L459.039955,32.295032L457.952812,30.693147L454.333057,23.543410L449.903664,12.217658L447.279295,7.704438L442.876304,5.430608L441.413749,4.258938L438.028793,0.000000L434.142161,0.000000Z " data-name="SK-" data-state-code="sk"/><path d="M272.420397,413.162162L280.877688,410.149766L317.286885,406.522535L325.385277,407.018216L332.148419,409.461639L337.594810,410.348040L342.782180,409.881513L346.941124,407.589707L352.325046,401.834018L355.252831,399.874659L359.227175,398.964960L363.516291,397.642189L363.784084,397.559598L356.474458,393.296903L350.808112,388.946805L349.233326,384.719234L349.220832,379.966947L350.120733,370.649255L349.276314,368.042939L347.947596,367.139191L347.626289,366.305414L349.726343,363.874070L351.279128,363.069459L354.713919,362.568037L356.297740,361.320317L360.279908,352.901344L363.200726,350.744192L379.932457,347.509838L388.412888,345.870295L390.940854,344.832569L394.992287,344.994490L394.976203,344.908540L394.586733,342.827279L394.257574,340.040646L394.516422,339.282783L396.295731,336.758545L396.723145,335.645096L397.162226,335.027164L397.774210,334.473359L398.616352,334.001169L399.365405,333.429879L400.322996,332.438873L401.483306,330.969863L401.969639,329.425086L401.899455,327.868668L400.409084,323.735790L400.233377,322.517518L400.569683,320.862083L400.840204,319.946940L401.136020,319.288274L401.845407,318.320682L401.993637,317.854375L402.006536,317.423042L401.939734,316.746902L401.957232,316.362204L401.677600,315.779329L401.418706,315.406290L398.778464,313.121452L396.113095,315.359660L395.228098,315.954191L394.380185,316.362204L393.490824,316.443806L392.879069,316.432149L391.807159,316.257286L391.315613,316.338889L390.697920,316.548724L387.760035,317.154918L385.370924,318.262393L384.454705,318.542178L383.265666,318.682071L381.860668,319.072605L381.232838,319.463141L380.591834,319.719613L379.291498,320.046032L378.742887,320.395768L378.247168,321.001979L377.783423,321.934616L377.632191,322.657414L377.592326,323.100421L377.505847,323.351071L377.352421,323.485140L377.022722,323.520114L375.900884,323.403533L375.091145,323.450165L373.414494,323.904833L372.532991,323.974782L371.634381,323.869858L370.156625,323.520114L369.626896,323.496798L368.668382,323.630866L368.166983,323.613379L367.401502,323.450165L366.500505,323.036302L362.823157,320.722189L362.039553,320.372452L361.020931,320.174268L360.125858,320.104321L359.352052,320.139295L358.794144,320.395768L358.390927,320.815452L358.050678,321.596534L357.734683,322.057025L357.321200,322.371792L356.885564,322.459227L356.404566,322.365963L355.930895,322.062854L355.311001,321.398349L354.887647,320.471544L354.516747,319.323247L354.387304,317.994267L354.569464,317.015026L355.435393,315.837616L356.511839,314.922507L357.183292,314.123978L358.008370,313.762602L358.221170,313.383740L358.126861,312.701793L357.261970,311.232995L355.575076,309.018172L355.189073,308.190538L355.243181,307.607700L355.859623,307.100634L356.076912,306.768419L356.042766,306.418720L354.262916,304.955824L354.295947,304.157358L354.854820,303.061661L356.655697,300.765394L358.667157,298.923749L359.118164,297.863068L359.396629,297.023854L360.268693,290.636708L351.929322,277.129341L350.711911,276.022256L345.751944,272.741858L339.990019,266.356166L337.837570,265.884247L337.060065,266.152250L336.115877,266.699911L334.590873,268.395348L332.223041,270.545274L331.780379,271.122091L331.236596,272.083460L330.293177,273.021533L330.112865,273.446872L330.092311,273.994573L329.923904,274.542276L329.601964,275.031716L328.896683,275.760054L328.825580,276.453435L328.841604,277.187609L328.725174,277.700369L328.341701,278.318014L322.754489,279.879625L311.685747,281.342199L309.493202,281.989001L308.129409,283.370024L307.115106,284.925881L306.794014,285.333788L305.631668,286.219532L305.177505,286.685717L304.690725,287.676365L303.879763,287.606436L301.833391,285.077389L302.621250,284.045974L303.994308,282.758176L304.388446,282.245392L304.697136,281.709302L304.778372,281.114945L304.891264,280.561380L305.155159,280.136011L306.268520,279.320239L306.822139,278.737549L307.451693,277.793598L307.817034,276.698159L308.099821,275.323050L308.121785,273.831428L307.726868,272.042675L306.721316,269.100332L305.152249,266.921306L304.090296,265.971639L303.263466,265.732767L302.732391,265.686158L302.313953,265.371547L302.076634,264.637460L302.148261,263.373210L302.017979,262.027414L301.479359,260.757373L299.761974,258.473672L299.089385,257.250284L299.075411,255.770587L299.490196,255.094828L300.825944,253.440404L301.008047,253.032628L300.872386,252.776313L299.830422,252.601553L299.492944,252.263684L299.349994,251.646204L299.512991,250.184073L299.552661,249.164672L299.504125,248.092858L299.044608,247.067657L298.373664,246.432737L296.825246,245.984218L295.246463,245.984218L290.975664,246.788058L290.503183,246.485161L290.645866,245.669674L291.610611,243.904751L293.980384,241.207925L294.316148,240.672064L293.913802,239.949823L292.625868,239.233412L289.699454,235.896063L277.735582,242.285481L272.425391,246.485161L269.920596,247.801607L269.613955,248.069558L269.523869,248.285085L269.497017,248.582163L269.289969,248.733615L268.913359,248.850117L267.629096,247.976357L266.328115,246.543411L265.980072,246.380312L265.607956,246.543411L265.213690,247.341431L264.904728,248.162759L264.811816,248.349161L263.586317,248.279260L259.081389,246.939507L256.572825,241.860281L254.575133,238.738334L253.702312,238.010284L250.024186,236.035844L248.999109,235.162213L248.316551,234.684632L247.600367,234.434194L245.463016,234.474963L244.668803,234.276942L244.158011,233.857607L244.002405,232.809277L243.371976,232.296765L242.882219,231.807552L242.434330,230.887374L242.431872,229.413944L243.656923,227.171819L244.993207,225.226753L245.823518,223.107033L245.600651,221.744385L243.968310,219.729572L241.789500,218.075834L238.622986,217.377081L230.538769,213.673797L228.940775,212.008541L226.685938,208.969251L225.640698,207.874671L221.407119,204.486230L219.869822,203.741026L206.944993,201.447243L206.609723,201.121229L206.353543,200.172303L206.321424,199.543574L206.219606,199.054566L205.664182,198.740205L205.115962,198.501525L201.376074,198.245381L200.184430,199.095316L199.388244,200.032585L199.281371,200.655497L199.379161,201.394848L199.900604,202.809532L200.156024,203.752670L200.329552,204.707464L200.447052,206.238652L200.646640,206.884904L200.877832,207.280809L201.054868,207.397253L201.245151,207.653428L201.442611,207.985293L201.704165,208.701427L202.617951,210.168650L202.745184,210.343322L202.892360,210.436480L203.179537,210.547105L203.272480,210.651909L203.472166,211.007076L203.654743,211.181749L203.894869,211.379713L204.079104,211.571854L204.309067,211.857156L204.738911,213.277859L204.969919,214.547197L205.011699,215.571999L204.795784,216.992770L204.590440,217.551769L204.227258,217.807978L203.421482,217.481894L202.926754,217.225686L202.223750,217.400373L201.779180,217.674050L198.645775,220.830143L199.223425,222.256831L199.451289,222.617875L199.663029,223.101209L199.318977,223.561254L198.456137,224.097005L190.462535,226.903933L188.984123,227.078641L187.866959,226.973816L185.465133,225.669339L184.872795,225.453869L184.334340,225.418928L183.639923,226.571989L179.268333,238.412167L178.981829,238.901418L176.173222,241.836983L184.366384,245.238633L184.870938,245.302707L185.562416,245.588125L189.757640,248.285085L198.345071,255.071526L194.779468,258.706700L183.949151,277.863520L181.216831,280.380744L180.714416,283.725480L180.553226,284.378124L180.451189,285.269688L180.443732,286.184569L180.044462,289.949062L179.822283,290.543468L179.496343,290.916430L179.061617,291.312703L179.346196,291.988702L179.641218,292.478221L184.606467,295.969018L183.558490,297.828100L182.894382,298.743083L182.651388,299.413297L182.716357,299.914504L183.176676,300.590553L183.235039,301.219981L182.779243,301.989287L182.321995,302.443879L182.182268,303.131599L182.423256,303.935887L183.291919,305.725154L183.880123,306.383751L184.385843,306.750934L184.837898,306.838359L185.339851,307.164746L187.260523,308.726751L187.938552,309.455305L188.327566,310.358718L188.413298,311.582707L188.009534,313.214710L187.530091,314.030720L186.832588,314.590272L184.041899,316.024136L182.171820,317.411385L181.706978,317.487159L181.327301,317.283151L178.591366,314.706846L178.074578,314.520328L177.717015,314.555300L177.082149,314.893364L175.879499,315.394633L175.999553,316.094081L176.567128,317.131602L178.324492,319.632179L178.997461,320.908715L179.033599,322.202750L178.689467,323.286951L178.391827,323.671670L177.979909,324.021415L177.502784,324.266237L176.963144,324.435281L176.465054,324.452768L175.953534,324.324528L174.662113,323.665841L173.367258,323.170370L172.719112,323.065447L171.784925,323.170370L168.929713,324.120509L168.299454,324.814173L168.455608,325.606937L176.996912,332.940205L178.111557,334.490847L178.197806,336.332985L177.013334,339.457674L176.758305,340.308813L176.934784,341.020042L177.486178,341.579700L178.787623,342.442511L179.587863,342.687363L180.553581,342.617405L183.417818,341.748764L184.488694,341.614679L185.069979,341.894509L185.476345,342.687363L184.918498,344.471298L184.915562,345.042628L185.226093,345.398253L186.064693,345.957926L186.654895,346.132824L187.926550,346.266913L188.698072,346.500111L189.034644,346.535091L189.645781,346.535091L190.102072,346.663350L190.601201,346.954848L191.129557,347.864327L191.295879,349.065312L190.914344,353.968452L192.885996,361.798597L192.978979,367.640807L194.377669,368.643679L194.662280,369.320037L194.937337,370.194641L194.931192,371.034265L194.746440,371.745615L194.454764,372.503614L194.367760,375.185786L195.721930,376.911722L196.374496,377.961285L196.227643,378.783446L195.171768,379.698905L192.318637,381.331580L188.350953,384.561977L186.551471,387.081016L185.266602,387.932364L184.599034,388.235584L184.228944,388.142286L183.768933,388.282234L183.277814,388.690416L182.385365,389.576756L181.816388,390.655529L181.315105,392.171651L181.701773,397.017464L181.025428,397.938819L179.814652,399.000131L176.651177,401.227731L175.238138,401.904178L174.233085,402.172425L173.803537,402.038301L173.408179,401.974155L173.018126,401.968324L172.650593,401.904178L171.894858,401.548460L171.460292,401.460988L171.086142,401.834201L170.785109,402.603953L169.984897,407.887298L169.438408,409.531800L168.135453,410.814750L168.098922,410.850719L172.353033,412.721507L174.301844,413.162162L272.420397,413.162162Z " data-name="SK-" data-state-code="sk"/><path d="M346.626800,191.970140L345.942667,189.816427L345.346704,189.106298L338.622718,182.744563L337.281959,181.213876L336.532869,180.073158L335.849303,178.478513L335.692401,177.733582L335.747483,177.174889L336.120487,176.755873L336.044970,176.552185L335.483945,176.191368L334.383309,175.685064L331.340460,173.432931L330.575734,173.246711L330.116770,173.077950L329.436076,172.717152L328.946022,172.513477L328.096681,172.309802L327.667685,172.164320L327.171877,171.902455L322.832990,168.835789L322.003249,167.992045L321.544880,167.270506L321.390394,165.990377L321.497782,164.564809L321.498244,164.012046L321.388755,163.465106L321.037390,162.429424L320.974499,161.795223L321.026734,161.207574L321.390715,159.863566L321.356485,158.961758L321.160436,157.821425L319.797607,154.388917L319.656879,153.527910L319.856378,153.033419L320.291749,152.410947L320.491798,151.922281L320.611287,151.456889L320.657156,151.084578L320.767511,150.805346L321.021743,150.584289L321.362878,150.403953L321.695913,150.142175L322.124958,149.734969L322.413580,149.304497L323.230256,148.629708L319.282933,144.761451L318.550335,144.336831L317.508210,143.854046L314.074702,143.574847L306.507522,141.986929L300.904447,143.406165L299.160735,143.365449L298.787963,142.946655L297.501156,141.102831L297.026588,140.771298L296.603206,140.771298L294.490022,142.859406L294.248342,143.208401L294.175784,143.592297L294.160174,143.993646L293.600809,144.761451L292.479258,145.709588L287.949213,148.036365L286.647597,148.280682L285.946843,148.175975L283.393738,147.489565L280.112216,146.977671L278.498462,146.012064L277.317450,144.203047L282.293486,141.637941L282.961036,141.126097L283.895634,140.242011L285.342077,137.828293L286.308658,136.990785L287.356211,136.415005L292.596134,135.147146L294.142147,134.030521L295.992755,131.995063L298.061411,129.192063L298.822381,127.680128L299.083065,126.412458L298.262167,123.423662L298.243605,122.958494L298.363023,122.493329L298.604254,121.865363L298.651256,121.504867L298.590179,121.167631L298.450934,120.876912L298.389857,120.539680L298.406944,120.155936L298.592816,119.248914L298.607580,118.841921L298.517742,118.493073L298.268119,118.202368L297.935720,117.911664L297.613719,117.725615L296.892721,117.411658L296.624759,117.213982L296.378619,116.958167L295.807951,115.934920L295.469810,115.586090L295.045437,115.202379L294.592364,114.900064L294.222107,114.690769L291.611732,114.057077L290.894397,114.057077L290.583413,113.981500L290.291286,113.539664L290.872686,112.725767L295.239870,108.551822L292.828722,105.755807L292.585370,105.250098L292.330883,104.354947L292.354515,103.483062L292.108759,101.843955L291.475487,100.745432L289.874360,99.065725L288.924847,98.391533L285.415401,96.653782L284.401903,96.444559L283.688856,96.206277L282.893009,95.782023L280.576630,94.114097L279.964135,93.777031L279.513162,93.678237L278.906558,93.678237L278.624486,93.614311L274.117996,91.266542L273.045387,90.458794L271.962402,89.360511L269.394827,85.984452L269.069068,85.478933L269.075905,85.269755L268.955778,84.892074L268.715025,84.409808L267.694180,83.009521L267.514901,82.591185L267.515399,82.318107L267.734016,81.742904L267.783873,81.411730L267.506924,80.842347L266.989324,80.069624L254.544418,64.971983L254.311873,64.571224L254.156221,64.112388L254.060843,63.705828L253.833089,61.963468L250.552586,61.103927L249.623573,60.088041L243.471907,64.344528L220.315446,72.058229L215.480701,76.159530L211.761810,81.922836L209.102842,88.779236L207.558776,96.159602L207.500326,102.192515L207.662023,103.545919L208.862068,113.597619L208.162589,118.539404L204.966499,123.737471L200.113511,127.796247L194.423481,130.052539L184.813828,129.436121L180.561192,129.994386L177.016532,131.994881L175.035725,135.926287L174.249368,139.264698L173.531660,146.232923L172.370083,149.315949L169.345368,151.980274L165.954192,152.143162L162.147056,151.607959L157.823921,152.236241L155.139096,154.225841L149.818560,163.045995L146.873153,165.222130L132.846424,169.972573L113.671501,176.464709L107.069522,175.615048L101.170790,170.808266L98.476161,169.760829L94.334262,170.796628L91.230328,172.585013L90.850164,173.974134L89.536761,177.221447L87.828528,179.386409L82.652396,183.832943L86.694263,185.095951L88.889861,185.520839L89.442835,185.520839L89.875587,185.416072L90.415553,184.973724L93.123706,181.854083L94.018012,181.958845L95.035148,182.796945L97.423216,185.311305L99.257807,186.917749L99.549322,187.080724L99.872781,187.290263L100.250471,187.488163L100.650450,187.627856L102.200204,187.942168L102.797862,188.326329L103.611546,189.053912L105.205701,190.747754L106.279094,192.191336L106.963218,193.611662L106.995417,195.160083L106.774677,195.765490L106.112476,196.382544L105.902189,196.801678L105.728370,197.616668L105.450638,198.204631L104.858350,199.281605L104.607159,199.857938L104.403979,200.655497L104.539481,201.226019L104.919651,201.749972L105.983023,202.483512L106.545277,203.182128L107.301375,205.685558L107.857237,206.314339L108.677653,207.111967L110.525430,208.550049L112.768339,210.972141L117.249764,218.064188L121.149301,215.036306L122.284923,214.448212L122.673117,214.157077L122.951692,213.877589L123.442791,213.801895L123.802524,213.801895L126.469545,215.013014L132.115597,213.528231L132.535981,212.689778L133.034344,212.095879L132.965109,211.647547L132.932180,211.292376L132.957827,210.972141L132.955803,210.651909L132.806386,209.935756L132.797594,208.945962L132.868840,208.520937L132.976391,208.189070L133.271547,208.090092L133.668071,208.189070L135.029320,209.341878L135.482819,209.458324L137.198250,209.458324L137.797757,209.359345L138.275769,209.143920L139.274727,208.282226L144.687293,206.291051L147.582376,205.592405L150.082133,206.587977L151.781950,208.200715L153.999682,211.210862L154.422385,211.589322L155.044206,211.927026L158.491953,213.289504L161.797472,213.720378L167.967665,213.615571L168.972958,213.417601L169.054713,213.109004L168.967165,212.765471L168.853582,212.439408L168.796979,212.130814L168.855423,211.868801L169.032735,211.694126L169.542809,211.822221L170.245125,212.229797L171.733548,213.347730L173.349520,215.234279L174.215432,215.909721L174.893807,216.061114L175.869756,215.746683L176.478898,215.455544L177.093498,215.222633L178.098479,215.315798L178.988088,215.653518L180.219051,216.678335L180.682343,217.190748L181.003984,217.668227L198.645775,220.830143L201.779180,217.674050L202.223750,217.400373L202.926754,217.225686L203.421482,217.481894L204.227258,217.807978L204.590440,217.551769L204.795784,216.992770L205.011699,215.571999L204.969919,214.547197L204.738911,213.277859L204.309067,211.857156L204.079104,211.571854L203.894869,211.379713L203.654743,211.181749L203.472166,211.007076L203.272480,210.651909L203.179537,210.547105L202.892360,210.436480L202.745184,210.343322L202.617951,210.168650L201.704165,208.701427L201.442611,207.985293L201.245151,207.653428L201.054868,207.397253L200.877832,207.280809L200.646640,206.884904L200.447052,206.238652L200.329552,204.707464L200.156024,203.752670L199.900604,202.809532L199.379161,201.394848L199.281371,200.655497L199.388244,200.032585L200.184430,199.095316L201.376074,198.245381L205.115962,198.501525L205.664182,198.740205L206.219606,199.054566L206.321424,199.543574L206.353543,200.172303L206.609723,201.121229L206.944993,201.447243L219.869822,203.741026L221.407119,204.486230L225.640698,207.874671L226.685938,208.969251L228.940775,212.008541L230.538769,213.673797L238.622986,217.377081L241.789500,218.075834L243.968310,219.729572L245.600651,221.744385L245.823518,223.107033L244.993207,225.226753L243.656923,227.171819L242.431872,229.413944L242.434330,230.887374L242.882219,231.807552L243.371976,232.296765L244.002405,232.809277L244.158011,233.857607L244.668803,234.276942L245.463016,234.474963L247.600367,234.434194L248.316551,234.684632L248.999109,235.162213L250.024186,236.035844L253.702312,238.010284L254.575133,238.738334L256.572825,241.860281L259.081389,246.939507L263.586317,248.279260L264.811816,248.349161L264.904728,248.162759L265.213690,247.341431L265.607956,246.543411L265.980072,246.380312L266.328115,246.543411L267.629096,247.976357L268.913359,248.850117L269.289969,248.733615L269.497017,248.582163L269.523869,248.285085L269.613955,248.069558L269.920596,247.801607L272.425391,246.485161L277.735582,242.285481L289.699454,235.896063L291.367757,232.255997L308.676502,230.409817L308.683008,229.908967L308.759654,229.559539L309.224338,228.080309L309.242184,227.695947L309.208641,227.352352L309.146276,226.997111L309.111024,226.636048L309.181381,226.222575L309.391659,225.541221L309.793980,224.842404L310.527662,223.852422L312.930870,221.255235L317.109053,215.502126L327.102210,217.691519L328.095072,217.656581L329.262176,217.423664L329.200467,216.515295L328.619350,214.547197L328.875599,214.058092L329.428198,213.487473L331.792640,211.647547L332.410335,210.896450L335.987578,204.160203L336.751917,203.217060L337.705181,202.786245L340.325079,202.704740L341.133056,202.483512L341.733548,202.122563L343.890755,198.955600L345.648464,195.206652L346.182918,194.461543L346.486362,193.896895L346.665394,193.471957L346.626800,191.970140Z " data-name="SK-" data-state-code="sk"/><path d="M91.230328,172.585013L87.930520,174.486063L84.879816,174.974899L63.750859,166.374232L55.014830,164.512260L47.167701,165.932009L38.115753,171.750973L36.683998,173.845926L36.017949,178.094225L33.701354,180.806293L27.963739,185.241279L24.137686,191.481001L17.065951,213.213628L15.298186,216.352073L12.732167,219.234430L12.670284,223.514485L15.268698,234.055444L14.575528,236.887252L15.173179,236.822120L25.732943,234.032330L33.772889,233.735301L34.345481,233.636292L34.422890,233.263552L34.179583,232.710269L33.559235,231.656130L34.633789,231.597890L37.016647,232.133694L45.134275,235.278697L46.930808,235.756281L47.964183,235.546610L55.142130,232.850045L57.447270,231.597890L60.590542,230.840783L62.797503,230.753424L64.151781,230.421464L64.868004,229.769195L65.457190,228.324904L66.069706,227.649358L66.805830,227.218408L68.384263,226.612754L69.696612,225.820750L70.027974,225.506280L70.296047,225.104460L70.598053,224.161062L70.832611,223.695191L71.232707,223.223499L71.976765,222.577111L72.995457,221.907436L73.344703,221.790971L73.699762,221.738562L73.967555,221.639567L74.142264,221.429931L74.287941,221.103832L78.702527,214.261886L80.127028,212.584972L81.215939,211.781464L82.091238,211.973606L82.588720,212.270555L82.977119,212.584972L83.358618,212.823697L85.263785,213.283682L85.925742,213.563167L86.600999,213.988220L87.415141,214.721879L88.182470,215.548708L88.943423,216.608461L89.532991,218.215585L89.809556,220.335175L89.021422,222.920686L88.222115,224.475527L85.382921,228.051191L84.847685,228.557853L84.338651,228.744212L83.733843,228.790802L83.148241,228.744212L82.546609,228.825744L82.220608,229.198464L81.230952,232.017215L80.963432,232.424893L80.577220,232.745213L78.661441,233.601347L78.845767,235.022433L78.092605,236.792999L88.527409,244.865843L86.940449,245.791996L86.276879,246.415262L85.481437,247.417156L83.118746,250.993776L81.829303,253.580214L82.668179,256.114294L85.035850,256.865793L87.480113,256.830840L87.890703,256.877445L88.274914,257.040561L88.688163,257.320191L89.229677,257.792068L90.606434,258.613489L91.708799,259.464046L92.231873,259.732031L92.993763,259.883502L96.188261,259.970888L96.768381,260.256353L96.894910,260.734070L96.558634,261.607949L96.238603,262.050718L96.197789,262.516792L96.574763,263.006173L98.380266,264.171375L99.041285,264.736503L100.407312,266.350340L101.901063,267.538886L102.802258,268.610921L106.254507,273.656630L107.046231,274.437397L107.636682,274.833609L108.667140,274.886049L109.393270,275.148250L110.008598,275.614386L111.105453,276.599104L111.753925,277.327453L112.325078,278.119901L112.782310,278.574397L112.863986,279.471739L112.560518,280.707055L111.303672,283.655554L110.140289,285.601841L110.079124,286.149605L110.093735,286.615789L111.407089,289.168182L121.695284,295.759218L117.207896,300.712941L116.474333,302.105849L116.409429,303.224850L116.956273,305.276377L117.382547,305.999083L117.859281,306.360437L118.676631,306.500317L122.507014,307.939918L122.965389,308.709266L123.019995,309.717586L122.892404,312.183049L123.357668,313.028195L123.797515,313.389569L124.538079,313.191396L124.844942,313.208882L125.081257,313.366254L125.491814,313.914147L125.795820,314.205580L125.859364,314.905021L125.704878,315.954191L124.791291,318.425601L124.267917,319.387365L123.647744,319.894480L122.667248,319.591377L120.717315,320.127637L115.391029,323.846542L110.796206,325.636082L109.937156,325.653570L109.136679,325.397087L107.695397,324.499401L106.833130,324.172971L104.397967,323.951466L103.883570,323.788251L103.658990,323.555088L103.569867,323.182028L103.731433,322.715704L104.416904,321.491612L104.048316,320.687215L103.812711,320.331649L103.705594,319.964427L103.526034,319.614692L103.168137,319.544746L102.617919,319.702126L101.561694,320.302505L100.861506,320.541491L100.283883,320.908715L99.891159,321.479954L99.567211,323.741619L99.707120,324.371161L99.911438,324.790857L100.169184,325.187238L101.132557,326.020808L101.530706,326.434680L101.785325,326.796090L101.868647,327.105038L101.682723,327.507255L101.225967,327.985253L100.122227,328.369984L99.468980,328.515716L98.747099,328.824668L98.041959,329.320159L96.779332,330.410243L95.109724,331.401237L94.384437,331.570289L92.382230,331.640242L88.084942,330.783323L87.447360,330.794981L87.104134,330.993180L87.021234,331.307967L88.175381,332.724515L88.276301,333.231678L88.271884,333.802966L88.133178,334.735687L88.127179,335.289493L88.220784,335.715050L88.439685,335.989040L89.965129,336.898456L91.011734,337.732092L91.419325,337.941959L91.815961,338.029404L94.658209,337.825366L94.968925,337.883662L95.296212,338.023574L95.536153,338.221782L95.871055,338.653177L95.818938,338.898024L95.117267,339.539290L93.238260,340.576981L90.687396,342.489149L89.478133,342.943875L88.623326,343.013833L88.130299,342.780640L87.725116,342.908896L87.487970,343.363624L87.579940,344.704494L87.852471,345.578980L88.270144,346.523431L88.120455,347.024808L87.606499,347.491207L85.797042,348.383198L84.895749,348.972032L81.890397,352.347661L81.407217,358.055478L81.400906,358.129966L83.295987,358.568367L95.118993,360.060945L101.123100,364.014003L121.394714,384.865011L123.279473,386.241151L125.192146,386.894238L129.769890,387.698936L131.522505,388.631922L138.279370,396.335014L140.639515,398.241869L142.488938,398.183555L144.220670,397.437140L146.219070,397.180560L148.991880,398.311845L152.924298,400.574429L156.487031,403.256894L158.106754,405.577829L160.140801,407.350614L168.098922,410.850719L168.135453,410.814750L169.438408,409.531800L169.984897,407.887298L170.785109,402.603953L171.086142,401.834201L171.460292,401.460988L171.894858,401.548460L172.650593,401.904178L173.018126,401.968324L173.408179,401.974155L173.803537,402.038301L174.233085,402.172425L175.238138,401.904178L176.651177,401.227731L179.814652,399.000131L181.025428,397.938819L181.701773,397.017464L181.315105,392.171651L181.816388,390.655529L182.385365,389.576756L183.277814,388.690416L183.768933,388.282234L184.228944,388.142286L184.599034,388.235584L185.266602,387.932364L186.551471,387.081016L188.350953,384.561977L192.318637,381.331580L195.171768,379.698905L196.227643,378.783446L196.374496,377.961285L195.721930,376.911722L194.367760,375.185786L194.454764,372.503614L194.746440,371.745615L194.931192,371.034265L194.937337,370.194641L194.662280,369.320037L194.377669,368.643679L192.978979,367.640807L192.885996,361.798597L190.914344,353.968452L191.295879,349.065312L191.129557,347.864327L190.601201,346.954848L190.102072,346.663350L189.645781,346.535091L189.034644,346.535091L188.698072,346.500111L187.926550,346.266913L186.654895,346.132824L186.064693,345.957926L185.226093,345.398253L184.915562,345.042628L184.918498,344.471298L185.476345,342.687363L185.069979,341.894509L184.488694,341.614679L183.417818,341.748764L180.553581,342.617405L179.587863,342.687363L178.787623,342.442511L177.486178,341.579700L176.934784,341.020042L176.758305,340.308813L177.013334,339.457674L178.197806,336.332985L178.111557,334.490847L176.996912,332.940205L168.455608,325.606937L168.299454,324.814173L168.929713,324.120509L171.784925,323.170370L172.719112,323.065447L173.367258,323.170370L174.662113,323.665841L175.953534,324.324528L176.465054,324.452768L176.963144,324.435281L177.502784,324.266237L177.979909,324.021415L178.391827,323.671670L178.689467,323.286951L179.033599,322.202750L178.997461,320.908715L178.324492,319.632179L176.567128,317.131602L175.999553,316.094081L175.879499,315.394633L177.082149,314.893364L177.717015,314.555300L178.074578,314.520328L178.591366,314.706846L181.327301,317.283151L181.706978,317.487159L182.171820,317.411385L184.041899,316.024136L186.832588,314.590272L187.530091,314.030720L188.009534,313.214710L188.413298,311.582707L188.327566,310.358718L187.938552,309.455305L187.260523,308.726751L185.339851,307.164746L184.837898,306.838359L184.385843,306.750934L183.880123,306.383751L183.291919,305.725154L182.423256,303.935887L182.182268,303.131599L182.321995,302.443879L182.779243,301.989287L183.235039,301.219981L183.176676,300.590553L182.716357,299.914504L182.651388,299.413297L182.894382,298.743083L183.558490,297.828100L184.606467,295.969018L179.641218,292.478221L179.346196,291.988702L179.061617,291.312703L179.496343,290.916430L179.822283,290.543468L180.044462,289.949062L180.443732,286.184569L180.451189,285.269688L180.553226,284.378124L180.714416,283.725480L181.216831,280.380744L183.949151,277.863520L194.779468,258.706700L198.345071,255.071526L189.757640,248.285085L185.562416,245.588125L184.870938,245.302707L184.366384,245.238633L176.173222,241.836983L178.981829,238.901418L179.268333,238.412167L183.639923,226.571989L184.334340,225.418928L184.872795,225.453869L185.465133,225.669339L187.866959,226.973816L188.984123,227.078641L190.462535,226.903933L198.456137,224.097005L199.318977,223.561254L199.663029,223.101209L199.451289,222.617875L199.223425,222.256831L198.645775,220.830143L181.003984,217.668227L180.682343,217.190748L180.219051,216.678335L178.988088,215.653518L178.098479,215.315798L177.093498,215.222633L176.478898,215.455544L175.869756,215.746683L174.893807,216.061114L174.215432,215.909721L173.349520,215.234279L171.733548,213.347730L170.245125,212.229797L169.542809,211.822221L169.032735,211.694126L168.855423,211.868801L168.796979,212.130814L168.853582,212.439408L168.967165,212.765471L169.054713,213.109004L168.972958,213.417601L167.967665,213.615571L161.797472,213.720378L158.491953,213.289504L155.044206,211.927026L154.422385,211.589322L153.999682,211.210862L151.781950,208.200715L150.082133,206.587977L147.582376,205.592405L144.687293,206.291051L139.274727,208.282226L138.275769,209.143920L137.797757,209.359345L137.198250,209.458324L135.482819,209.458324L135.029320,209.341878L133.668071,208.189070L133.271547,208.090092L132.976391,208.189070L132.868840,208.520937L132.797594,208.945962L132.806386,209.935756L132.955803,210.651909L132.957827,210.972141L132.932180,211.292376L132.965109,211.647547L133.034344,212.095879L132.535981,212.689778L132.115597,213.528231L126.469545,215.013014L123.802524,213.801895L123.442791,213.801895L122.951692,213.877589L122.673117,214.157077L122.284923,214.448212L121.149301,215.036306L117.249764,218.064188L112.768339,210.972141L110.525430,208.550049L108.677653,207.111967L107.857237,206.314339L107.301375,205.685558L106.545277,203.182128L105.983023,202.483512L104.919651,201.749972L104.539481,201.226019L104.403979,200.655497L104.607159,199.857938L104.858350,199.281605L105.450638,198.204631L105.728370,197.616668L105.902189,196.801678L106.112476,196.382544L106.774677,195.765490L106.995417,195.160083L106.963218,193.611662L106.279094,192.191336L105.205701,190.747754L103.611546,189.053912L102.797862,188.326329L102.200204,187.942168L100.650450,187.627856L100.250471,187.488163L99.872781,187.290263L99.549322,187.080724L99.257807,186.917749L97.423216,185.311305L95.035148,182.796945L94.018012,181.958845L93.123706,181.854083L90.415553,184.973724L89.875587,185.416072L89.442835,185.520839L88.889861,185.520839L86.694263,185.095951L82.652396,183.832943L87.828528,179.386409L89.536761,177.221447L90.850164,173.974134L91.230328,172.585013Z " data-name="SK-" data-state-code="sk"/><path d="M974.657574,166.271978L974.536918,166.246401L966.137771,164.465893L965.260448,164.524079L960.806972,165.652893L954.972638,165.932190L954.027829,165.652893L953.330542,165.129214L953.002647,163.988772L952.719890,162.528337L949.345821,157.111637L948.888720,156.046970L948.753731,155.215029L948.465230,154.330740L947.774343,153.469735L944.505015,151.980455L939.678170,152.038630L933.930099,159.613385L930.303514,160.963207L929.855338,161.382123L929.307888,161.975591L929.291518,162.464335L929.370653,162.982174L929.582819,163.534928L930.544064,165.606344L931.293117,167.753471L931.499442,168.806694L931.360174,169.504973L931.025452,169.714458L930.396294,169.848296L920.156624,170.040326L914.907727,170.767714L911.582522,170.692065L907.720563,169.883211L899.120115,165.792542L897.938534,164.977929L897.954559,164.640450L897.467807,164.256425L896.442548,163.756031L893.896116,162.766892L876.124218,158.100689L869.392233,157.937785L869.858820,163.651298L870.017711,164.070231L870.233209,164.500805L870.418970,165.152488L870.761468,168.120060L870.970701,168.975444L871.986070,171.308895L872.148976,171.762793L872.201516,173.176879L872.350867,173.752997L872.677460,174.428050L873.900656,176.406694L874.282415,177.320382L874.404658,178.140965L874.240924,179.118695L873.828879,180.340876L873.187887,181.015995L872.250300,181.516519L868.976805,182.459376L866.300469,184.671066L862.309029,185.305485L861.166349,185.788578L861.035175,186.091241L860.873118,186.847903L860.637337,187.202955L860.205326,187.534727L859.524449,187.866500L858.563045,188.163351L857.176855,188.372894L855.444499,188.215737L853.448318,187.686062L849.856413,185.613966L848.533986,185.171616L847.053984,185.043568L843.943690,185.165796L839.265820,184.473175L827.639320,180.783195L821.581357,172.973202L820.622460,171.914093L819.413729,170.197441L818.694836,168.818332L818.216079,166.554795L817.897428,165.455058L815.305192,161.131936L812.910171,162.179234L812.511130,162.557429L811.734519,163.017084L810.332810,163.325463L808.959739,163.156727L806.546832,162.185052L805.682000,161.382123L805.130358,160.660658L804.984022,160.102110L804.700870,159.555204L804.394325,159.531932L804.057106,159.968292L804.057301,161.673038L803.937993,162.569066L803.684918,163.017084L803.201337,162.894897L802.405044,162.208326L801.032429,161.312303L800.349536,161.137755L799.486478,161.161028L797.881524,161.626491L797.288919,162.004683L797.114699,162.417787L797.797789,163.325463L798.079495,163.860764L798.215194,164.570627L798.102626,167.479984L797.760719,169.097643L797.344311,170.057783L796.793598,170.564044L796.161919,170.843362L795.597344,170.983022L792.778378,171.227427L790.758146,171.937370L789.960585,172.053755L787.388972,172.042116L786.490715,172.164320L785.827335,172.408730L785.458041,172.810261L785.230208,173.240892L785.147119,173.729719L785.227891,174.201092L785.444891,174.655009L785.760646,175.004179L786.682438,175.580312L786.988366,175.842193L787.035032,176.010961L786.893459,176.226286L786.415598,176.400875L784.062707,176.616201L781.884407,176.418333L779.847325,175.591951L776.308274,173.124505L774.080447,170.517491L773.934057,169.953040L773.856025,169.504973L773.966201,169.010358L774.271120,168.527385L775.175065,167.474166L775.399655,167.014479L775.713031,166.607164L776.693727,165.745992L776.903089,165.396871L776.920333,165.059390L776.529852,164.291336L776.402379,163.895675L776.121578,163.610568L775.614394,163.523291L774.553728,163.918949L773.564254,163.965498L772.656485,163.756031L771.353642,162.982174L770.057259,162.510882L768.331076,162.475972L765.643634,161.673038L762.063231,162.266510L760.970199,161.882498L759.260826,160.683931L758.303084,159.863566L757.678064,159.217754L757.293659,158.746489L756.747418,158.310137L756.038694,157.902877L755.106368,157.472348L754.515354,157.129091L753.832119,156.948736L752.970518,156.902193L749.808506,157.774882L748.973778,157.803972L745.507153,157.437441L738.516501,155.529187L736.084591,155.767715L735.602941,155.907343L734.925968,156.029516L734.211985,155.820075L733.432737,155.273206L732.265924,153.975865L731.825697,153.248668L731.572626,152.713456L731.503461,152.341137L730.937473,151.724489L727.718660,149.362668L726.796923,148.362121L726.293493,147.315055L726.279950,146.698458L726.221550,146.174936L726.075754,145.610702L725.474550,144.429898L724.749137,144.115796L723.688104,144.011096L721.291733,144.313564L720.303685,144.616033L719.728551,144.906870L719.621574,145.186075L719.404130,145.465281L718.589024,145.337312L713.276669,142.597662L709.524109,142.126524L705.666008,139.544059L700.145632,140.556093L699.309541,140.486297L698.150385,140.242011L696.019498,139.450999L695.394929,138.881011L695.305454,138.322661L695.951116,137.671260L695.736468,137.229241L694.748136,136.781410L691.899768,136.240527L687.500705,134.658620L685.467989,134.251518L684.972159,134.344570L684.847076,134.961040L685.034624,135.408858L685.563153,136.194000L685.678809,136.740698L685.669275,137.403722L685.546108,138.287765L685.524979,138.846114L685.569966,139.253248L685.790232,139.497529L686.128864,139.730179L687.070271,140.253644L687.431179,140.521195L687.402954,140.765481L687.110587,140.951605L686.525613,141.155178L675.188717,139.590589L671.949835,139.765076L670.848502,140.044257L670.136269,140.346705L669.976258,140.649154L669.985752,140.986503L670.135865,141.347120L670.730134,142.231221L670.844960,142.522047L670.758815,142.743075L669.938376,143.569031L669.480320,143.923846L668.803890,144.301930L667.031633,145.011572L664.837455,145.232609L662.752250,145.104640L661.602982,144.697467L659.089816,141.672840L658.697241,141.114464L657.745231,140.742216L656.240727,140.451399L652.476223,140.114053L647.966173,138.008592L642.933469,134.990119L641.914106,134.251518L641.455157,133.588530L641.693139,131.977617L641.488351,131.366993L640.545628,131.076223L639.740392,131.285577L638.463453,132.483567L638.049761,133.245408L637.907020,133.960733L638.967901,135.333252L639.066295,135.728729L638.464328,136.031155L634.390592,137.240873L633.916450,137.450250L633.871020,137.793397L633.979479,138.281949L634.406777,139.416102L634.775140,140.009360L635.148305,140.393236L635.474216,140.596807L635.687146,140.777114L635.796602,141.021402L635.444977,140.835278L634.715120,140.218746L631.564074,136.891913L627.283826,134.600463L625.978132,134.356201L625.763713,134.077047L625.277373,133.751369L624.819225,133.600162L624.134364,133.902576L621.615161,136.124209L620.829877,136.519692L620.257680,136.589483L619.850321,136.397557L619.384769,136.432453L618.941945,136.676723L617.794858,137.554939L610.310858,140.428134L608.103503,141.719371L607.274019,142.475514L605.313329,145.116274L603.391540,146.756627L603.360144,147.233617L603.908713,147.710611L606.008917,147.978195L608.405870,148.606440L611.299290,151.357994L606.320067,154.191117L605.417185,155.040497L604.362806,156.535667L602.733492,160.905024L600.333902,162.999629L596.401841,164.035320L589.143431,174.532800L588.509436,175.842193L588.792794,176.942102L588.811491,177.634647L588.760596,178.193343L588.882452,180.369976L589.043056,182.133448L589.805625,184.356769L590.014022,185.532480L589.371808,186.510314L588.610248,187.406675L587.749548,188.151710L587.208212,188.780340L586.855450,189.362409L586.823828,190.363580L587.021708,191.702378L587.941624,194.368405L588.779287,195.742205L590.311295,196.883176L592.349099,197.232457L592.776461,197.436205L602.617442,203.775957L603.771967,205.435211L608.444256,214.477325L610.104083,218.623194L609.981492,219.030805L609.858895,219.438419L609.825529,219.904265L609.907832,220.416699L610.256976,220.835966L610.977111,221.360053L612.656958,222.058840L613.964958,222.384943L615.935938,222.612051L616.562902,222.780927L618.130951,223.468080L619.764055,223.986360L620.178326,224.236767L620.299936,224.597819L619.965873,226.135221L619.586496,229.064518L619.386086,229.780843L619.109785,230.304987L618.698147,230.858254L618.305120,231.586243L617.977993,232.413245L617.642632,233.682884L616.909416,239.017907L616.527355,239.938174L615.665479,241.207925L615.119744,242.326253L614.765341,243.421297L614.585277,244.854194L614.738466,245.774522L615.044222,246.566710L615.764997,247.615206L616.024497,248.232659L616.120891,248.879242L616.043030,249.450103L616.048883,250.026793L616.568209,250.743291L617.504319,251.471446L620.816081,253.090882L621.278700,253.533611L621.178570,253.894785L620.891313,254.320041L620.710532,254.704521L620.609764,255.059875L620.692409,255.316197L621.505774,255.409405L628.993854,254.873460L631.826222,255.193862L633.286535,255.118130L636.234107,253.661769L637.494528,253.271468L641.406893,253.242341L644.597062,255.094828L644.705838,255.157991L645.073048,254.797547L647.151705,251.785828L647.214604,250.993594L647.202369,250.189716L647.098409,249.391670L646.902732,248.599456L646.133012,244.690917L645.987324,242.815344L646.008021,241.114550L650.972647,239.378841L661.981891,238.749801L698.974788,231.428814L701.868156,231.388047L704.770268,232.611079L710.510668,236.664683L713.156858,237.229640L718.823698,237.730533L729.099519,242.716324L735.521902,243.193950L739.958110,242.902715L745.307483,243.694878L750.501489,245.587943L754.431184,248.570331L759.052646,249.449921L772.269802,243.904569L778.071272,242.774572L781.434508,243.962817L783.824487,245.529695L785.938601,246.275282L788.440365,245.028757L790.245174,242.500811L790.993068,240.101078L792.253866,237.998454L795.549726,236.268632L798.482935,235.756099L804.562261,235.645439L813.552345,233.181833L816.229603,233.845777L822.566922,236.851060L825.917506,237.916913L827.581623,239.087618L828.980981,241.021356L831.097745,245.389897L832.476403,246.974275L835.443540,248.069376L842.027507,247.993651L845.139597,248.570331L846.980351,251.133399L850.358711,260.442597L852.090358,262.854516L863.564441,275.777352L868.265630,279.926058L873.330295,282.868709L879.113436,284.477004L884.503406,284.080755L893.312318,280.100867L900.909792,279.133596L906.063025,276.511521L908.570428,275.649164L917.856773,275.241295L921.036857,274.285722L924.250899,274.110923L935.052993,274.996574L938.285635,274.180843L941.169083,272.100758L944.130547,268.459255L942.419515,252.216900L943.970657,248.547031L944.188094,245.005457L941.042731,235.872584L940.881955,231.306512L943.131869,227.637528L953.873753,219.735213L954.789054,218.093120L956.232604,214.500434L957.394077,212.916676L959.442095,211.659010L964.052553,210.389719L966.072769,209.213606L968.559869,206.046342L970.242063,201.842938L970.822310,197.057635L970.032093,192.226080L970.229848,189.210889L971.419648,187.732445L972.966612,186.626542L974.295070,184.764009L975.224688,182.179828L975.449920,180.654973L974.159801,173.019575L973.592072,171.180691L973.512983,169.423325L974.366714,166.676807L974.657574,166.271978Z " data-name="SK-" data-state-code="sk"/><path d="M807.532427,40.532753L804.420444,41.617280L801.740103,40.978709L795.290268,42.174586L792.356437,42.197807L774.582895,38.157492L764.132375,33.780890L761.617504,33.293337L758.617628,35.127491L753.854645,41.907543L751.078229,44.264544L747.320328,44.787049L744.427132,43.242775L741.627360,40.909047L738.207269,39.086268L735.430659,38.877292L728.356236,40.084724L725.761815,41.152864L722.542493,44.473545L724.940865,46.517161L729.268222,48.572479L731.820486,51.963373L730.604030,54.018932L727.379648,54.564773L723.638125,54.599614L720.902709,55.087393L717.581896,58.025787L712.573736,65.053115L709.045823,67.806249L705.016409,69.049276L701.689332,68.538121L698.610873,66.807203L695.428090,64.309680L691.874178,62.265292L689.043640,61.916825L686.030477,62.067827L681.988113,61.556745L678.988407,59.860923L661.474453,44.287767L658.657494,43.881378L652.039621,44.775437L648.150415,44.299378L646.527218,44.392267L644.804516,45.239891L642.299483,48.131217L640.437413,49.710492L636.371448,50.953047L632.391975,50.163382L616.676247,43.834934L613.962469,44.357433L614.426060,48.224114L605.279691,48.514418L597.761592,46.250092L595.654530,46.284928L593.960967,47.411271L593.453039,48.804724L593.312612,50.871757L592.746003,54.077000L591.819997,57.189545L591.047947,58.188391L577.440250,59.187258L574.877525,60.441677L571.418351,64.263215L569.819994,65.610699L565.866370,65.227359L565.387773,64.878872L564.498594,65.994042L561.783851,72.302206L561.062546,74.974417L560.101651,77.472483L558.135268,79.680181L557.971897,87.535719L556.739694,93.160839L553.504194,95.380837L547.346338,92.986497L537.408257,85.839006L532.237003,83.712384L526.596220,84.235315L523.591258,86.210883L520.437641,89.182037L520.702591,89.883500L525.024110,95.160177L526.098588,96.961807L526.984708,99.065725L527.362901,101.838142L527.736495,103.273811L528.696447,104.517701L529.307252,104.814146L529.792582,104.709519L530.078965,104.291009L530.625660,103.727188L531.278004,103.378436L532.560669,103.250561L533.694184,103.448186L534.852353,104.221257L535.865256,105.441918L537.208059,107.685681L537.983914,108.493691L538.556714,108.691336L538.983466,108.296048L539.404965,108.110030L539.953909,108.342552L540.596250,109.191264L541.211292,109.784207L541.834067,110.191133L542.523732,110.191133L545.952894,109.667943L548.280315,108.732027L549.191458,108.482065L550.121884,108.412309L550.719274,109.354032L551.045189,111.109633L550.650647,117.737243L550.861444,120.225707L550.841338,122.103757L550.330408,125.330891L550.467629,128.168595L550.282175,129.535162L549.682959,130.128320L548.507182,130.232995L546.656726,131.000622L545.694307,131.035515L544.400472,130.895945L543.835647,131.035515L543.702450,131.599611L543.968944,132.547538L550.755683,139.160188L551.925403,140.032625L552.879226,140.951605L553.573059,142.021828L554.029682,143.976196L554.984852,146.204021L555.464985,147.082376L555.916024,147.687343L556.520394,148.175975L557.433901,148.455195L559.437466,148.769319L559.906900,149.287045L559.618753,150.211983L557.855724,151.899011L556.081032,153.132317L550.243757,155.389561L576.181928,158.054145L579.539126,157.844697L582.083134,155.802622L583.269109,155.785169L586.679674,157.193088L590.272031,158.147232L591.285136,158.577766L592.676609,159.444660L600.333902,162.999629L602.733492,160.905024L604.362806,156.535667L605.417185,155.040497L606.320067,154.191117L611.299290,151.357994L608.405870,148.606440L606.008917,147.978195L603.908713,147.710611L603.360144,147.233617L603.391540,146.756627L605.313329,145.116274L607.274019,142.475514L608.103503,141.719371L610.310858,140.428134L617.794858,137.554939L618.941945,136.676723L619.384769,136.432453L619.850321,136.397557L620.257680,136.589483L620.829877,136.519692L621.615161,136.124209L624.134364,133.902576L624.819225,133.600162L625.277373,133.751369L625.763713,134.077047L625.978132,134.356201L627.283826,134.600463L631.564074,136.891913L634.715120,140.218746L635.444977,140.835278L635.796602,141.021402L635.687146,140.777114L635.474216,140.596807L635.148305,140.393236L634.775140,140.009360L634.406777,139.416102L633.979479,138.281949L633.871020,137.793397L633.916450,137.450250L634.390592,137.240873L638.464328,136.031155L639.066295,135.728729L638.967901,135.333252L637.907020,133.960733L638.049761,133.245408L638.463453,132.483567L639.740392,131.285577L640.545628,131.076223L641.488351,131.366993L641.693139,131.977617L641.455157,133.588530L641.914106,134.251518L642.933469,134.990119L647.966173,138.008592L652.476223,140.114053L656.240727,140.451399L657.745231,140.742216L658.697241,141.114464L659.089816,141.672840L661.602982,144.697467L662.752250,145.104640L664.837455,145.232609L667.031633,145.011572L668.803890,144.301930L669.480320,143.923846L669.938376,143.569031L670.758815,142.743075L670.844960,142.522047L670.730134,142.231221L670.135865,141.347120L669.985752,140.986503L669.976258,140.649154L670.136269,140.346705L670.848502,140.044257L671.949835,139.765076L675.188717,139.590589L686.525613,141.155178L687.110587,140.951605L687.402954,140.765481L687.431179,140.521195L687.070271,140.253644L686.128864,139.730179L685.790232,139.497529L685.569966,139.253248L685.524979,138.846114L685.546108,138.287765L685.669275,137.403722L685.678809,136.740698L685.563153,136.194000L685.034624,135.408858L684.847076,134.961040L684.972159,134.344570L685.467989,134.251518L687.500705,134.658620L691.899768,136.240527L694.748136,136.781410L695.736468,137.229241L695.951116,137.671260L695.305454,138.322661L695.394929,138.881011L696.019498,139.450999L698.150385,140.242011L699.309541,140.486297L700.145632,140.556093L705.666008,139.544059L709.524109,142.126524L713.276669,142.597662L718.589024,145.337312L719.404130,145.465281L719.621574,145.186075L719.728551,144.906870L720.303685,144.616033L721.291733,144.313564L723.688104,144.011096L724.749137,144.115796L725.474550,144.429898L726.075754,145.610702L726.221550,146.174936L726.279950,146.698458L726.293493,147.315055L726.796923,148.362121L727.718660,149.362668L730.937473,151.724489L731.503461,152.341137L731.572626,152.713456L731.825697,153.248668L732.265924,153.975865L733.432737,155.273206L734.211985,155.820075L734.925968,156.029516L735.602941,155.907343L736.084591,155.767715L738.516501,155.529187L745.507153,157.437441L748.973778,157.803972L749.808506,157.774882L752.970518,156.902193L753.832119,156.948736L754.515354,157.129091L755.106368,157.472348L756.038694,157.902877L756.747418,158.310137L757.293659,158.746489L757.678064,159.217754L758.303084,159.863566L759.260826,160.683931L760.970199,161.882498L762.063231,162.266510L765.643634,161.673038L768.331076,162.475972L770.057259,162.510882L771.353642,162.982174L772.656485,163.756031L773.564254,163.965498L774.553728,163.918949L775.614394,163.523291L776.121578,163.610568L776.402379,163.895675L776.529852,164.291336L776.920333,165.059390L776.903089,165.396871L776.693727,165.745992L775.713031,166.607164L775.399655,167.014479L775.175065,167.474166L774.271120,168.527385L773.966201,169.010358L773.856025,169.504973L773.934057,169.953040L774.080447,170.517491L776.308274,173.124505L779.847325,175.591951L781.884407,176.418333L784.062707,176.616201L786.415598,176.400875L786.893459,176.226286L787.035032,176.010961L786.988366,175.842193L786.682438,175.580312L785.760646,175.004179L785.444891,174.655009L785.227891,174.201092L785.147119,173.729719L785.230208,173.240892L785.458041,172.810261L785.827335,172.408730L786.490715,172.164320L787.388972,172.042116L789.960585,172.053755L790.758146,171.937370L792.778378,171.227427L795.597344,170.983022L796.161919,170.843362L796.793598,170.564044L797.344311,170.057783L797.760719,169.097643L798.102626,167.479984L798.215194,164.570627L798.079495,163.860764L797.797789,163.325463L797.114699,162.417787L797.288919,162.004683L797.881524,161.626491L799.486478,161.161028L800.349536,161.137755L801.032429,161.312303L802.405044,162.208326L803.201337,162.894897L803.684918,163.017084L803.937993,162.569066L804.057301,161.673038L804.057106,159.968292L804.394325,159.531932L804.700870,159.555204L804.984022,160.102110L805.130358,160.660658L805.682000,161.382123L806.546832,162.185052L808.959739,163.156727L810.332810,163.325463L811.734519,163.017084L812.511130,162.557429L812.910171,162.179234L815.305192,161.131936L817.897428,165.455058L818.216079,166.554795L818.694836,168.818332L819.413729,170.197441L820.622460,171.914093L821.581357,172.973202L827.639320,180.783195L839.265820,184.473175L843.943690,185.165796L847.053984,185.043568L848.533986,185.171616L849.856413,185.613966L853.448318,187.686062L855.444499,188.215737L857.176855,188.372894L858.563045,188.163351L859.524449,187.866500L860.205326,187.534727L860.637337,187.202955L860.873118,186.847903L861.035175,186.091241L861.166349,185.788578L862.309029,185.305485L866.300469,184.671066L868.976805,182.459376L872.250300,181.516519L873.187887,181.015995L873.828879,180.340876L874.240924,179.118695L874.404658,178.140965L874.282415,177.320382L873.900656,176.406694L872.677460,174.428050L872.350867,173.752997L872.201516,173.176879L872.148976,171.762793L871.986070,171.308895L870.970701,168.975444L870.761468,168.120060L870.418970,165.152488L870.233209,164.500805L870.017711,164.070231L869.858820,163.651298L869.392233,157.937785L876.124218,158.100689L893.896116,162.766892L896.442548,163.756031L897.467807,164.256425L897.954559,164.640450L897.938534,164.977929L899.120115,165.792542L907.720563,169.883211L911.582522,170.692065L914.907727,170.767714L920.156624,170.040326L930.396294,169.848296L931.025452,169.714458L931.360174,169.504973L931.499442,168.806694L931.293117,167.753471L930.544064,165.606344L929.582819,163.534928L929.370653,162.982174L929.291518,162.464335L929.307888,161.975591L929.855338,161.382123L930.303514,160.963207L933.930099,159.613385L939.678170,152.038630L944.505015,151.980455L947.774343,153.469735L948.465230,154.330740L948.753731,155.215029L948.888720,156.046970L949.345821,157.111637L952.719890,162.528337L953.002647,163.988772L953.330542,165.129214L954.027829,165.652893L954.972638,165.932190L960.806972,165.652893L965.260448,164.524079L966.137771,164.465893L974.536918,166.246401L974.657574,166.271978L975.821466,164.651906L979.737264,161.637946L981.174192,159.624840L981.360907,158.251775L980.996551,155.342837L981.086040,154.237476L982.819262,150.235070L985.558785,140.788565L988.443411,138.741242L995.190440,137.903721L997.717134,135.949551L997.187360,132.146085L997.392807,126.958883L998.063049,121.818666L998.978154,118.109161L992.512402,115.585908L978.528201,115.085922L971.799498,113.423211L961.888444,105.900945L957.951814,104.657023L948.151621,104.970907L939.551803,102.855131L938.115982,101.913521L937.542843,100.495326L937.866415,99.042296L937.659935,97.461444L935.496906,95.659796L933.998615,95.427330L929.784874,95.857393L927.990667,95.764406L925.842086,95.008893L919.685000,91.917216L906.859070,89.929807L901.461928,86.873297L899.439645,79.715040L896.259347,71.779399L890.344604,64.948569L883.344469,59.953844L873.311234,56.004896L866.208407,51.045949L862.778319,49.513079L859.262911,50.058868L856.470430,52.381446L854.245965,54.855117L852.511587,55.877141L849.560463,54.042159L842.702850,46.447491L839.413993,43.916211L837.601608,43.486604L834.908372,43.997489L833.550828,43.846545L831.631117,42.813174L828.016307,40.154384L826.100965,39.155927L822.696520,38.447732L810.117150,39.631933L807.532427,40.532753Z " data-name="SK-" data-state-code="sk"/></g><g class="" id="cities"><circle cx="403.418943693" cy="194.418248554" data-name="Banska Bystrica" data-state-code="sk" r="8"/><circle cx="134.539501409" cy="277.074350984" data-name="Trnava" data-state-code="sk" r="8"/><circle cx="403.824091351" cy="228.118527192" data-name="Zvolen" data-state-code="sk" r="8"/><circle cx="321.029832503" cy="84.9011529435" data-name="Zilina" data-state-code="sk" r="8"/><circle cx="778.118201295" cy="195.058576034" data-name="Kosice" data-state-code="sk" r="8"/><circle cx="769.39391256" cy="134.417629998" data-name="Presov" data-state-code="sk" r="8"/><circle cx="52.5044073336" cy="325.924990521" data-name="Bratislava" data-state-code="sk" r="8"/></g></svg>